<svg xmlns="http://www.w3.org/2000/svg" enable-background="new 0 0 2000 2000" viewBox="0 0 2000 2000"><path fill="#d1c6e2" fill-rule="evenodd" d="M588.4,756.21c40.87-26.31,85.47-44.45,131.5-54.42v-60.34c0-19.25,15.73-34.98,34.98-34.98h24.81h50.87h24.81   c19.25,0,34.98,15.74,34.98,34.97v60.35c46.03,9.97,90.63,28.1,131.51,54.42l42.63-42.63c13.61-13.6,35.86-13.6,49.46,0.01   l17.55,17.55l35.97,35.97l17.55,17.55c13.61,13.6,13.62,35.86,0,49.47l-42.62,42.62c26.32,40.87,44.46,85.47,54.42,131.51h60.32   c19.25,0,34.98,15.74,34.98,34.98v24.81v50.86v24.82c0,19.23-15.73,34.97-34.98,34.97h-60.32c-9.97,46.03-28.11,90.64-54.43,131.51   l42.63,42.63c13.6,13.6,13.61,35.86,0,49.46l-17.55,17.55l-35.97,35.97l-17.55,17.54c-13.61,13.6-35.86,13.6-49.46,0l-42.63-42.62   c-40.88,26.31-85.49,44.45-131.51,54.42v60.34c0,19.25-15.73,34.98-34.98,34.98h-24.81h-50.87h-24.81   c-19.25,0-34.98-15.74-34.99-34.98l0.01-60.33c-46.03-9.97-90.63-28.1-131.5-54.42l-42.63,42.62c-13.61,13.61-35.86,13.6-49.47,0   l-17.55-17.55l-35.97-35.96l-17.55-17.55c-13.6-13.6-13.61-35.86,0-49.47l42.62-42.62c-26.33-40.87-44.47-85.49-54.43-131.51   h-60.31c-19.25,0-34.98-15.74-34.99-34.97v-24.82v-50.86l0.01-24.81c-0.01-19.23,15.73-34.97,34.98-34.98h60.32   c9.97-46.02,28.11-90.64,54.43-131.5l-42.63-42.63c-13.61-13.61-13.61-35.86,0-49.46l17.55-17.55l35.97-35.97l17.55-17.55   c13.61-13.6,35.85-13.6,49.46,0L588.4,756.21L588.4,756.21z M1439.55,577.25c-19.01-1.94-36.15,12.02-38.08,31.03l-3.41,33.53   c-23.13,5.49-44.75,15.32-63.82,28.69l-27.37-19.75c-15.49-11.17-37.3-7.65-48.48,7.84l-31.04,43   c-11.18,15.49-7.65,37.3,7.83,48.49l27.34,19.74c-3.28,11.06-5.61,22.58-6.82,34.47c-1.21,11.9-1.27,23.65-0.27,35.14l-30.76,13.81   c-17.43,7.82-25.28,28.48-17.45,45.91l21.73,48.38c7.82,17.43,28.47,25.28,45.9,17.46l30.78-13.82   c15.98,16.93,35.17,30.93,56.72,40.98l-3.42,33.53c-1.93,19,12.02,36.13,31.04,38.07l52.75,5.37c19,1.94,36.14-12.02,38.07-31.03   l3.42-33.53c23.14-5.5,44.75-15.33,63.83-28.7l27.35,19.75c15.5,11.18,37.32,7.65,48.49-7.84l31.04-43   c11.18-15.49,7.65-37.31-7.83-48.49l-27.34-19.73c3.28-11.05,5.61-22.57,6.82-34.47c1.21-11.9,1.27-23.65,0.27-35.15l30.76-13.81   c17.43-7.82,25.27-28.48,17.45-45.91l-21.73-48.38c-7.81-17.43-28.47-25.28-45.9-17.46l-30.78,13.82   c-15.98-16.93-35.18-30.93-56.72-40.98l3.42-33.53c1.93-19.01-12.02-36.14-31.04-38.07L1439.55,577.25L1439.55,577.25z    M1441.14,737.67c47.23,0,85.52,38.3,85.52,85.53s-38.29,85.52-85.52,85.52c-47.23,0-85.52-38.29-85.52-85.52   S1393.9,737.67,1441.14,737.67L1441.14,737.67z M1382.07,1117.87c-18.94,2.54-32.34,20.12-29.79,39.04l4.5,33.41   c-21.21,10.74-39.95,25.34-55.37,42.78l-31.22-12.83c-17.67-7.26-38.06,1.26-45.32,18.92l-20.15,49.05   c-7.26,17.67,1.25,38.06,18.92,45.33l31.2,12.82c-0.62,11.52-0.2,23.26,1.4,35.12c1.59,11.85,4.29,23.29,7.92,34.24l-26.7,20.6   c-15.11,11.67-17.94,33.59-6.26,48.72l32.4,41.99c11.68,15.12,33.59,17.94,48.72,6.27l26.7-20.62   c19.5,12.75,41.42,21.88,64.72,26.63l4.49,33.4c2.54,18.93,20.11,32.34,39.05,29.79l52.56-7.07c18.93-2.55,32.34-20.12,29.79-39.05   l-4.5-33.4c21.22-10.74,39.95-25.34,55.37-42.78l31.22,12.82c17.66,7.26,38.06-1.25,45.32-18.92l20.15-49.05   c7.26-17.67-1.26-38.06-18.92-45.32l-31.2-12.82c0.62-11.52,0.2-23.26-1.4-35.12c-1.59-11.85-4.29-23.29-7.92-34.24l26.69-20.6   c15.12-11.67,17.95-33.59,6.27-48.72l-32.4-41.99c-11.68-15.12-33.59-17.95-48.72-6.27l-26.71,20.62   c-19.5-12.75-41.42-21.88-64.71-26.62l-4.49-33.4c-2.54-18.93-20.12-32.34-39.05-29.79L1382.07,1117.87L1382.07,1117.87z    M1440.95,1271.13c47.23,0,85.52,38.29,85.52,85.53c0,47.23-38.29,85.52-85.52,85.52s-85.52-38.29-85.52-85.52   C1355.42,1309.42,1393.71,1271.13,1440.95,1271.13L1440.95,1271.13z M805.12,803.7c-80,0-152.44,32.44-204.88,84.87   c-52.44,52.43-84.87,124.87-84.87,204.89c0,80,32.43,152.44,84.87,204.88c52.44,52.44,124.88,84.87,204.88,84.87   c80.01,0,152.45-32.43,204.89-84.87c52.44-52.44,84.87-124.88,84.87-204.88c0-80.01-32.43-152.45-84.87-204.89   C957.57,836.13,885.13,803.7,805.12,803.7L805.12,803.7z M954.04,944.54c-38.1-38.11-90.76-61.68-148.92-61.68   s-110.81,23.58-148.91,61.68c-38.1,38.1-61.68,90.75-61.68,148.92c0,58.16,23.57,110.81,61.68,148.91   c38.1,38.11,90.75,61.68,148.91,61.68s110.82-23.57,148.92-61.68c38.11-38.11,61.67-90.75,61.67-148.91   C1015.71,1035.29,992.14,982.64,954.04,944.54z" clip-rule="evenodd" class="colord1c6e2 svgShape"/><ellipse cx="1065.3" cy="1703.95" fill="#d1c6e2" fill-rule="evenodd" clip-rule="evenodd" rx="569.13" ry="74.71" class="colord1c6e2 svgShape"/><path fill="#071023" fill-rule="evenodd" d="M1323.9,1683.35c-56.42-0.91-98.59-1.58-118.08-7.74c-21.02-6.64-16.67-19.46-4.6-39.97   c53.19,24.46,39.01-5.03,63.89-1.28c17.47,14.07,43.37,23.5,77.64,28.29C1357.25,1673.35,1351.36,1682.88,1323.9,1683.35z" clip-rule="evenodd" class="color071023 svgShape"/><path fill="#ccced0" fill-rule="evenodd" d="M1251.43,823.62H902.79c-6.87,0-13.97,5.62-15.77,12.49L825,1072.32c-1.81,6.87,2.33,12.49,9.21,12.49h348.63   c6.87,0,13.97-5.62,15.77-12.49l62.02-236.21C1262.44,829.24,1258.3,823.62,1251.43,823.62z" clip-rule="evenodd" class="colorccced0 svgShape"/><path fill="#f59b1d" fill-rule="evenodd" d="M879.57,830.44l-42.11,160.36c-50.58-24.68-111.49-64.28-175.39-115.08c-1.72-22.86-3.84-41.1-6.39-54.7   c5.13-10.17,10.75-21.03,16.86-32.6c-58.97-0.38-94.93-13.05-107.88-38.04c15.77-46.16,37.83-93.28,66.15-141.39   c19.82-29.3,58.61-46.52,116.4-51.67c6.76,77.49,125.62,73.52,97.66,6.81c43.13,11.57,79.65,32.95,109.59,64.16   c25.77,63.46,41.48,107.75,47.13,132.88c-27.97,19.58-54.46,32.27-79.48,38.04c-1.14,5.49-2.04,11.73-2.7,18.73h-24.06   C888.47,817.94,881.37,823.56,879.57,830.44z" clip-rule="evenodd" class="colorf59b1d svgShape"/><path fill="#85868b" fill-rule="evenodd" d="M837.45,990.79l42.11-160.35c1.81-6.87,8.9-12.49,15.77-12.49h24.07h324.57c6.87,0,19.11,8.87,17.07,15.68   c0.33-5.68-3.6-10-9.62-10H902.79c-6.87,0-13.97,5.62-15.77,12.49L825,1072.32c-1.09,4.12-0.03,7.79,2.47,10.07   c-5.73-3.71-11.21-10.87-9.93-15.75L837.45,990.79z" clip-rule="evenodd" class="color85868b svgShape"/><path fill="#85868b" fill-rule="evenodd" d="M834.2,1084.81h348.63c1.28,0,2.57-0.2,3.83-0.55c-6.95,17.98-25.8,15.32-33.16,15.26H740.16   c-22.39-0.94-21.81-16.65-22.11-31.8h99.31c-0.33,4.8,4.77,11.23,10.1,14.67C829.15,1083.92,831.46,1084.81,834.2,1084.81z" clip-rule="evenodd" class="color85868b svgShape"/><path fill="#a9abb1" fill-rule="evenodd" d="M883,920.75c37.37,18.91,81.58,24.71,127.04,27.04c-0.51,1.63-0.9,3.31-1.17,5.01   c-3.03,19.16,10.47,35.47,29.98,35.47c18.38,0,35.05-14.55,37.91-32.65c0.32-1.96,0.44-3.9,0.42-5.79   c47.19,1.27,92.79,3.86,130.5,18.62l-25.93,98.75H844.54L883,920.75z" clip-rule="evenodd" class="colora9abb1 svgShape"/><path fill="#8d8f94" fill-rule="evenodd" d="M1046.4,931.59c-12.5,0-24.23,10.13-26.21,22.62c-1.97,12.49,6.56,22.63,19.04,22.63   c12.5,0,24.23-10.13,26.21-22.63C1067.42,941.72,1058.9,931.59,1046.4,931.59z" clip-rule="evenodd" class="color8d8f94 svgShape"/><path fill="#f59b1d" fill-rule="evenodd" d="M645.26,1027.27c6.96-21.2,11.96-43.2,15-66c46.95,18.18,100.64,35.71,168.52,62.53l-9.16,34.91   C717.04,1062.06,658.92,1051.59,645.26,1027.27z" clip-rule="evenodd" class="colorf59b1d svgShape"/><path fill="#fab688" fill-rule="evenodd" d="M828.79 1023.8c-67.88-26.82-121.57-44.35-168.52-62.53-41.37-16.02-77.52-32.54-113.52-56.36 1.5-45.98 8.34-90.46 27.36-142.02 17.47 16.71 50.28 25.23 98.42 25.53-13.94 26.35-25.28 49.06-34.07 68.14 72.42 60.04 142.22 106.54 198.99 134.23L828.79 1023.8zM992.56 767.29c5.23 18.27 10.07 35.15 14.53 50.66h-87.68c.65-6.99 1.55-13.24 2.69-18.73C944.42 794.06 967.9 783.42 992.56 767.29z" clip-rule="evenodd" class="colorfab688 svgShape"/><path fill="#071023" fill-rule="evenodd" d="M1205.43,1617.07c-51.86-188.06-70.4-320.17-55.64-396.33c-29.48,4.2-59.08,5.52-88.8,3.96   c4.52-20.34,9.07-40.74,13.69-61.39c-0.53-28.05-14.86-48.85-65.67-63.79h144.49c4.91,0.04,14.94,1.24,23.13-3.31   c46.56,13.3,69.29,35.26,77.06,62.08c5.68,73.78-9.65,157.81,3.41,459.35C1240.82,1619.32,1223.6,1619.14,1205.43,1617.07z" clip-rule="evenodd" class="color071023 svgShape"/><path fill="#1b2452" fill-rule="evenodd" d="M1151.26,1099.52h2.25c4.92,0.04,14.94,1.24,23.13-3.31c46.56,13.3,69.29,35.26,77.06,62.08   c5.68,73.78-9.65,157.81,3.41,459.35c-9.71,1.01-19.76,1.35-30.15,1.02c-26.79-104.82-90.52-361.94-18.73-472.74   C1191.39,1128.04,1172.4,1112.58,1151.26,1099.52z" clip-rule="evenodd" class="color1b2452 svgShape"/><path fill="#fab688" fill-rule="evenodd" d="M747.29,558.12c9.24-11.76,17.39-22.68,19.76-30.43c-1.86-5.31-3.81-12.01-5.85-20.12   c-34.61-23.51-39.34-40.89-14.19-52.17c5.07,2.84,11.36,11.59,18.88,26.26c6-0.24,10.55-3.31,13.64-9.21   c-7.15-24.74-11.79-44.84-13.95-60.29c17.05-25.34,56.92-28.96,109.73-22.12c2.45,14.05,4.45,28.94,6.03,44.66   c9.33,8.6,8.13,40.49-0.48,77.23c4.3,20.9-8.6,32.3-38.7,34.21c-0.43,7.42,2.48,16.87,2.7,17.98l0,0v0.02   c0.01,0.06,0.05,0.14,0.1,0.23C872.42,630.61,754.79,634.67,747.29,558.12z" clip-rule="evenodd" class="colorfab688 svgShape"/><path fill="#1b2452" fill-rule="evenodd" d="M875.31,390.05c-52.81-6.85-92.68-3.22-109.73,22.12c2.15,15.45,6.8,35.55,13.95,60.29   c-3.09,5.9-7.64,8.97-13.64,9.21c-7.52-14.66-13.81-23.42-18.88-26.26c-25.15,11.27-20.42,28.66,14.2,52.17   c2.03,8.1,3.98,14.81,5.84,20.11c-31.12-6.97-57.17-34.82-60.84-46.86c-36.32-71.58,4.19-101.81,25.86-112.83   c9.57-70.88,112.49-8.23,164.06-42.4C916.63,353.9,891.28,389.42,875.31,390.05z" clip-rule="evenodd" class="color1b2452 svgShape"/><path fill="#ed7d57" fill-rule="evenodd" d="M803.05,545.23c14.56,1.18,27.6,1.48,39.11,0.91c-0.31,5.1,0.98,11.17,1.89,14.83   C825.4,560.49,811.73,555.24,803.05,545.23z" clip-rule="evenodd" class="colored7d57 svgShape"/><path fill="#712c14" fill-rule="evenodd" d="M962.54,1211.36H647.99c-11.23,0-20.44,9.19-20.44,20.44l0,0c0,11.25,9.21,20.44,20.44,20.44h314.56   c11.24,0,20.44-9.19,20.44-20.44l0,0C982.98,1220.56,973.79,1211.36,962.54,1211.36z" clip-rule="evenodd" class="color712c14 svgShape"/><path fill="#a14527" fill-rule="evenodd" d="M666.76,1598.49c15.03-15.04,35.8-24.38,58.65-24.38h54.1h105.61c22.85,0,43.61,9.34,58.65,24.38   c15.03,15.04,24.38,35.8,24.38,58.65v16.74h6.4v20.73h-6.4h-34.34h-6.4v-20.73h6.4v-16.74c0-13.38-5.48-25.55-14.32-34.38   c-8.83-8.84-21-14.32-34.37-14.32H779.52h-54.1c-13.38,0-25.55,5.48-34.38,14.32c-8.83,8.83-14.32,21-14.32,34.38v16.74h6.4v20.73   h-6.4h-34.33h-6.4v-20.73h6.4v-16.74C642.38,1634.3,651.71,1613.53,666.76,1598.49z" clip-rule="evenodd" class="colora14527 svgShape"/><rect width="34.34" height="321.87" x="788.1" y="1252.24" fill="#a14527" fill-rule="evenodd" clip-rule="evenodd" class="colora14527 svgShape"/><path fill="#1b2452" fill-rule="evenodd" d="M695.25,1210.08c-60.83-21.84-69.11-82.43-42.34-173.97c21.98,17.99,77.55,25.52,166.72,22.61l-2.09,7.93   c-0.08,0.35-0.15,0.71-0.17,1.08h-99.31c0.3,15.14-0.29,30.85,22.11,31.8h268.86c50.81,14.93,65.15,35.74,65.67,63.79   c-32.18,143.76-60.81,275.59-99.78,457.75c-13.14,7.37-31.13,6.8-53.96-1.7c-18.28-176.66-13.27-305.12,15.04-385.4   C860.77,1234.24,780.52,1224,695.25,1210.08z" clip-rule="evenodd" class="color1b2452 svgShape"/><path fill="#071023" fill-rule="evenodd" d="M695.25,1210.08c-60.83-21.84-69.11-82.43-42.34-173.97c4.68,3.82,10.87,7.17,18.58,10.06   c-22.17,94.07,1.94,145.61,73.42,150.56c83.4,12.37,152.54,18.32,207.41,17.84c-24.19,156.83-28.34,293.59-12.44,410.24   c-5.89-1.12-12.2-2.95-18.94-5.45c-18.28-176.66-13.27-305.12,15.04-385.4C860.77,1234.24,780.52,1224,695.25,1210.08z" clip-rule="evenodd" class="color071023 svgShape"/><path fill="#fab688" fill-rule="evenodd" d="M1251.66,1618.12c1.51,5.67,3.97,11,7.38,15.99c-16.28,1.53-10.01,22.49-53.97,3.26   c1.88-5.54,2.92-12.21,3.16-20C1223.37,1618.94,1237.84,1619.19,1251.66,1618.12z" clip-rule="evenodd" class="colorfab688 svgShape"/><path fill="#071023" fill-rule="evenodd" d="M974.76,1716.36c-29.95-12.36-34.45-32.48-50.92-40.17c-16.58-7.74-18.5-21.54-2.27-36.53   c11.98,9.57,26.84,21.34,34.71,15.1c5.26-4.16,23.09-3.89,26.62,2.18c15.52,36.09,37.12,24.66,41.38,41.08   C1024.79,1719.9,993.61,1724.14,974.76,1716.36z" clip-rule="evenodd" class="color071023 svgShape"/><path fill="#fab688" fill-rule="evenodd" d="M969.65,1623.48c-0.25,9.6,1.06,19.22,3.94,28.89c-6.41-1.01-14.14-0.11-17.3,2.4   c-7.29,5.77-20.59-3.9-32.03-12.97c1.86-5.18,3.1-11.86,3.76-20.02C944.75,1627.02,958.62,1627.58,969.65,1623.48z" clip-rule="evenodd" class="colorfab688 svgShape"/><path fill="#ea7924" fill-rule="evenodd" d="M672.53,788.41c7.74-14,15.93-32.84,24.58-56.52c-4.65,27.57-4.4,47.43-11.9,70.09   c6.05,32.06,8.56,64.76,7.94,97.75c-10.26-7.7-20.64-15.71-31.09-24.02c-1.72-22.86-3.84-41.1-6.39-54.7   C660.8,810.84,666.42,799.98,672.53,788.41L672.53,788.41z M940.12,793.94c-6.09,2.14-12.1,3.9-18.02,5.27   c2.25-35.09,3.72-64.1,4.42-87.01C933.27,746.04,937.81,773.29,940.12,793.94L940.12,793.94z M645.26,1027.27   c6.96-21.2,11.96-43.2,15-65.99c8.7,3.37,17.62,6.71,26.83,10.1c-3.68,24.95-8.96,49.92-15.67,74.76   C658.29,1041.22,649.57,1034.93,645.26,1027.27z" clip-rule="evenodd" class="colorea7924 svgShape"/><path fill="#b6a9d2" fill-rule="evenodd" d="M1385.58,553.63c103.8-72.17,160.33-139.59,186.23-206.99l-106.95-94.62   c-63.74,33.9-123.78,98.23-182.76,210.05L1385.58,553.63z" clip-rule="evenodd" class="colorb6a9d2 svgShape"/><path fill="#8071b3" fill-rule="evenodd" d="M1385.58,553.63c103.8-72.17,160.33-139.59,186.23-206.99l-31.69-28.04c-45.7,70.2-116.3,145.3-198.63,196.01   L1385.58,553.63z" clip-rule="evenodd" class="color8071b3 svgShape"/><path fill="#9488c0" fill-rule="evenodd" d="M1571.81,346.64c16.08-41.86,20.33-83.71,16.74-126.68c-43.09,1.67-84.11,11-123.7,32.05L1571.81,346.64z" clip-rule="evenodd" class="color9488c0 svgShape"/><polygon fill="#3f4979" fill-rule="evenodd" points="1290.92 469.87 1376.75 545.81 1361.12 555.79 1282.93 486.6" clip-rule="evenodd" class="color3f4979 svgShape"/><path fill="#2c2066" fill-rule="evenodd" d="M1487.3,334.39c20.27,17.93,22.16,48.88,4.23,69.14c-17.94,20.26-48.89,22.15-69.15,4.23   c-20.26-17.93-22.16-48.88-4.22-69.15C1436.09,318.36,1467.04,316.47,1487.3,334.39z" clip-rule="evenodd" class="color2c2066 svgShape"/><path fill="#d7cce5" fill-rule="evenodd" d="M1476.9,346.15c13.77,12.18,15.05,33.22,2.87,46.99c-12.18,13.77-33.22,15.05-46.99,2.87   c-13.77-12.18-15.05-33.22-2.87-46.99C1442.1,335.25,1463.14,333.97,1476.9,346.15z" clip-rule="evenodd" class="colord7cce5 svgShape"/><path fill="#4a3f98" fill-rule="evenodd" d="M1446.29,262.83l117.05,103.55c3.12-6.59,5.94-13.17,8.48-19.75l-106.95-94.62   C1458.64,255.32,1452.44,258.92,1446.29,262.83z" clip-rule="evenodd" class="color4a3f98 svgShape"/><path fill="#6251a1" fill-rule="evenodd" d="M1571.81,346.64c16.08-41.86,20.33-83.71,16.74-126.68c-8.69,29.13-25.4,63.26-48.44,98.64L1571.81,346.64z" clip-rule="evenodd" class="color6251a1 svgShape"/><path fill="#2c2066" fill-rule="evenodd" d="M1571.81,346.64l-31.69-28.03c-3.68,5.66-7.53,11.35-11.53,17.06l34.74,30.73   C1566.46,359.8,1569.28,353.22,1571.81,346.64z" clip-rule="evenodd" class="color2c2066 svgShape"/><path fill="#1b2452" fill-rule="evenodd" d="M1376.75,545.81l-25.08-22.2c-5.36,3.25-10.78,6.39-16.25,9.42l25.71,22.75L1376.75,545.81z" clip-rule="evenodd" class="color1b2452 svgShape"/><path fill="#4a3f98" fill-rule="evenodd" d="M1283.28,635.56c35.11-22.29,57.69-51.85,67.77-88.69l-29.07-25.72l-29.06-25.72   c-35.34,14.48-61.94,40.5-79.79,78.06c8.97-2.86,16.74-4.79,23.31-5.78c-18.76,22.83-25.88,47.58-21.33,74.23   c27,1.26,50.69-8.81,71.08-30.21C1285.99,618.36,1285.02,626.31,1283.28,635.56z" clip-rule="evenodd" class="color4a3f98 svgShape"/><path fill="#8071b3" fill-rule="evenodd" d="M1230.01,560.18c1.71-0.34,3.43-0.64,5.14-0.9l21.98-3.33l-14.11,17.17c-14.75,17.95-22.36,37.82-20.42,60.34   c22.6-0.82,41.38-10.79,57.41-27.62l15.33-16.09l-0.63,22.22c-0.05,1.73-0.14,3.47-0.26,5.22c22.11-17.66,40.61-49.12,49.27-76.81   l-44.23-39.13C1273.05,513.2,1244.84,536.08,1230.01,560.18z" clip-rule="evenodd" class="color8071b3 svgShape"/><path fill="#b6a9d2" fill-rule="evenodd" d="M1228.05,627.28c18.9-2.13,34.45-11.41,47.78-25.41l25.67-26.97l-0.82,29.21   c15.46-14.68,31.94-46.77,38.98-67.32l-35.27-31.2c-19.53,9.49-49.48,29.65-62.18,46.78l28.89-4.38l-23.64,28.77   C1235.19,591.71,1227.87,608.28,1228.05,627.28z" clip-rule="evenodd" class="colorb6a9d2 svgShape"/><path fill="#4a3f98" fill-rule="evenodd" d="M1494.38,463l6.05,49.5c0.53,4.3-1.49,10.4-4.37,14.77l-69.91,105.93c-2.88,4.37-7.19,3.69-8.26-0.5   l-21.97-86.36C1435.69,517.94,1468.17,490.26,1494.38,463L1494.38,463z M1358.79,343.04l-49.86,0.03c-4.33,0-10.15,2.74-14.13,6.13   l-96.63,82.29c-3.98,3.39-2.79,7.59,1.5,8.13l88.39,11.29C1311.41,407.98,1334.93,372.37,1358.79,343.04z" clip-rule="evenodd" class="color4a3f98 svgShape"/><path fill="#2b2870" fill-rule="evenodd" d="M1404.11,578.54c30.51-19.96,61.86-48.12,94.05-84.49l-3.79-31.04c-26.2,27.26-58.69,54.94-98.46,83.33   L1404.11,578.54z" clip-rule="evenodd" class="color2b2870 svgShape"/></svg>