<svg xmlns="http://www.w3.org/2000/svg" enable-background="new 0 0 2000 2000" viewBox="21.891 265.55 1956.218 1498.651"><g opacity=".3" fill="#000000" class="color000 svgShape"><path fill="#abe9ff" d="M119.71 783.08L119.71 783.08c0-103.93 90.36-188.18 201.83-188.18h42.1c-19.69-15.89-32.17-39.35-32.17-65.54v0c0-47.87 41.62-86.68 92.96-86.68h140.12c-14.17-11.37-23.18-28.18-23.18-46.99 0-34.25 29.78-62.02 66.52-62.02h351.84c36.74 0 66.52 27.77 66.52 62.02s-29.78 62.02-66.52 62.02H828c-24.53 15.6-40.64 41.87-40.64 71.64v0c0 26.19 12.48 49.65 32.17 65.54h216.66c111.47 0 201.83 84.25 201.83 188.18l0 0c0 103.93-90.36 188.18-201.83 188.18h287.03c51.34 0 92.96 38.81 92.96 86.68 0 47.87-41.62 86.68-92.96 86.68h116.95c127.78 0 233.85 86.37 254.9 199.9h40.95c79.67 0 144.26 60.22 144.26 134.5v13.62c0 74.28-64.59 134.5-144.26 134.5h-295.85H471.93h-93.45c-142.91 0-258.76-108.02-258.76-241.27v0c0-133.25 115.85-241.26 258.76-241.26h453.01c-51.34 0-92.96-38.81-92.96-86.68 0-47.87 41.62-86.68 92.96-86.68H321.54C210.07 971.26 119.71 887.01 119.71 783.08zM1148.26 457.72c-33.37 0-60.43-27.77-60.43-62.02s27.06-62.02 60.43-62.02c33.37 0 60.43 27.77 60.43 62.02S1181.63 457.72 1148.26 457.72z" class="colorabe9ff svgShape"/></g><ellipse cx="1000" cy="1629.04" fill="#a4e1f4" rx="889.19" ry="67.04" class="colora4e1f4 svgShape"/><path fill="#a9ceea" d="M1664.69,816.63c0.19-8.74-1.15-17.58-4.11-26.1l19.09-16.92l-12.51-20.16l-23.52,9.54      c-6.32-6.55-13.68-11.76-21.64-15.54l1.53-25.35l-23.09-5.41l-9.94,23.51c-8.73-0.08-17.54,1.36-26.02,4.43l-17.05-19.25      l-20.15,12.51l9.78,24.11c-6.25,6.21-11.23,13.38-14.87,21.12l-26.24-1.58l-5.41,23.1L1515,815      c-0.01,8.36,1.37,16.78,4.24,24.91l-20.03,17.76l12.51,20.16l24.92-10.11c6,6.08,12.89,10.97,20.34,14.6l-1.62,26.86l23.09,5.41      l10.42-24.66c8.36,0.12,16.81-1.16,24.97-3.93l17.63,19.89l20.15-12.51l-9.88-24.35c6.37-6.11,11.48-13.2,15.25-20.87      l25.96,1.57l5.41-23.1L1664.69,816.63z M1609.61,846.92c-17.58,10.91-40.68,5.5-51.59-12.09c-10.91-17.59-5.5-40.7,12.08-51.61      c17.58-10.91,40.68-5.5,51.59,12.09C1632.6,812.9,1627.19,836.01,1609.61,846.92z" class="colora9ceea svgShape"/><path fill="#b8daf7" d="M1655.68,821.3c0.19-8.74-1.15-17.58-4.11-26.1l19.09-16.92l-12.51-20.16l-23.52,9.54      c-6.32-6.55-13.68-11.76-21.64-15.54l1.53-25.35l-23.09-5.41l-9.94,23.52c-8.73-0.08-17.54,1.36-26.02,4.43l-17.05-19.25      l-20.15,12.51l9.78,24.11c-6.25,6.21-11.23,13.38-14.87,21.12l-26.24-1.58l-5.41,23.1l24.5,10.36      c-0.01,8.36,1.37,16.78,4.24,24.91l-20.04,17.76l12.51,20.16l24.92-10.11c5.99,6.08,12.89,10.97,20.34,14.6l-1.62,26.86      l23.09,5.41l10.42-24.66c8.37,0.12,16.81-1.16,24.97-3.93l17.63,19.89l20.15-12.51l-9.88-24.35      c6.37-6.11,11.48-13.2,15.25-20.87l25.96,1.57l5.41-23.1L1655.68,821.3z M1600.6,851.59c-17.58,10.91-40.68,5.5-51.59-12.09      c-10.91-17.59-5.5-40.7,12.08-51.61c17.58-10.91,40.68-5.5,51.59,12.09C1623.59,817.58,1618.18,840.68,1600.6,851.59z" class="colorb8daf7 svgShape"/><polygon fill="#a9ceea" points="1486.91 786.21 1494.71 786.68 1495.91 781.54" class="colora9ceea svgShape"/><polygon fill="#a9ceea" points="1591.41 721.36 1600.42 716.68 1597.81 722.86" class="colora9ceea svgShape"/><polygon fill="#a9ceea" points="1538.4 730.05 1547.4 725.38 1538.92 730.64" class="colora9ceea svgShape"/><polygon fill="#a9ceea" points="1569.44 919.27 1578.44 914.6 1572.05 913.1" class="colora9ceea svgShape"/><polygon fill="#a9ceea" points="1673.94 854.42 1682.95 849.74 1675.15 849.27" class="colora9ceea svgShape"/><polygon fill="#a9ceea" points="1622.45 910.58 1631.46 905.9 1630.94 905.31" class="colora9ceea svgShape"/><path fill="#fad362" d="M1420.15,909.45L1420.15,909.45l-154.17,137.98c-1.14,1.02-0.6,3.3,0.8,3.31l302.95,4     c1.39,0.02,2-2.24,0.88-3.29L1420.15,909.45z" class="colorfad362 svgShape"/><path fill="#da8642" d="M1563.3,1221l-294.2-1.74c-4.21-0.03-7.6-3.46-7.57-7.67l0.93-156.71c0.03-4.21,3.46-7.6,7.67-7.58     l294.2,1.74c4.21,0.02,7.6,3.46,7.58,7.66l-0.93,156.71C1570.94,1217.64,1567.51,1221.03,1563.3,1221z" class="colorda8642 svgShape"/><linearGradient id="a" x1="1412.379" x2="1412.379" y1="941.469" y2="1190.826" gradientUnits="userSpaceOnUse"><stop offset="0" stop-color="#fdfdfd" class="stopColorfdfdfd svgShape"/><stop offset=".479" stop-color="#fbfdfd" class="stopColorfbfdfd svgShape"/><stop offset=".652" stop-color="#f4fbfd" class="stopColorf4fbfd svgShape"/><stop offset=".775" stop-color="#e9f8fe" class="stopColore9f8fe svgShape"/><stop offset=".874" stop-color="#d8f4fe" class="stopColord8f4fe svgShape"/><stop offset=".958" stop-color="#c2efff" class="stopColorc2efff svgShape"/><stop offset="1" stop-color="#b4ecff" class="stopColorb4ecff svgShape"/></linearGradient><path fill="url(#a)" d="M1509.6,1190.83h-194.45c-0.07,0-0.12-0.06-0.12-0.12V941.59c0-0.07,0.06-0.12,0.12-0.12h194.45       c0.07,0,0.12,0.06,0.12,0.12v249.11C1509.73,1190.77,1509.67,1190.83,1509.6,1190.83z"/><path fill="#4fb7e0" d="M1390.87 1158.84h99.21c2.26 0 4.09-1.93 4.09-4.32l0 0c0-2.38-1.83-4.31-4.09-4.31h-99.21c-2.26 0-4.09 1.93-4.09 4.31l0 0C1386.79 1156.91 1388.62 1158.84 1390.87 1158.84zM1444.89 1141.58h45.19c2.26 0 4.09-1.93 4.09-4.31l0 0c0-2.38-1.83-4.32-4.09-4.32h-45.19c-2.26 0-4.09 1.93-4.09 4.32l0 0C1440.8 1139.65 1442.63 1141.58 1444.89 1141.58zM1493.7 1058.4h-132.08c-.26 0-.46-.21-.46-.47v-5.38c0-.26.21-.47.47-.47h132.08c.26 0 .47.21.47.47v5.38C1494.17 1058.2 1493.96 1058.4 1493.7 1058.4zM1348.84 1063.93h-15.72c-.2 0-.36-.16-.36-.36v-16.63c0-.2.16-.36.36-.36h15.72c.2 0 .36.16.36.36v16.63C1349.2 1063.76 1349.04 1063.93 1348.84 1063.93zM1493.7 1083.64h-132.08c-.26 0-.46-.21-.46-.46v-5.38c0-.26.21-.46.47-.46h132.08c.26 0 .47.21.47.46v5.38C1494.17 1083.43 1493.96 1083.64 1493.7 1083.64zM1348.84 1089.16h-15.72c-.2 0-.36-.16-.36-.36v-16.63c0-.2.16-.36.36-.36h15.72c.2 0 .36.16.36.36v16.63C1349.2 1089 1349.04 1089.16 1348.84 1089.16zM1493.7 1108.88h-132.08c-.26 0-.46-.21-.46-.46v-5.38c0-.26.21-.46.46-.46h132.08c.26 0 .47.21.47.46v5.38C1494.17 1108.67 1493.96 1108.88 1493.7 1108.88zM1348.84 1114.4h-15.72c-.2 0-.36-.16-.36-.36v-16.63c0-.2.16-.36.36-.36h15.72c.2 0 .36.16.36.36v16.63C1349.2 1114.24 1349.04 1114.4 1348.84 1114.4zM1492.44 1028.83h-162.44c-.13 0-.23-.1-.23-.23v-2.69c0-.13.1-.23.23-.23h162.44c.13 0 .23.1.23.23v2.69C1492.68 1028.72 1492.57 1028.83 1492.44 1028.83z" class="color4fb7e0 svgShape"/><g fill="#000000" class="color000 svgShape"><path fill="#4fb7e0" d="M1424.49,1007.35c-4.52,2.18-8.72,2.96-14.09,2.96c-12.85,0-23.98-9.26-23.98-24.45       c0-15.88,11.37-29.74,28.8-29.74c13.7,0,23.12,9.5,23.12,22.5c0,11.52-6.47,18.53-14.33,18.53c-3.42,0-6.15-1.95-6.31-6.38       h-0.23c-2.57,4.28-6.07,6.38-10.43,6.38c-4.83,0-8.64-3.74-8.64-9.96c0-9.57,7.32-18.29,18.37-18.29       c3.42,0,6.85,0.78,8.87,1.79l-2.49,14.25c-0.93,5.22-0.23,7.63,2.1,7.63c3.66,0.16,7.94-4.59,7.94-13.55       c0-10.74-6.62-18.6-18.68-18.6c-12.3,0-22.81,9.57-22.81,24.91c0,13,8.41,20.63,19.93,20.63c4.21,0,8.41-0.86,11.52-2.57       L1424.49,1007.35z M1418.8,974.57c-0.78-0.23-1.79-0.47-3.11-0.47c-5.91,0-10.59,5.76-10.59,12.38c0,3.19,1.48,5.37,4.35,5.37       c3.66,0,7.16-4.67,7.94-9.26L1418.8,974.57z" class="color4fb7e0 svgShape"/></g><polygon fill="#da8642" points="1304.65 1083.71 1304.65 1192.26 1532.83 1192.26 1532.83 1082.33 1418.27 1173.59" class="colorda8642 svgShape"/><polygon fill="#da8642" points="1366.87 1131.38 1375.27 1137.89 1417.33 1169.45 1461.25 1138.4 1466.42 1131.97 1499 1157.26 1423.1 1199.46 1348.62 1145.2" class="colorda8642 svgShape"/><path fill="#fad362" d="M1366.87 1131.38l-103.77-79.5c-.4.92-.64 1.94-.64 3.01l-.92 156.28L1366.87 1131.38zM1570.97 1213.13l.93-156.41c0-1.11-.24-2.15-.65-3.11l-104.82 78.35L1570.97 1213.13zM1563.3 1221c1.97.01 3.76-.75 5.12-1.97l-107.17-80.64-43.92 31.05-42.05-31.56-105.71 81.38L1563.3 1221z" class="colorfad362 svgShape"/><g fill="#000000" class="color000 svgShape"><polygon fill="#466588" points="559.04 1524.34 551.16 1618.88 557.24 1618.88 565.12 1524.34" class="color466588 svgShape"/><polygon fill="#96c6fe" points="702.36 1618.88 557.24 1618.88 565.12 1524.34 710.24 1524.34" class="color96c6fe svgShape"/><path fill="#70afed" d="M737.03,1634.36H546.06c-2.07,0-3.75-1.68-3.75-3.75v-7.98c0-2.07,1.68-3.75,3.75-3.75h190.97       c2.07,0,3.75,1.68,3.75,3.75v7.98C740.78,1632.68,739.1,1634.36,737.03,1634.36z" class="color70afed svgShape"/><polygon fill="#b7d8f9" points="558.18 1607.66 705.64 1579.43 709.6 1531.94 562.54 1555.24" class="colorb7d8f9 svgShape"/><polygon fill="#5fa5dd" points="948.35 961.01 200.11 961.01 340.83 1524.34 1073.72 1524.34 1089.06 1512.18" class="color5fa5dd svgShape"/><polygon fill="#96c6fe" points="949.75 961.01 208.96 961.01 348.27 1512.18 1089.06 1512.18" class="color96c6fe svgShape"/><polygon fill="#29478c" points="923.21 983.68 241.02 983.68 344.95 1385.03 1027.14 1385.03" class="color29478c svgShape"/><polygon fill="#1d3b77" points="923.21 983.68 241.02 983.68 249.61 1016.85 931.8 1016.85" class="color1d3b77 svgShape"/><polygon fill="#b7d8f9" points="397.52 1512.18 1089.06 1512.18 1060.83 1400.51 603.68 1400.51" class="colorb7d8f9 svgShape"/><path fill="#f9ece4" d="M275.65 1000.66c0 2.97-2.41 5.38-5.37 5.38-2.97 0-5.38-2.41-5.38-5.38 0-2.97 2.41-5.38 5.38-5.38C273.24 995.29 275.65 997.7 275.65 1000.66zM295.14 1000.26c0 2.97-2.41 5.38-5.37 5.38s-5.37-2.41-5.37-5.38c0-2.97 2.41-5.37 5.37-5.37S295.14 997.3 295.14 1000.26zM314.63 999.87c0 2.97-2.41 5.37-5.38 5.37-2.97 0-5.37-2.41-5.37-5.37 0-2.97 2.41-5.38 5.37-5.38C312.22 994.49 314.63 996.9 314.63 999.87z" class="colorf9ece4 svgShape"/><g opacity=".67" fill="#000000" class="color000 svgShape"><path fill="#cae2f9" d="M736.08 1053.36h90.4c1.38 0 2.49-1.12 2.49-2.49v-7.05c0-1.38-1.12-2.49-2.49-2.49h-90.4c-1.38 0-2.49 1.12-2.49 2.49v7.05C733.58 1052.24 734.7 1053.36 736.08 1053.36zM771.18 1103.36h74.94c1.38 0 2.49-1.12 2.49-2.49v-7.05c0-1.38-1.12-2.49-2.49-2.49h-74.94c-1.38 0-2.49 1.12-2.49 2.49v7.05C768.68 1102.24 769.8 1103.36 771.18 1103.36zM726.18 1128.36h83.56c1.38 0 2.49-1.12 2.49-2.49v-7.05c0-1.38-1.12-2.49-2.49-2.49h-83.56c-1.38 0-2.49 1.12-2.49 2.49v7.05C723.69 1127.25 724.8 1128.36 726.18 1128.36zM763.85 1178.37h83.56c1.38 0 2.49-1.12 2.49-2.49v-7.05c0-1.38-1.12-2.49-2.49-2.49h-83.56c-1.38 0-2.49 1.12-2.49 2.49v7.05C761.36 1177.25 762.48 1178.37 763.85 1178.37zM784.94 1228.37h98.69c1.38 0 2.49-1.12 2.49-2.49v-7.05c0-1.38-1.12-2.49-2.49-2.49h-98.69c-1.38 0-2.49 1.12-2.49 2.49v7.05C782.45 1227.25 783.57 1228.37 784.94 1228.37zM666.13 1228.37h98.69c1.38 0 2.49-1.12 2.49-2.49v-7.05c0-1.38-1.12-2.49-2.49-2.49h-98.69c-1.38 0-2.49 1.12-2.49 2.49v7.05C663.64 1227.25 664.75 1228.37 666.13 1228.37zM521.72 1228.37h124.29c1.38 0 2.49-1.12 2.49-2.49v-7.05c0-1.38-1.12-2.49-2.49-2.49H521.72c-1.38 0-2.49 1.12-2.49 2.49v7.05C519.23 1227.25 520.34 1228.37 521.72 1228.37zM701.63 1153.36h108.83c1.38 0 2.49-1.12 2.49-2.49v-7.05c0-1.38-1.12-2.49-2.49-2.49H701.63c-1.38 0-2.49 1.12-2.49 2.49v7.05C699.14 1152.25 700.25 1153.36 701.63 1153.36zM400.01 1153.36h233.68c1.38 0 2.49-1.12 2.49-2.49v-7.05c0-1.38-1.12-2.49-2.49-2.49H400.01c-1.38 0-2.49 1.12-2.49 2.49v7.05C397.52 1152.25 398.63 1153.36 400.01 1153.36zM490.49 1128.36h83.56c1.38 0 2.49-1.12 2.49-2.49v-7.05c0-1.38-1.12-2.49-2.49-2.49h-83.56c-1.38 0-2.49 1.12-2.49 2.49v7.05C487.99 1127.25 489.11 1128.36 490.49 1128.36zM585.8 1128.36h121.6c1.38 0 2.49-1.12 2.49-2.49v-7.05c0-1.38-1.12-2.49-2.49-2.49H585.8c-1.38 0-2.49 1.12-2.49 2.49v7.05C583.3 1127.25 584.42 1128.36 585.8 1128.36zM562.53 1103.36h74.94c1.38 0 2.49-1.12 2.49-2.49v-7.05c0-1.38-1.12-2.49-2.49-2.49h-74.94c-1.38 0-2.49 1.12-2.49 2.49v7.05C560.04 1102.24 561.15 1103.36 562.53 1103.36zM663.23 1103.36h85.81c1.38 0 2.49-1.12 2.49-2.49v-7.05c0-1.38-1.12-2.49-2.49-2.49h-85.81c-1.38 0-2.49 1.12-2.49 2.49v7.05C660.74 1102.24 661.85 1103.36 663.23 1103.36zM643.58 1078.36h143.29c1.38 0 2.49-1.12 2.49-2.49v-7.05c0-1.38-1.12-2.49-2.49-2.49H643.58c-1.38 0-2.49 1.12-2.49 2.49v7.05C641.09 1077.24 642.21 1078.36 643.58 1078.36zM583.21 1078.36h37.03c1.38 0 2.49-1.12 2.49-2.49v-7.05c0-1.38-1.12-2.49-2.49-2.49h-37.03c-1.38 0-2.49 1.12-2.49 2.49v7.05C580.72 1077.24 581.83 1078.36 583.21 1078.36zM830.34 1203.37h52.97c1.38 0 2.49-1.12 2.49-2.49v-7.05c0-1.38-1.12-2.49-2.49-2.49h-52.97c-1.38 0-2.49 1.12-2.49 2.49v7.05C827.85 1202.25 828.97 1203.37 830.34 1203.37zM784.94 1250.13h62.47c1.38 0 2.49-1.12 2.49-2.49v-7.05c0-1.38-1.12-2.49-2.49-2.49h-62.47c-1.38 0-2.49 1.12-2.49 2.49v7.05C782.45 1249.01 783.57 1250.13 784.94 1250.13zM852.79 1275.13h59.09c1.38 0 2.49-1.12 2.49-2.49v-7.05c0-1.38-1.12-2.49-2.49-2.49h-59.09c-1.38 0-2.49 1.12-2.49 2.49v7.05C850.3 1274.02 851.41 1275.13 852.79 1275.13zM855.53 1300.13h59.09c1.38 0 2.49-1.12 2.49-2.49v-7.05c0-1.38-1.12-2.49-2.49-2.49h-59.09c-1.38 0-2.49 1.12-2.49 2.49v7.05C853.03 1299.02 854.15 1300.13 855.53 1300.13zM845.53 1324.67h86.62c1.38 0 2.49-1.12 2.49-2.49v-7.05c0-1.38-1.12-2.49-2.49-2.49h-86.62c-1.38 0-2.49 1.12-2.49 2.49v7.05C843.03 1323.56 844.15 1324.67 845.53 1324.67zM699.67 1349.21h232.48c1.38 0 2.49-1.12 2.49-2.49v-7.05c0-1.38-1.12-2.49-2.49-2.49H699.67c-1.38 0-2.49 1.12-2.49 2.49v7.05C697.17 1348.1 698.29 1349.21 699.67 1349.21zM821.7 1324.67H707.88c-1.38 0-2.49-1.12-2.49-2.49v-7.05c0-1.38 1.12-2.49 2.49-2.49H821.7c1.38 0 2.49 1.12 2.49 2.49v7.05C824.2 1323.56 823.08 1324.67 821.7 1324.67zM645.86 1349.21H484.74c-1.38 0-2.49-1.12-2.49-2.49v-7.05c0-1.38 1.12-2.49 2.49-2.49h161.12c1.38 0 2.49 1.12 2.49 2.49v7.05C648.35 1348.1 647.24 1349.21 645.86 1349.21zM687.92 1324.67h-63.11c-1.38 0-2.49-1.12-2.49-2.49v-7.05c0-1.38 1.12-2.49 2.49-2.49h63.11c1.38 0 2.49 1.12 2.49 2.49v7.05C690.41 1323.56 689.3 1324.67 687.92 1324.67zM729.63 1300.13h101.75c1.38 0 2.49-1.12 2.49-2.49v-7.05c0-1.38-1.12-2.49-2.49-2.49H729.63c-1.38 0-2.49 1.12-2.49 2.49v7.05C727.14 1299.02 728.25 1300.13 729.63 1300.13zM636.42 1300.13h75.19c1.38 0 2.49-1.12 2.49-2.49v-7.05c0-1.38-1.12-2.49-2.49-2.49h-75.19c-1.38 0-2.49 1.12-2.49 2.49v7.05C633.92 1299.02 635.04 1300.13 636.42 1300.13zM575.43 1300.13h32.88c1.3 0 2.36-1.06 2.36-2.36v-7.32c0-1.3-1.06-2.36-2.36-2.36h-32.88c-1.3 0-2.36 1.06-2.36 2.36v7.32C573.07 1299.08 574.12 1300.13 575.43 1300.13zM403.79 1250.13h357.24c3.47 0 6.28-2.69 6.28-6.02l0 0c0-3.32-2.81-6.02-6.28-6.02H403.79c-3.47 0-6.28 2.69-6.28 6.02l0 0C397.52 1247.44 400.33 1250.13 403.79 1250.13zM510.61 1103.36h32.68c1.38 0 2.49-1.12 2.49-2.49v-7.05c0-1.38-1.12-2.49-2.49-2.49h-32.68c-1.38 0-2.49 1.12-2.49 2.49v7.05C508.12 1102.24 509.23 1103.36 510.61 1103.36zM651.16 1153.36h32.68c1.38 0 2.49-1.12 2.49-2.49v-7.05c0-1.38-1.12-2.49-2.49-2.49h-32.68c-1.38 0-2.49 1.12-2.49 2.49v7.05C648.66 1152.25 649.78 1153.36 651.16 1153.36zM438 1128.36h30.59c1.38 0 2.49-1.12 2.49-2.49v-7.05c0-1.38-1.12-2.49-2.49-2.49H438c-1.38 0-2.49 1.12-2.49 2.49v7.05C435.51 1127.25 436.63 1128.36 438 1128.36zM493.86 1053.36H706.7c1.38 0 2.49-1.12 2.49-2.49v-7.05c0-1.38-1.12-2.49-2.49-2.49H493.86c-1.38 0-2.49 1.12-2.49 2.49v7.05C491.37 1052.24 492.48 1053.36 493.86 1053.36z" class="colorcae2f9 svgShape"/></g></g><g fill="#000000" class="color000 svgShape"><path fill="#f4c70b" d="M999.44,902.83c-2.05,0.06-4.12-0.61-5.72-2.02c-3.16-2.8-3.28-7.45-0.27-10.39       c4.45-4.35,6.33-8.63,5.91-13.47c-1.54-17.78-32.56-39.69-57.49-57.29c-10.05-7.1-19.55-13.8-26.73-19.9       c-15.95-13.55-26.07-29.88-29.26-47.22c-2.85-15.51-0.03-31.69,7.95-45.57c8.89-15.47,25.25-25.2,41.72-24.77       c13.91,0.36,25.57,7.93,32,20.78c10.08,20.14-1.65,35.41-9.25,40.67c-3.5,2.42-8.45,1.75-11.06-1.51       c-2.59-3.24-1.89-7.81,1.57-10.24c1.23-0.9,11.36-8.83,4.41-22.73c-3.92-7.83-10.18-12.08-18.1-12.29       c-10.35-0.26-21.33,6.57-27.33,17c-11.15,19.39-12.27,49.28,18.03,75.01c6.65,5.65,15.87,12.16,25.63,19.05       c28.87,20.38,61.59,43.49,63.69,67.82c0.78,9.06-2.66,17.4-10.22,24.78C1003.41,902.01,1001.44,902.77,999.44,902.83z" class="colorf4c70b svgShape"/><path fill="#e9a02e" d="M1267.89,901.93c2.05,0.1,4.13-0.53,5.76-1.92c3.22-2.74,3.44-7.39,0.48-10.38       c-4.36-4.43-6.16-8.74-5.64-13.58c1.9-17.75,33.36-39.11,58.65-56.27c10.19-6.92,19.82-13.46,27.13-19.43       c16.22-13.27,26.67-29.41,30.21-46.7c3.17-15.45,0.67-31.68-7.02-45.7c-8.58-15.62-24.73-25.64-41.21-25.5       c-13.91,0.11-25.73,7.48-32.41,20.21c-10.48,19.96,0.93,35.44,8.43,40.83c3.45,2.48,8.42,1.89,11.09-1.32       c2.66-3.19,2.04-7.77-1.36-10.27c-1.21-0.92-11.18-9.03-3.95-22.8c4.08-7.76,10.42-11.9,18.35-11.97       c10.36-0.08,21.2,6.94,26.98,17.48c10.75,19.58,11.26,49.49-19.55,74.68c-6.76,5.53-16.11,11.88-26.01,18.59       c-29.28,19.87-62.46,42.4-65.06,66.69c-0.97,9.04,2.3,17.44,9.72,24.96C1263.94,901.04,1265.9,901.84,1267.89,901.93z" class="colore9a02e svgShape"/><path fill="#f4c70b" d="M1149.17,895.61l-8.2-0.04l-14.01-0.06l-8.2-0.04c0,0,1.24,101.88-50.37,195.38l57.56,0.26l14.01,0.06      l57.56,0.26C1146.89,997.48,1149.17,895.61,1149.17,895.61z" class="colorf4c70b svgShape"/><path fill="#dba807" d="M1301.45,683.67c-1.98,148.87-77.9,268.7-169.58,267.65c-91.68-1.05-164.39-122.59-162.42-271.46      L1301.45,683.67z" class="colordba807 svgShape"/><path fill="#f4c70b" d="M1286.3,683.49c-1.89,142.08-74.34,256.44-161.84,255.43c-87.49-1.01-156.89-117-155-259.07L1286.3,683.49      z" class="colorf4c70b svgShape"/><path fill="#dba807" d="M1216.15,1109.88l-166.48-0.74c-6.25-0.03-10.4-2.23-7.82-4.14l18.58-13.76c1.4-1.03,4.47-1.69,7.85-1.68      l129.8,0.58c3.4,0.01,6.48,0.71,7.86,1.76l18.1,13.92C1226.55,1107.77,1222.38,1109.91,1216.15,1109.88z" class="colordba807 svgShape"/><path fill="#f4c70b" d="M1223.71,1167.15h-182.85c-1.41,0-2.55-1.14-2.55-2.55v-57.5c0-1.41,1.14-2.55,2.55-2.55h182.85      c1.41,0,2.55,1.14,2.55,2.55v57.5C1226.26,1166.01,1225.12,1167.15,1223.71,1167.15z" class="colorf4c70b svgShape"/><path fill="#f9e17a" d="M1214.79,1158.74h-165.02c-1.47,0-2.67-1.19-2.67-2.67v-40.44c0-1.47,1.19-2.67,2.67-2.67h165.02      c1.47,0,2.67,1.19,2.67,2.67v40.44C1217.46,1157.55,1216.27,1158.74,1214.79,1158.74z" class="colorf9e17a svgShape"/><path fill="#dba807" d="M1237.51,1176.61h-209.75l5.94-7.98c1.62-2.17,4.28-3.47,7.12-3.47h183.62c2.84,0,5.5,1.3,7.12,3.47      L1237.51,1176.61z" class="colordba807 svgShape"/><polygon fill="#dba807" points="1134.51 823.4 1093.62 851.81 1109.55 806.2 1069.95 778.19 1119.02 778.19 1134.51 735.38 1148.86 776.99 1199.08 778.59 1160.77 805.4 1176.27 851.81" class="colordba807 svgShape"/><polygon fill="#f9e17a" points="1131.42 826.28 1090.53 854.69 1106.46 809.07 1066.86 781.06 1115.93 781.06 1131.42 738.25 1145.77 779.86 1195.99 781.46 1157.68 808.27 1173.18 854.69" class="colorf9e17a svgShape"/><path fill="#c96f03" d="M1299.46,719.64c0.15-1.6,0.3-3.19,0.44-4.8H970.43c0.11,1.6,0.19,3.21,0.31,4.8H1299.46z" class="colorc96f03 svgShape"/><path fill="#ffffff" d="M1020.84,755.52c0,9.54-4.41,17.26-9.86,17.26c-5.45,0-9.86-7.73-9.86-17.26s4.41-17.26,9.86-17.26      C1016.43,738.25,1020.84,745.98,1020.84,755.52z" opacity=".57" class="colorfff svgShape"/><path fill="#ffffff" d="M1283.02,700.73c0,0-3.65,9.64-5.21,10.4c-1.56,0.76-3.32,2.88-10.97,1.33c0,0,12.29,3.39,8.41,20.56     c0,0,2.36-16.5,17.12-13.54C1292.38,719.48,1278.87,716.37,1283.02,700.73z" class="colorfff svgShape"/></g><g fill="#000000" class="color000 svgShape"><path fill="#1160c5" d="M1615.15,1068.78l-35.91-79.68l-4.98,0.11l-34.27,82.8l3.31,483.56c0.05,6.87,6.25,12.18,13.85,11.85     l47.68-2.04c7.58-0.32,13.68-6.13,13.63-12.98L1615.15,1068.78z" class="color1160c5 svgShape"/><path fill="#1f8ce7" d="M1589.72,1068.78l-10.48-79.68l-1.45,0.11l-10,82.8l0.97,483.56c0.01,6.87,1.83,12.18,4.04,11.85     l13.92-2.04c2.21-0.32,3.99-6.13,3.98-12.98L1589.72,1068.78z" class="color1f8ce7 svgShape"/><path fill="#efd186" d="M1575.16,987.04l-35.16,84.96l75.16-3.22l-36.9-81.88C1577.69,985.65,1575.69,985.74,1575.16,987.04z" class="colorefd186 svgShape"/><polygon fill="#fce19d" points="1567.92 1070.8 1589.72 1069.87 1589.72 1068.78 1579.23 989.1 1577.78 989.2" class="colorfce19d svgShape"/><path d="M1585.47,1002.91l-7.25-16.1c-0.55-1.22-2.49-1.13-3.02,0.13l-6.02,14.55     C1572.42,1002.69,1578.54,1004.21,1585.47,1002.91z" fill="#000000" class="color000 svgShape"/></g><g fill="#000000" class="color000 svgShape"><rect width="77.84" height="374.37" x="1406.01" y="1259.99" fill="#becf21" transform="rotate(-180 1444.935 1447.172)" class="colorbecf21 svgShape"/><path fill="#e1e3e2" d="M1446.25,1508.63h0.38c12.09,0,21.88-9.8,21.88-21.88v-115.96c0-12.09-9.8-21.88-21.88-21.88h-0.38      c-12.09,0-21.88,9.8-21.88,21.88v115.96C1424.37,1498.84,1434.16,1508.63,1446.25,1508.63z" class="colore1e3e2 svgShape"/><rect width="77.84" height="12.33" x="1406.01" y="1609.7" fill="#e7e4f9" transform="rotate(-180 1444.935 1615.864)" class="colore7e4f9 svgShape"/><rect width="77.84" height="12.33" x="1406.01" y="1588.78" fill="#e7e4f9" transform="rotate(-180 1444.935 1594.94)" class="colore7e4f9 svgShape"/><rect width="19.62" height="374.37" x="1386.4" y="1259.99" fill="#888419" class="color888419 svgShape"/><path fill="#e05f25" d="M1468.51 1374.97v12.05h-44.14v-12.05c0-6.03 1.75-11.56 4.66-15.97h34.83C1466.76 1363.41 1468.51 1368.94 1468.51 1374.97zM1468.51 1476.13v6.44c0 2.63-.34 5.17-.95 7.57h-42.24c-.61-2.4-.95-4.93-.95-7.57v-6.44H1468.51z" class="colore05f25 svgShape"/><ellipse cx="1446.44" cy="1434.84" fill="#f1f6fa" rx="11.59" ry="13.68" class="colorf1f6fa svgShape"/><path fill="#809292" d="M1438.53,1434.84c0,5.16,3.54,9.34,7.91,9.34c4.37,0,7.91-4.18,7.91-9.34c0-5.16-3.54-9.34-7.91-9.34      C1442.07,1425.5,1438.53,1429.68,1438.53,1434.84z" class="color809292 svgShape"/><g fill="#000000" class="color000 svgShape"><rect width="77.84" height="374.37" x="1503.47" y="1259.99" fill="#2eb5a7" transform="rotate(-180 1542.396 1447.172)" class="color2eb5a7 svgShape"/><path fill="#e1e3e2" d="M1543.71,1508.63h0.38c12.09,0,21.88-9.8,21.88-21.88v-115.96c0-12.09-9.8-21.88-21.88-21.88h-0.38      c-12.09,0-21.88,9.8-21.88,21.88v115.96C1521.83,1498.84,1531.63,1508.63,1543.71,1508.63z" class="colore1e3e2 svgShape"/><rect width="77.84" height="12.33" x="1503.47" y="1609.7" fill="#e7e4f9" transform="rotate(-180 1542.396 1615.864)" class="colore7e4f9 svgShape"/><rect width="77.84" height="12.33" x="1503.47" y="1588.78" fill="#e7e4f9" transform="rotate(-180 1542.396 1594.94)" class="colore7e4f9 svgShape"/><rect width="19.62" height="374.37" x="1483.86" y="1259.99" fill="#1f8c77" class="color1f8c77 svgShape"/><path fill="#e05f25" d="M1565.97 1374.97v12.05h-44.14v-12.05c0-6.03 1.75-11.56 4.66-15.97h34.83C1564.22 1363.41 1565.97 1368.94 1565.97 1374.97zM1565.97 1476.13v6.44c0 2.63-.34 5.17-.95 7.57h-42.24c-.61-2.4-.95-4.93-.95-7.57v-6.44H1565.97z" class="colore05f25 svgShape"/><ellipse cx="1543.9" cy="1434.84" fill="#f1f6fa" rx="11.59" ry="13.68" class="colorf1f6fa svgShape"/><path fill="#809292" d="M1535.99,1434.84c0,5.16,3.54,9.34,7.91,9.34c4.37,0,7.91-4.18,7.91-9.34c0-5.16-3.54-9.34-7.91-9.34      C1539.53,1425.5,1535.99,1429.68,1535.99,1434.84z" class="color809292 svgShape"/></g><g fill="#000000" class="color000 svgShape"><rect width="77.84" height="374.37" x="1600.93" y="1259.99" fill="#3180b9" transform="rotate(-180 1639.856 1447.172)" class="color3180b9 svgShape"/><path fill="#e1e3e2" d="M1641.17,1508.63h0.38c12.09,0,21.88-9.8,21.88-21.88v-115.96c0-12.09-9.8-21.88-21.88-21.88h-0.38      c-12.09,0-21.88,9.8-21.88,21.88v115.96C1619.29,1498.84,1629.09,1508.63,1641.17,1508.63z" class="colore1e3e2 svgShape"/><rect width="77.84" height="12.33" x="1600.93" y="1609.7" fill="#e7e4f9" transform="rotate(-180 1639.856 1615.864)" class="colore7e4f9 svgShape"/><rect width="77.84" height="12.33" x="1600.93" y="1588.78" fill="#e7e4f9" transform="rotate(-180 1639.856 1594.94)" class="colore7e4f9 svgShape"/><rect width="19.62" height="374.37" x="1581.32" y="1259.99" fill="#0f6890" class="color0f6890 svgShape"/><path fill="#e05f25" d="M1663.43 1374.97v12.05h-44.14v-12.05c0-6.03 1.75-11.56 4.66-15.97h34.83C1661.68 1363.41 1663.43 1368.94 1663.43 1374.97zM1663.43 1476.13v6.44c0 2.63-.34 5.17-.95 7.57h-42.24c-.61-2.4-.95-4.93-.95-7.57v-6.44H1663.43z" class="colore05f25 svgShape"/><path fill="#f1f6fa" d="M1629.77,1434.84c0,7.56,5.19,13.68,11.59,13.68c6.4,0,11.59-6.13,11.59-13.68s-5.19-13.68-11.59-13.68      C1634.96,1421.16,1629.77,1427.28,1629.77,1434.84z" class="colorf1f6fa svgShape"/><path fill="#809292" d="M1633.45,1434.84c0,5.16,3.54,9.34,7.91,9.34c4.37,0,7.91-4.18,7.91-9.34c0-5.16-3.54-9.34-7.91-9.34      C1636.99,1425.5,1633.45,1429.68,1633.45,1434.84z" class="color809292 svgShape"/></g></g><g fill="#000000" class="color000 svgShape"><path fill="#f97923" d="M855.12,1570.75v-11.73h602.15c30.95,0,56.03,16.81,56.03,37.55v0.23c0,20.74-25.09,37.55-56.03,37.55      H855.12v-11.73C873.86,1596.16,855.12,1570.75,855.12,1570.75z" class="colorf97923 svgShape"/><path fill="#e86a13" d="M1325.55 1559.02h-43.52c17.95 7.05 30.22 21.2 30.22 37.54v.26c0 16.34-12.28 30.49-30.22 37.54h43.52c30.95 0 56.03-16.81 56.03-37.55v-.23C1381.58 1575.83 1356.49 1559.02 1325.55 1559.02zM1478.64 1596.82v-.26c0-16.34-12.28-30.49-30.22-37.54h-27.73c17.95 7.05 30.22 21.2 30.22 37.54v.26c0 16.34-12.28 30.49-30.22 37.54h27.73C1466.36 1627.3 1478.64 1613.16 1478.64 1596.82z" class="colore86a13 svgShape"/><path fill="#e46b17" d="M855.12,1559.02h295.28c24.74,0,44.8,13.44,44.8,30.03v15.29c0,16.58-20.06,30.03-44.8,30.03H855.12      v-11.73c18.74-26.47,0-51.88,0-51.88V1559.02z" class="colore46b17 svgShape"/><path fill="#edf0ef" d="M1147.25,1570.75c17.04,0,30.85,9.26,30.85,20.68v10.53c0,11.42-13.81,20.68-30.85,20.68H855.12      c16.39-25.94,0-51.88,0-51.88H1147.25z" class="coloredf0ef svgShape"/><path fill="#dee1de" d="M855.12,1570.75h292.13c17.04,0,30.85,9.26,30.85,20.68v5.26H862.4      C862.07,1581.81,855.12,1570.75,855.12,1570.75z" opacity=".83" class="colordee1de svgShape"/><path fill="#022fa0" d="M1137.78,1589.04c0,0-2.97,2.49-3.34,8.2c-0.37,5.72-4.45,12.43-4.45,12.43l-9.64-6.46l-10.39,6.46      c0,0,3.34-7.96,3.34-12.18c0-4.23,5.19-8.45,5.19-8.45H1137.78z" class="color022fa0 svgShape"/><g fill="#000000" class="color000 svgShape"><path fill="#e85569" d="M767.67,1375.87v-19.96h586.88c30.16,0,54.61,28.62,54.61,63.92v0.4c0,35.3-24.45,63.92-54.61,63.92      H767.67v-19.96C785.93,1419.12,767.67,1375.87,767.67,1375.87z" class="colore85569 svgShape"/><path fill="#c94f63" d="M1226.17,1355.91h-42.42c17.49,12.01,29.46,36.09,29.46,63.89v0.45c0,27.81-11.97,51.89-29.46,63.89h42.42      c30.16,0,54.61-28.62,54.61-63.92v-0.4C1280.78,1384.53,1256.33,1355.91,1226.17,1355.91z" opacity=".46" class="colorc94f63 svgShape"/><path fill="#bc3c5b" d="M767.67,1355.91h287.8c24.12,0,43.67,22.88,43.67,51.11v26.02c0,28.22-19.55,51.1-43.67,51.1h-287.8      v-19.96c18.26-45.05,0-88.3,0-88.3V1355.91z" class="colorbc3c5b svgShape"/><path fill="#edf0ef" d="M1052.4,1375.87c16.61,0,30.07,15.76,30.07,35.19v17.92c0,19.44-13.46,35.19-30.07,35.19H767.67      c15.98-44.15,0-88.3,0-88.3H1052.4z" class="coloredf0ef svgShape"/><path fill="#dee1de" d="M767.67,1375.87h284.72c16.61,0,30.07,15.76,30.07,35.19v8.96l-307.7,0      C774.45,1394.7,767.67,1375.87,767.67,1375.87z" opacity=".83" class="colordee1de svgShape"/></g><g fill="#000000" class="color000 svgShape"><path fill="#0071bc" d="M1536.47,1495.87v-11.73H979c-28.65,0-51.87,16.81-51.87,37.55v0.23c0,20.74,23.22,37.55,51.87,37.55      h557.47v-11.73C1519.12,1521.28,1536.47,1495.87,1536.47,1495.87z" class="color0071bc svgShape"/><path fill="#04659b" d="M1100.95,1484.14h40.29c-16.62,7.05-27.98,21.2-27.98,37.54v0.26c0,16.34,11.37,30.49,27.98,37.54h-40.29      c-28.65,0-51.87-16.81-51.87-37.55v-0.23C1049.08,1500.95,1072.3,1484.14,1100.95,1484.14z" class="color04659b svgShape"/><path fill="#026399" d="M1536.47,1484.14H1263.1c-22.91,0-41.48,13.44-41.48,30.03v15.29c0,16.58,18.57,30.03,41.48,30.03h273.37      v-11.73c-17.35-26.47,0-51.88,0-51.88V1484.14z" class="color026399 svgShape"/><path fill="#edf0ef" d="M1266.02,1495.87c-15.77,0-28.56,9.26-28.56,20.68v10.53c0,11.42,12.79,20.68,28.56,20.68h270.45      c-15.18-25.94,0-51.88,0-51.88H1266.02z" class="coloredf0ef svgShape"/><path fill="#dee1de" d="M1536.47,1495.87h-270.45c-15.77,0-28.56,9.26-28.56,20.68v5.26h292.28      C1530.04,1506.93,1536.47,1495.87,1536.47,1495.87z" opacity=".83" class="colordee1de svgShape"/><path fill="#a01e3a" d="M1274.78,1514.16c0,0,2.75,2.49,3.09,8.2c0.34,5.72,4.12,12.43,4.12,12.43l8.93-6.46l9.62,6.46      c0,0-3.09-7.96-3.09-12.18c0-4.23-4.81-8.45-4.81-8.45H1274.78z" class="colora01e3a svgShape"/></g><g fill="#000000" class="color000 svgShape"><path fill="#f5c256" d="M1442.08,1272.98v-15.29h-563.3c-28.95,0-52.42,21.92-52.42,48.96v0.3c0,27.04,23.47,48.96,52.42,48.96      h563.3v-15.29C1424.55,1306.11,1442.08,1272.98,1442.08,1272.98z" class="colorf5c256 svgShape"/><path fill="#ea9d03" d="M1002.01,1257.68h40.71c-16.79,9.2-28.27,27.64-28.27,48.94v0.34c0,21.3,11.48,39.75,28.27,48.94h-40.71      c-28.95,0-52.42-21.92-52.42-48.96v-0.3C949.59,1279.61,973.06,1257.68,1002.01,1257.68z" opacity=".72" class="colorea9d03 svgShape"/><path fill="#ea9d03" d="M1442.08,1257.69h-276.23c-23.15,0-41.91,17.53-41.91,39.15v19.93c0,21.62,18.76,39.15,41.91,39.15h276.23      v-15.29c-17.53-34.51,0-67.64,0-67.64V1257.69z" class="colorea9d03 svgShape"/><path fill="#edf0ef" d="M1168.8,1272.98c-15.94,0-28.86,12.07-28.86,26.96v13.72c0,14.89,12.92,26.96,28.86,26.96h273.28      c-15.34-33.82,0-67.64,0-67.64H1168.8z" class="coloredf0ef svgShape"/><path fill="#dee1de" d="M1442.08,1272.98H1168.8c-15.94,0-28.86,12.07-28.86,26.96v6.86l295.34,0      C1435.58,1287.4,1442.08,1272.98,1442.08,1272.98z" opacity=".83" class="colordee1de svgShape"/><path fill="#a01e3a" d="M1177.66,1296.83c0,0,2.78,3.24,3.12,10.7c0.35,7.46,4.16,16.21,4.16,16.21l9.02-8.43l9.72,8.43      c0,0-3.12-10.37-3.12-15.88c0-5.51-4.86-11.02-4.86-11.02H1177.66z" class="colora01e3a svgShape"/></g><g fill="#000000" class="color000 svgShape"><path fill="#15aa55" d="M1415.42,1188.27v-12.91h-475.6c-24.44,0-44.26,18.51-44.26,41.34v0.26c0,22.83,19.81,41.34,44.26,41.34      h475.6v-12.91C1400.63,1216.24,1415.42,1188.27,1415.42,1188.27z" class="color15aa55 svgShape"/><path fill="#0f9344" d="M1043.87,1175.35h34.37c-14.18,7.76-23.87,23.34-23.87,41.32v0.29c0,17.98,9.7,33.56,23.87,41.32h-34.37      c-24.44,0-44.26-18.51-44.26-41.34v-0.26C999.61,1193.86,1019.43,1175.35,1043.87,1175.35z" opacity=".79" class="color0f9344 svgShape"/><path fill="#009844" d="M1415.42,1175.35H1182.2c-19.54,0-35.39,14.8-35.39,33.05v16.83c0,18.25,15.84,33.05,35.39,33.05h233.22      v-12.91c-14.8-29.14,0-57.11,0-57.11V1175.35z" class="color009844 svgShape"/><path fill="#edf0ef" d="M1184.69,1188.27c-13.46,0-24.37,10.19-24.37,22.76v11.59c0,12.57,10.91,22.76,24.37,22.76h230.73      c-12.95-28.55,0-57.11,0-57.11H1184.69z" class="coloredf0ef svgShape"/><path fill="#dee1de" d="M1415.42,1188.27h-230.73c-13.46,0-24.37,10.19-24.37,22.76v5.79l249.35,0      C1409.94,1200.45,1415.42,1188.27,1415.42,1188.27z" opacity=".83" class="colordee1de svgShape"/><path fill="#022fa0" d="M1192.17,1208.41c0,0,2.34,2.74,2.64,9.03c0.29,6.29,3.52,13.68,3.52,13.68l7.62-7.12l8.2,7.12      c0,0-2.64-8.76-2.64-13.41c0-4.65-4.1-9.3-4.1-9.3H1192.17z" class="color022fa0 svgShape"/></g></g><g fill="#000000" class="color000 svgShape"><path fill="#f49c76" d="M628.24,1308.3c-0.57-1.57-1.23-6.05-1.47-8.57c-0.24-2.52,2.73-6.57,6.64-4.91      c3.91,1.66,9.5,5.88,7.74,8.46c-1.76,2.58-5.49,6.73-6.16,7.64C634.32,1311.83,628.82,1309.87,628.24,1308.3z" class="colorf49c76 svgShape"/><path fill="#0f2652" d="M624.32,1282.56l12.68,27.75c0,0,1.04,3.2,7.66-2.86c0.73-0.66,0.94-1.76,0.53-2.67       c-0.73-1.6-2.56-2.83-2.8-4.59c-0.45-3.29-0.69-4.1-4.33-9.68c-1.33-2.04-1.43-5.65-3.61-9.49       C634.3,1280.98,634.14,1280.94,624.32,1282.56z" class="color0f2652 svgShape"/><path fill="#ea1768" d="M628.39,1263.04c0,0-1.68,11.73,6.71,19.13c0,0,25.69-9.92,48.81,1.28c0,0-17.64-20.2-21.48-53.72       C662.44,1229.72,660.42,1248.17,628.39,1263.04z" class="colorea1768 svgShape"/><path fill="#ea1768" d="M681.2,1253.43c5.74,15.4,7.35,28.89,3.59,30.13c-3.76,1.24-11.46-10.24-17.21-25.64       c-5.74-15.4-7.35-28.89-3.59-30.13C667.76,1226.55,675.46,1238.03,681.2,1253.43z" class="colorea1768 svgShape"/><path fill="#f785b4" d="M680.47,1253.72c5.62,15.06,7.29,28.21,3.73,29.37c-3.56,1.16-10.99-10.1-16.61-25.16       c-5.62-15.06-7.29-28.21-3.73-29.37C667.41,1227.4,674.85,1238.67,680.47,1253.72z" class="colorf785b4 svgShape"/><path fill="#ffffff" d="M678.74,1254.3c5.08,13.61,7.16,25.3,4.65,26.11c-2.51,0.81-8.66-9.56-13.74-23.16       c-5.08-13.61-7.16-25.3-4.65-26.11C667.51,1230.33,673.66,1240.7,678.74,1254.3z" class="colorfff svgShape"/><path fill="#e7e7e7" d="M664.72,1236.4c-0.27,0.09-0.45,0.36-0.57,0.78c0.61,4.85,2.55,12.14,5.51,20.08       c3.18,8.53,6.78,15.78,9.65,19.81c0.23,0.1,0.44,0.13,0.62,0.07c1.88-0.61,0.01-10.23-4.19-21.48       C671.53,1244.41,666.6,1235.78,664.72,1236.4z" class="colore7e7e7 svgShape"/><path fill="#ea1768" d="M666.96,1249.31c0.77,2.52,1.67,5.19,2.7,7.94c0.96,2.57,1.96,5.03,2.96,7.31l3.49-1.47       c0.57-6.43-4.79-14-4.79-14L666.96,1249.31z" class="colorea1768 svgShape"/><path fill="#191740" d="M628.39,1263.04l-10.74,5.17c-0.52,0.66-1.27,1.77-1.71,3.32c-1.01,3.54,0.37,6.58,0.79,7.51       c1.67,3.7,4.71,5.31,5.67,5.77c4.23-0.88,8.46-1.76,12.69-2.64c-1.75-2.07-3.75-4.97-5.35-10.26       C628.64,1268.25,628.39,1265.38,628.39,1263.04z" class="color191740 svgShape"/><path fill="#191740" d="M623.22,1284.35c0,0,3.76,8.44,5.82,5.72c2.06-2.72,6.06-7.9,6.06-7.9L623.22,1284.35z" class="color191740 svgShape"/><path fill="#f785b4" d="M633.22,1262.25c0,0,11.42-2.25,22.03-19.08C655.25,1243.18,651.38,1258.28,633.22,1262.25z" class="colorf785b4 svgShape"/><path fill="#feb48c" d="M642.03,1291.32c-0.5-1.13-1.62-1.5-2.55-1.39c-0.84,0.1-3.96,6.93-5,8.92c-0.93,1.61,1.17,3.86,2.68,1.36      C638.66,1297.69,642.35,1292.04,642.03,1291.32z" class="colorfeb48c svgShape"/><path fill="#feb48c" d="M639.55 1289.47c-.5-1.13-1.62-1.5-2.55-1.39-.84.1-3.96 6.93-5 8.92-.93 1.61 1.17 3.86 2.68 1.35C636.18 1295.84 639.87 1290.19 639.55 1289.47zM643.96 1294.01c.16-1.08-1.75-1.9-2.55-1.39-.68.43-4.54 7.51-5.52 9.1-.5.86 1.1 3.18 2.62.68C640.01 1299.89 643.84 1294.75 643.96 1294.01z" class="colorfeb48c svgShape"/><path fill="#feb48c" d="M645.22,1297.37c0.13-1.2-1.18-1.97-2.07-1.48c-0.63,0.34-4.02,5.5-4.78,7.08      c-0.6,0.84,0.24,2.72,1.98,0.66C642.09,1301.57,645.14,1298.03,645.22,1297.37z" class="colorfeb48c svgShape"/><path fill="#f49c76" d="M626.78,1300.09c0,0-0.1-2.09-0.22-3.64c-0.06-0.75,0.29-1.11,1.54-3.4c1.25-2.29,2.21-3.71,2.21-3.71       s5.66,2.16,6.62,2.57c0.96,0.4-0.32,3.42-3.38,2.74l-1.68-0.16c0,0,0.63,2.97-0.48,5.44       C630.28,1302.4,627.02,1302.4,626.78,1300.09z" class="colorf49c76 svgShape"/><path fill="#ba6549" d="M634.3,1294.76c0.01-0.09-0.05-0.17-0.14-0.18l-2.62-0.27l0.03,0.21c0.76,4.69-1.19,6.37-1.21,6.39      c-0.07,0.06-0.08,0.16-0.03,0.23c0.02,0.02,0.04,0.04,0.06,0.05c0.05,0.02,0.11,0.02,0.16-0.02c0.09-0.07,2.06-1.75,1.36-6.49      l2.21,0.23C634.21,1294.91,634.29,1294.84,634.3,1294.76z" class="colorba6549 svgShape"/><path fill="#ffffff" d="M626.36,1304.5l-1.46,4.38l10.1,8l1.79-5.27C634.21,1307.65,626.36,1304.5,626.36,1304.5z" class="colorfff svgShape"/><path fill="#4484e0" d="M597.11,1303.45c5.58,8.29,12.61,32.18,12.61,32.18s2.23-5.5,2.88-0.97l12.86-29.12     c0,0,9.61,4.38,11.32,7.81c0,0-13.49,49.47-21.19,53.18c-7.71,3.71-20.03-13.56-20.03-13.56l-4.86-46.14     C590.23,1303,596.69,1302.83,597.11,1303.45z" class="color4484e0 svgShape"/><path fill="#346ed8" d="M601.71,1322.32c0.36-5.6-5.27-15.9-10.1-17.86c-0.64,0.56-1.04,1.33-0.91,2.38l4.86,46.14     c0,0,5.87,8.21,12.03,12.09C604.89,1354.26,600.91,1334.72,601.71,1322.32z" class="color346ed8 svgShape"/><g fill="#000000" class="color000 svgShape"><path fill="#22313b" d="M570.84,1614.7l-1.09,11.61c0,0,10.79,4.84,12.71,2.54c1.92-2.3,3.23-1.69,3.23-1.69l0.91-14.68      L570.84,1614.7z" class="color22313b svgShape"/><polygon fill="#22313b" points="523.79 1611.15 524.46 1622.29 538.52 1621.54 540.18 1609.14" class="color22313b svgShape"/><path fill="#3f4752" d="M527.55,1423.28c0,0-0.79,29.13,0.83,45.84c1.61,16.71,4.61,58.45,2.21,70.87      c-2.2,11.42-8.94,61.39-10.19,75.87c-0.14,1.61,1.12,2.98,2.72,2.99c6.2,0.02,16.12,1.1,17.8-2.08      c2.17-4.1,18.31-67.59,20.71-80.02c2.4-12.42,6.81-22.7,6.81-22.7s1.61,16.71,1.27,29.19l-1.99,73.61      c-0.05,1.81,1.47,3.25,3.25,3.08c5.65-0.53,12.53-0.64,17.12-2.03c0,0,7.38-48.94,10.07-71.77      c2.68-22.83,6.85-105.9,1.17-115.47C593.65,1421.1,527.55,1423.28,527.55,1423.28z" class="color3f4752 svgShape"/><path fill="#2f3740" d="M520.4 1615.86c-.14 1.61 1.12 2.98 2.72 2.99 1.35.01 3.07-.01 4.95-.06 3.19-23.38 14.45-90.1 16.62-104.41 1.88-12.39-3.77-65.31-6.75-91.29-6.27.06-10.39.19-10.39.19s-.79 29.13.83 45.84c1.61 16.71 4.61 58.45 2.21 70.87C528.38 1551.41 521.65 1601.39 520.4 1615.86zM574.86 1467.39c-2.29 8.26-7.38 49.06-7.38 49.06l0 0c.58-1.52.96-2.4.96-2.4s1.61 16.71 1.27 29.19l-1.99 73.61c-.05 1.81 1.47 3.25 3.25 3.08 4.72-.45 10.09-.77 15.48-1.87-3.86-.81-9.82-3.66-11.35-6.98-1.95-4.22 4.25-81.09 4.25-81.09C575.63 1515.31 574.86 1467.39 574.86 1467.39z" class="color2f3740 svgShape"/><path fill="#2d313d" d="M522.16 1622.79c0 0 15.36-5.46 19.11-3.37 0 0-.11 3.94 1.74 5.97 1.85 2.03 12.93 14.19 10.97 16.1-1.95 1.91-21.01 3.31-32.3-.97L522.16 1622.79zM569.58 1623.84c-.65-.07-1.22.45-1.24 1.13l-.4 14.89c0 0-1.77 1.74 8.55 2.05s37.83 1.13 39.59-.61c1.77-1.74.1-3.59-8.4-7.44-8.5-3.85-17.79-10.41-21.13-14.1 0 0-6.88-.21-5.3 5.23C581.25 1624.99 579.66 1624.94 569.58 1623.84z" class="color2d313d svgShape"/></g><path fill="#ba6549" d="M551.24,1287.62l2.5-10.59l21.77,0.13l1.55,13.49C577.06,1290.66,566.08,1307.44,551.24,1287.62z" class="colorba6549 svgShape"/><g fill="#000000" class="color000 svgShape"><path fill="#feb48c" d="M587.15,1247.52c0,0-0.16,11.24-0.55,17.24c-0.4,6-1.13,19.75-12.67,20.92      c-11.54,1.17-17.66-5.21-21.69-8.07c0,0-12.87-13.55-10.71-17.41c2.16-3.86,4.86-15.72,16.26-14.89      C569.2,1246.14,587.15,1247.52,587.15,1247.52z" class="colorfeb48c svgShape"/><path fill="#221e52" d="M552.76,1278.1c0,0-14.42-13.11-17.69-21.38c-3.28-8.28-2.88-14.28,1.19-18c0,0-3.54-4.28-5.44-4.42      c0,0,5.7,0.42,7.47,2.55c0,0-1.51-6.14,0.53-8c0,0-0.26,4,1.51,6.14c0,0,6.89-17.58,18.16-14.75      c11.28,2.83,29.63,14.22,33.56,12.49c0,0-2.03,1.86-5.83,1.58c0,0,5.57,2.42,11.28,2.83c0,0-2.56,9.86-18.03,12.75      c-15.47,2.89-26.75,0.06-26.75,0.06s2.88,14.28,0.58,20.14c0,0-3.28-8.28-7.08-8.55c-3.8-0.28-0.4,6,1.37,8.14      C549.36,1271.82,554.66,1278.24,552.76,1278.1z" class="color221e52 svgShape"/></g><path fill="#f5f5f5" d="M546.96,1285.82c0,0-3.84,12.34-1.8,13.76c2.03,1.42,11.51,6.65,11.51,6.65s-4.96,6.88-4.96,10.44     s36.32,49.86,36.32,49.86s10.16-50.1,7.9-52.47c-2.26-2.37-6.08-6.65-6.08-6.65s3.17-9.97,0-12.34     c-3.17-2.37-12.42-4.75-12.42-4.75l-4.29,3.8l-21.66-12.1L546.96,1285.82z" class="colorf5f5f5 svgShape"/><path fill="#4484e0" d="M598.85,1406.85c0-2.85,1.35-51.26,1.35-51.26s4.96-35.12-0.45-47.47c-2.17-4.94-5.49-8.42-8.7-10.83     c0.8,3.77-1.21,10.12-1.21,10.12s3.82,4.27,6.08,6.65c2.26,2.37-7.9,52.47-7.9,52.47l-5.18,57.02l3.16,16.81     c0,0,10.38,2.46,18.27-8.41C604.26,1431.96,598.85,1409.7,598.85,1406.85z" class="color4484e0 svgShape"/><path fill="#286bce" d="M588.75,1425.37c0,0,2.65-57.31,4.79-67.28c1.08-5.01,0.25-11.28-0.85-16.28     c-2.23,12.6-4.69,24.73-4.69,24.73l-5.18,57.02l3.16,16.81c0,0,5.78,1.36,11.99-2.45     C595.2,1435.45,591.36,1431.28,588.75,1425.37z" class="color286bce svgShape"/><path fill="#9bd4df" d="M577.42,1290.33l-4.29,3.8l-21.66-12.1l-0.76,0.64l0,0l15.37,18.35l6.6-5.04l7.61,3.92l4.04-7.42     C580.9,1291.22,577.42,1290.33,577.42,1290.33z" class="color9bd4df svgShape"/><path fill="#de3d73" d="M577.82,1304.15l1.59-4.73l-6.73-3.46l-5.79,4.42l5.45,6.26l3.55,28.25l10.42,29.47     c1.07,1.37,1.7,2.17,1.7,2.17s0.28-1.4,0.74-3.72L577.82,1304.15z" class="colorde3d73 svgShape"/><g fill="#000000" class="color000 svgShape"><path fill="#68a9ea" d="M586.31 1364.36L586.31 1364.36c-13.66-40.59-39.74-77.24-39.74-77.24l0 0c-.92 3.2-3.05 11.32-1.42 12.46 2.03 1.42 11.51 6.65 11.51 6.65s-4.96 6.88-4.96 10.44C551.69 1319.77 579.16 1355.19 586.31 1364.36zM595.92 1314.06c-2.26-2.37-6.08-6.65-6.08-6.65s3.17-9.97 0-12.34c-1.22-.92-3.35-1.83-5.51-2.61l0 0c.15 11.63 5.06 67.11 5.06 67.12C592.08 1345.74 597.65 1315.88 595.92 1314.06z" class="color68a9ea svgShape"/></g><path fill="#4484e0" d="M588.01,1366.53L588.01,1366.53c0,0-36.32-46.3-36.32-49.86s4.96-10.44,4.96-10.44s-9.48-5.22-11.51-6.65     c-2.03-1.42,1.8-13.76,1.8-13.76s-14.89,6.53-25.04,15.19l2.94,62.18l4.23,27.09l-5.64,45.47c0,0,36.37,8.13,56.67,3.14     c0,0,11.51-63.01,9.48-67.99C589.35,1370.28,588.8,1368.76,588.01,1366.53z" class="color4484e0 svgShape"/><path fill="#286bce" d="M530.81,1338.54c0,0-1.92,0.08,6.21-19.44l-14.92-14.17l2.76,58.26l2.38,15.21l4.24-1.43L530.81,1338.54z" class="color286bce svgShape"/><path fill="#286bce" d="M531.39,1378.37c0-0.34,0.03-0.82,0.08-1.4l-6.63-14.06l0.01,0.27l4.23,27.09l-7.18,47.91     c0,0,13.45,0.3,31.32,1.69l-9.21-21.15C544.02,1418.72,531.39,1384.07,531.39,1378.37z" class="color286bce svgShape"/><g fill="#000000" class="color000 svgShape"><path fill="#fbc0a4" d="M503.33,1213.81c0,0,4.21,5.9-4.39,10.3c-1.98,1.01-2.05,3.56-1.06,7.06l-9.29,2.34      c-1.26-10.65-1.87-18.81-1.48-20.67c1.1-5.15,1.92-7.93,5.39-6.03c3.46,1.9,4.37-4.07,6.96-1.94c2.6,2.13,4.56-4.45,6.37-1.06      C507.64,1207.21,503.33,1213.81,503.33,1213.81z" class="colorfbc0a4 svgShape"/><path fill="#f8e8d8" d="M486.4,1233.38l-0.83-6.41c0,0,7.74-3.68,14.9-2.17l0.78,5.99L486.4,1233.38z" class="colorf8e8d8 svgShape"/><path fill="#4484e0" d="M544.18,1336.58c0,0-54.52-37.34-59.44-48.71c-4.92-11.36-0.03-58.98-0.03-58.98l16.67-3.54l3.89,54.34      C505.27,1279.69,569.65,1297.76,544.18,1336.58z" class="color4484e0 svgShape"/><path fill="#286bce" d="M487.42,1266.17c2.21,17.2,3.84,19.65,3.84,19.65c3.22,7.77,45.74,45.74,45.76,45.76      c-14.95-10.56-48.47-34.91-52.28-43.71c-3.91-9.03-1.63-40.93-0.52-53.66C484.88,1242.37,486.03,1255.36,487.42,1266.17z" class="color286bce svgShape"/></g><polygon fill="#ea1768" points="683.07 1230.18 701.49 1210.9 706.38 1217.09 685.59 1232.06" class="colorea1768 svgShape"/><polygon fill="#ea1768" points="696.2 1260.49 722.16 1261.73 721.13 1269.7 696.59 1263.71" class="colorea1768 svgShape"/><polygon fill="#ea1768" points="689.79 1246.51 714.17 1237.04 716.17 1244.81 691.34 1249.32" class="colorea1768 svgShape"/></g><g fill="#000000" class="color000 svgShape"><path fill="#131025" d="M1280.22,948.62c0,0-8.63-4.53-15.16,13.03c-6.53,17.55-6.81,44.93-4.42,54.26c0,0-19.03,20.69-3.41,34.27     c0,0,21.53,22.85,22.96,28.73c0.55-1.38,9.73-18.11,24.67-19.01c14.94-0.9,51.66-39.84,32.01-45.95c0,0,1.48,6.31-5.22,4.78     c-6.7-1.53-2.53-24.8-2.62-33.03c-0.09-8.23-5.04-28.53-19.35-37.17C1295.36,939.89,1278.92,940.45,1280.22,948.62z" class="color131025 svgShape"/><path fill="#eaa87a" d="M1304.38,1002.92c0,0,3.83,11.16,5.16,13.15c0,0,2.05,5.35-3.99,20.48c-6.05,15.13-21.36,6.68-23.81,2.55     c-2.45-4.13-7.86-12.03-2.92-19.89c0,0,6.76-4.9,3.23-15.57C1282.04,1003.65,1303.31,999.36,1304.38,1002.92z" class="coloreaa87a svgShape"/><path fill="#fcc596" d="M1278.26,1000.42c0,0,10.39,11.18,19.1,9.75c9.41-1.54,16.72-12.6,18.97-20.7     c2.26-8.1-1.47-24.39-7.07-30.19c-5.6-5.8-26.35-9.65-32.16-2.12C1271.29,964.69,1267.37,991.73,1278.26,1000.42z" class="colorfcc596 svgShape"/><path fill="#175699" d="M1260.23,1151.08c0,0-24.8,14.75-26.16,22.19l27.33-9.66L1260.23,1151.08z" class="color175699 svgShape"/><path fill="#ffffff" d="M1283.15,1015.95c0,0,19.25,8.51,28.58-1.2c0,0,40.49,46.37,17.58,153.43c0,0-74.83-1.55-76.35-1.28     c-1.53,0.27,3.24-23.22,12.25-29.73c8.94-6.47,60.61-36.51,17.75-119.51C1282.66,1017.1,1282.7,1016.77,1283.15,1015.95z" class="colorfff svgShape"/><path fill="#ff77c4" d="M1282.57,1015.71c0,0-7.46,0.77-16.69,4.12c-7.09,4.51-15.99,12.52-13.21,23.26     c4.46,17.21,11.62,57.29,4.32,73.71c-5.65,12.7-12.49,21.86-22.71,39.03h22.34c17.75-14.61,35.28-31.53,46.39-54.52     C1325.12,1055.58,1282.57,1015.71,1282.57,1015.71z" class="colorff77c4 svgShape"/><path fill="#e55daa" d="M1265.88,1019.84c-7.09,4.51-15.99,12.52-13.21,23.26c4.46,17.21,11.62,57.29,4.32,73.71     c-3.7,8.33-7.93,15.15-13.28,23.69c8.97-7.46,27.48-25.48,34.18-44.79c0,0-29.73-46.69-10.35-76.45     C1266.99,1019.44,1266.44,1019.63,1265.88,1019.84z" class="colore55daa svgShape"/><polygon fill="#9bd4df" points="1281.25 1015.67 1298.33 1029.54 1301.05 1019.66 1287.36 1015.87" class="color9bd4df svgShape"/><path fill="#9bd4df" d="M1311.73,1014.76l-10.02,4.51l9.47,10.7C1311.18,1029.97,1315.77,1019.02,1311.73,1014.76z" class="color9bd4df svgShape"/><path fill="#ff77c4" d="M1329.77,1150.78c-0.34,1.79-0.61,3.5-0.79,5.05h14.96c-1.75-11.93-5.48-27.43-6.47-31.47     c4.86-28.06,8.1-47.77,5.26-76.96c0,0-1.62-11.37-4.23-21.62c-0.75-2.94-2.4-7.18-5.39-8.13c-6.61-2.09-14.15-1.85-21.38-2.91     C1311.73,1014.76,1331.14,1091.96,1329.77,1150.78z" class="colorff77c4 svgShape"/><path fill="#e55daa" d="M1343.18,1052.59c-4.83,14.9-10.89,29.04-10.89,29.04c2.74,2.32,6.14,8.28,9.53,15.39     C1343.67,1082.7,1344.43,1069.09,1343.18,1052.59z" class="colore55daa svgShape"/><path fill="#f9ae81" d="M1318.83,1124.57c0,0-19.86,9.47-22.19,8.65c-6.09-2.13-6.14-11.09-4.76-14.86c0,0,1.92-1.72,3.28-0.49      c1.36,1.23,6.06,1.37,4.79-0.95c-0.56-1.02-1.8-1.36-1.87-2.34c-0.11-1.47,0.34-2.82,1.72-2.8c0.21,0,0.44,0.02,0.7,0.06      c2.92,0.42,4.26,2.01,7.31,4.73c3.05,2.71,8.09-1.77,8.09-1.77L1318.83,1124.57z" class="colorf9ae81 svgShape"/><path fill="#ff77c4" d="M1313.72,1130.51c-3.59,0.7-5.51-16.54-5.51-16.54s38.61-15.13,40.88-21.49      c2.27-6.36-23.85-48.1-24.67-51.57c-0.56-2.39-4.33-10.55,1.15-17.54c3.45-4.41,9.28-5.33,13.66-2.4      c3.09,2.07,5.88,4.48,8.15,7.32c13.89,17.37,33.43,70.66,28.7,74.95c-5.41,4.91-38.25,17.84-38.25,17.84      S1318.05,1129.67,1313.72,1130.51z" class="colorff77c4 svgShape"/><path fill="#f9ae81" d="M1277.89,1128.08c0,0,19.86,9.47,22.19,8.65c6.09-2.13,6.13-11.09,4.76-14.86c0,0-1.92-1.72-3.28-0.49      c-1.36,1.23-6.06,1.37-4.79-0.95c0.56-1.02,1.8-1.36,1.87-2.34c0.11-1.47-0.34-2.82-1.72-2.8c-0.21,0-0.44,0.02-0.7,0.06      c-2.92,0.42-4.26,2.01-7.31,4.73c-3.05,2.71-8.09-1.77-8.09-1.77L1277.89,1128.08z" class="colorf9ae81 svgShape"/><path fill="#ff77c4" d="M1283,1134.01c3.59,0.7,5.51-16.54,5.51-16.54s-38.61-15.13-40.88-21.49      c-2.27-6.36,23.85-48.1,24.67-51.57c0.56-2.4,4.33-10.55-1.15-17.54c-3.45-4.41-9.28-5.33-13.65-2.4      c-3.09,2.06-5.88,4.48-8.15,7.32c-13.89,17.38-33.43,70.66-28.7,74.95c5.41,4.91,38.25,17.84,38.25,17.84      S1278.67,1133.17,1283,1134.01z" class="colorff77c4 svgShape"/><path fill="#222146" d="M1247.26,1177c0,0-1.37,8.88,9.28,11.72c10.65,2.84,18.24,4.73,20.11-1.02c1.88-5.75,3.55-9.1,0-9.94      C1273.11,1176.93,1247.26,1177,1247.26,1177z" class="color222146 svgShape"/><path fill="#213267" d="M1301.54,1164.35c0,0,60.37-40.21,75.1-40.21c14.72,0,34.18,11.97,27.87,26.66      c-6.31,14.69-43.12,26.34-61,29.83C1325.63,1184.13,1302.69,1169.62,1301.54,1164.35z" class="color213267 svgShape"/><path fill="#14284e" d="M1379.5,1124.29c7.22,4.9,11.72,12.24,8.2,20.43c-6.31,14.69-43.12,26.34-61,29.83      c-4.27,0.83-8.82,0.63-13.3-0.21c8.47,4.56,20.08,8.25,30.1,6.3c17.88-3.49,54.69-15.14,61-29.83      C1410.41,1137.05,1393.74,1125.68,1379.5,1124.29z" class="color14284e svgShape"/><path fill="#213267" d="M1306.7,1167.83c0,0-63.63-43.1-77.83-48.34c-14.2-5.24-33.13,4.66-31.03,18.64      c2.1,13.98,17.88,26.21,37.34,34.95c19.46,8.74,65.21,10.48,65.21,10.48L1306.7,1167.83z" class="color213267 svgShape"/><path fill="#14284e" d="M1228.87,1119.48c-14.2-5.24-33.13,4.66-31.03,18.64c0.03,0.19,0.07,0.39,0.1,0.58      c6.39-5.08,16.3-7.2,24.61-4.14c14.2,5.24,77.83,48.34,77.83,48.34l-0.25,0.63c0.16,0.01,0.25,0.01,0.25,0.01l6.31-15.73      C1306.7,1167.83,1243.07,1124.73,1228.87,1119.48z" class="color14284e svgShape"/><path fill="#222146" d="M1318.33,1185.25c0,0,6.82,9,16.81,4.34c9.99-4.66,19.73-10.41,13.02-14.23      c-6.71-3.82-23.53,0.55-23.53,0.55S1320.18,1179.16,1318.33,1185.25z" class="color222146 svgShape"/><path fill="#e9c6ce" d="M1300.39,1183.55c0,0,14.91,3.33,20.62,4.3c0,0,8.31-9.98,4.26-12.2c-3.39-1.86-18.57-7.82-18.57-7.82      L1300.39,1183.55z" class="colore9c6ce svgShape"/><g fill="#000000" class="color000 svgShape"><path fill="#c7d3e2" d="M1352.69,1147.85h-97.99l-6.2-61.17c-0.21-2.72,1.9-5.05,4.6-5.05h101.5c2.66,0,4.77,2.28,4.6,4.97      L1352.69,1147.85z" class="colorc7d3e2 svgShape"/><path fill="#dae1e9" d="M1344.48,1112.24h-7.82c-0.51,0-0.92-0.41-0.92-0.92v-14.7c0-0.51,0.41-0.92,0.92-0.92h7.82      c0.51,0,0.92,0.41,0.92,0.92v14.7C1345.4,1111.83,1344.98,1112.24,1344.48,1112.24z" opacity=".67" class="colordae1e9 svgShape"/><path fill="#b3c1d2" d="M1354.93,1154.49H1252.4c-0.99,0-1.81-0.81-1.81-1.81v-4.11c0-0.99,0.81-1.81,1.81-1.81h102.53      c0.99,0,1.81,0.81,1.81,1.81v4.11C1356.74,1153.68,1355.92,1154.49,1354.93,1154.49z" class="colorb3c1d2 svgShape"/><path fill="#95a9bb" d="M1250.6,1149.21v2.84c0,1.34,1.1,2.44,2.44,2.44h40.77c0.46-0.47,0.75-1.12,0.75-1.84v-4.06      c0-0.71-0.29-1.36-0.75-1.83h-40.77C1251.7,1146.77,1250.6,1147.87,1250.6,1149.21z" class="color95a9bb svgShape"/><path fill="#a2b2cb" d="M1319.4,1083.99l-64.96-0.72c-2.52,0-3.54,0.98-3.34,3.48l5.82,58.88l5.48-0.1      C1262.29,1128.22,1269.05,1093.9,1319.4,1083.99z" class="colora2b2cb svgShape"/></g><path fill="#1c183c" d="M1268.51,1029.79c0,0-8.32,3.23-13.06-3.26c-4.74-6.5,3.18-10.38,3.18-10.38s-5.15,6.55,2.38,7.39     c7.53,0.84,7.55-11.91,4.89-18.96c-7.68-20.34-3.29-33.69,0.23-40.96c3.52-7.27,9.79-12.59,9.79-12.59l4.3-2.41l3,7.39     c0,0-5.4,8.34-8.13,16.04c-2.73,7.7-3.87,17.6,2.58,30.37C1284.13,1015.2,1285.76,1027.74,1268.51,1029.79z" class="color1c183c svgShape"/><path fill="#232147" d="M1283.21,956l-3-7.39l0,0l0,0c0,0-8.63-4.53-15.16,13.03c-2.24,6.03-3.41,13.27-3.87,20.55     c2.97,10.93,11.36,23.53,15.94,34.24c5.77,13.51-11.81,9.87-11.81,9.87s5.88,10.02,14.67,2.33c9.67-8.45,1.19-22.46-2.52-29.78     c-3.71-7.33-3.12-21.2,0.41-29.08C1281.38,961.9,1283.21,956,1283.21,956z" class="color232147 svgShape"/><path fill="#1c183c" d="M1283.21,956c0,0,19.66-5.22,29.6,18.84c9.93,24.06-4.22,35.11-1.71,42.52c2.51,7.42,9.21,8.5,14.95,0.88     c0,0-7.06,4.59-8.13-0.61c-1.06-5.2,10.67-12.78,9.55-32.61c-0.39-6.97-1.52-12.96-2.83-17.81c-3.04-7.17-7.85-14.38-14.98-18.69     c-14.3-8.64-30.75-8.07-29.45,0.09L1283.21,956z" class="color1c183c svgShape"/></g><g fill="#000000" class="color000 svgShape"><path fill="#82b146" d="M1748.33,1552.01c0,0,3.97-22.69,0.13-37.1c-3.84-14.41,18.86-24.46,2.84-41.72c0,0,0.15,11.82-12.94,7.67     c0,0,9.41-27.66-16.64-39.57c0,0,9.85,30.11-3.76,27.12c-13.61-3,1.53-23.16-14.84-32.2c-16.37-9.04-33.43-1.67-20.75,20.21     c12.69,21.88,10.44,26.71-11.33,17.44c0,0-3.57,16.97,9.85,29.25C1694.3,1515.4,1732.67,1553.13,1748.33,1552.01z" class="color82b146 svgShape"/><path fill="#7e9e3e" d="M1742.91,1557.52c0,0,1.76-35.87,13.16-54.52c11.41-18.65-1.22-34.53-8.94-39.4     c-7.72-4.88,13.62-59.78,0.11-60.9c-13.51-1.12-35.54-2.41-26.45,33.82c9.09,36.24,15.59,32.01,11.56,67.16     C1728.31,1538.84,1730.67,1554.92,1742.91,1557.52z" class="color7e9e3e svgShape"/><path fill="#82b146" d="M1733.67,1555.23c0,0,24.04-25.7,32.76-68.72c8.72-43.02,42.56-14.3,31.12,9.66     C1786.1,1520.14,1773.57,1556.08,1733.67,1555.23z" class="color82b146 svgShape"/><path fill="#d0d1e9" d="M1689.04,1567.8h108.63c0.98,0,1.78-0.8,1.78-1.78v-24.15c0-0.98-0.8-1.78-1.78-1.78h-108.63      c-0.98,0-1.78,0.8-1.78,1.78v24.15C1687.26,1567,1688.06,1567.8,1689.04,1567.8z" class="colord0d1e9 svgShape"/><polygon fill="#d0d1e9" points="1773.15 1634.09 1788.16 1567.8 1698.55 1567.8 1715.43 1634.09" class="colord0d1e9 svgShape"/><path fill="#a7a7d3" d="M1722.26,1629.74c8.32,1.63,49.68,4.62,49.68,4.62h-56.51l-16.88-66.29h70.3c0,0-63.23,3.8-61.32,8.96      C1709.43,1582.2,1713.94,1628.11,1722.26,1629.74z" class="colora7a7d3 svgShape"/></g><g fill="#000000" class="color000 svgShape"><polygon fill="#d2f3f9" points="709.95 901.09 392.53 901.09 392.53 901.09 392.53 683.32 392.53 683.32 709.95 683.32 709.95 901.09" class="colord2f3f9 svgShape"/><path fill="#3ab3ce" d="M608.44,792.2c0,31.59-25.61,57.19-57.19,57.19c-31.59,0-57.19-25.61-57.19-57.19    c0-31.59,25.61-57.19,57.19-57.19C582.83,735.01,608.44,760.62,608.44,792.2z" class="color3ab3ce svgShape"/><polygon fill="#d2f3f9" points="525.97 763.13 525.97 821.28 576.52 792.2" class="colord2f3f9 svgShape"/></g></svg>