<svg xmlns="http://www.w3.org/2000/svg" enable-background="new 0 0 250 250" viewBox="0 0 250 250"><path fill="#212121" d="M108.2,74.39c-0.01,0-0.01,0-0.02,0c-0.26-0.01-0.46-0.23-0.45-0.48c0.04-1.26,0.17-2.54,0.38-3.8       c0.04-0.26,0.29-0.43,0.54-0.38c0.26,0.04,0.43,0.29,0.38,0.54c-0.21,1.22-0.33,2.45-0.37,3.67       C108.66,74.19,108.45,74.39,108.2,74.39z M109.44,67c-0.05,0-0.09-0.01-0.14-0.02c-0.25-0.08-0.39-0.34-0.31-0.59       c0.37-1.21,0.83-2.41,1.36-3.57c0.11-0.24,0.39-0.34,0.62-0.23c0.24,0.11,0.34,0.39,0.23,0.62c-0.51,1.12-0.95,2.28-1.31,3.45       C109.83,66.87,109.64,67,109.44,67z M144.08,61.33c-0.11,0-0.23,0-0.34-0.01c-0.26-0.01-0.46-0.23-0.45-0.49       c0.01-0.26,0.23-0.46,0.49-0.45c0.36,0.02,0.72,0,1.08-0.04c0.76-0.1,1.54-0.38,2.24-0.8c0.22-0.14,0.51-0.07,0.65,0.16       c0.14,0.22,0.07,0.51-0.16,0.65c-0.82,0.5-1.7,0.82-2.61,0.93C144.69,61.31,144.38,61.33,144.08,61.33z M140.22,60.21       c-0.08,0-0.17-0.02-0.24-0.07c-1.13-0.68-2.12-1.62-2.85-2.71c-0.14-0.22-0.09-0.51,0.13-0.65c0.22-0.15,0.51-0.09,0.65,0.13       c0.66,0.98,1.54,1.82,2.55,2.43c0.22,0.13,0.29,0.42,0.16,0.64C140.53,60.13,140.38,60.21,140.22,60.21z M112.56,60.19       c-0.08,0-0.17-0.02-0.25-0.07c-0.22-0.14-0.29-0.43-0.15-0.65c0.68-1.08,1.43-2.12,2.23-3.1c0.17-0.2,0.46-0.23,0.66-0.06       c0.2,0.17,0.23,0.46,0.06,0.66c-0.78,0.94-1.5,1.95-2.16,2.99C112.87,60.11,112.71,60.19,112.56,60.19z M149.88,57.69       c-0.07,0-0.14-0.02-0.21-0.05c-0.23-0.12-0.32-0.4-0.21-0.63c0.38-0.75,0.57-1.53,0.57-2.32c0-0.22-0.02-0.45-0.05-0.66       c-0.02-0.12-0.04-0.24-0.06-0.35c-0.05-0.25,0.11-0.5,0.36-0.56c0.25-0.05,0.5,0.11,0.56,0.36c0.03,0.14,0.06,0.28,0.08,0.42       c0.04,0.26,0.06,0.53,0.06,0.8c0,0.93-0.23,1.85-0.67,2.74C150.21,57.59,150.05,57.69,149.88,57.69z M117.34,54.42       c-0.13,0-0.25-0.05-0.35-0.15c-0.18-0.19-0.16-0.49,0.03-0.66c0.13-0.12,0.26-0.24,0.4-0.36c0.82-0.72,1.69-1.39,2.6-2.01       c0.21-0.15,0.51-0.09,0.65,0.12c0.15,0.21,0.09,0.51-0.12,0.65c-0.88,0.6-1.72,1.25-2.51,1.94c-0.13,0.11-0.26,0.23-0.38,0.34       C117.57,54.38,117.46,54.42,117.34,54.42z M136.17,54.16c-0.23,0-0.43-0.16-0.46-0.39c-0.09-0.54-0.13-1.11-0.13-1.68       c0-0.73,0.07-1.48,0.22-2.23c0.05-0.25,0.3-0.42,0.55-0.37c0.25,0.05,0.42,0.3,0.37,0.55c-0.13,0.68-0.2,1.37-0.2,2.04       c0,0.52,0.04,1.03,0.12,1.53c0.04,0.26-0.13,0.5-0.39,0.54C136.22,54.16,136.19,54.16,136.17,54.16z M148.52,50.84       c-0.12,0-0.24-0.04-0.33-0.13c-0.78-0.76-1.79-1.41-3-1.95c-0.24-0.11-0.34-0.38-0.24-0.62c0.11-0.24,0.38-0.34,0.62-0.24       c1.31,0.59,2.4,1.3,3.26,2.14c0.19,0.18,0.19,0.48,0.01,0.66C148.76,50.79,148.64,50.84,148.52,50.84z M123.53,50.19       c-0.17,0-0.34-0.09-0.42-0.26c-0.12-0.23-0.02-0.51,0.21-0.63c1.13-0.57,2.31-1.06,3.52-1.48c0.24-0.08,0.51,0.05,0.6,0.29       c0.08,0.25-0.05,0.51-0.29,0.6c-1.17,0.4-2.31,0.89-3.4,1.43C123.67,50.18,123.6,50.19,123.53,50.19z M173.43,48.81       c-0.13,0-0.27-0.06-0.36-0.17c-0.78-0.94-1.63-1.83-2.55-2.65c-0.19-0.17-0.21-0.47-0.04-0.66c0.17-0.19,0.47-0.21,0.66-0.04       c0.95,0.85,1.85,1.78,2.65,2.76c0.17,0.2,0.14,0.5-0.06,0.66C173.64,48.78,173.54,48.81,173.43,48.81z M130.61,47.74       c-0.22,0-0.41-0.15-0.46-0.37c-0.05-0.25,0.11-0.5,0.36-0.56c1.24-0.26,2.52-0.43,3.78-0.53c0.27-0.02,0.48,0.18,0.5,0.43       c0.02,0.26-0.18,0.48-0.43,0.5c-1.22,0.09-2.45,0.26-3.66,0.51C130.67,47.74,130.64,47.74,130.61,47.74z M141.81,47.68       c-0.03,0-0.06,0-0.09-0.01c-1.19-0.24-2.42-0.4-3.66-0.48c-0.19-0.01-0.34-0.13-0.41-0.3c-0.11,0.02-0.22,0.01-0.33-0.05       c-0.23-0.13-0.31-0.41-0.18-0.64c0.52-0.93,1.14-1.79,1.86-2.55c0.17-0.18,0.34-0.35,0.52-0.52c0.19-0.18,0.49-0.17,0.66,0.02       c0.18,0.19,0.17,0.48-0.02,0.66c-0.17,0.16-0.33,0.32-0.48,0.49c-0.56,0.59-1.06,1.25-1.48,1.96c1.25,0.08,2.5,0.24,3.71,0.49       c0.25,0.05,0.42,0.3,0.37,0.55C142.22,47.53,142.02,47.68,141.81,47.68z M167.86,43.81c-0.09,0-0.18-0.03-0.26-0.08       c-1.02-0.68-2.1-1.29-3.21-1.83c-0.23-0.11-0.33-0.39-0.22-0.63c0.11-0.23,0.39-0.33,0.63-0.22c1.15,0.55,2.27,1.19,3.32,1.89       c0.22,0.14,0.27,0.44,0.13,0.65C168.16,43.73,168.01,43.81,167.86,43.81z M142.85,41.73c-0.16,0-0.32-0.09-0.41-0.24       c-0.13-0.23-0.05-0.51,0.18-0.64c1.08-0.6,2.28-1.11,3.54-1.5c0.25-0.08,0.51,0.06,0.59,0.31c0.08,0.25-0.06,0.51-0.31,0.59       c-1.2,0.37-2.34,0.85-3.36,1.43C143.01,41.71,142.93,41.73,142.85,41.73z M161.11,40.56c-0.05,0-0.1-0.01-0.14-0.02       c-1.17-0.38-2.38-0.67-3.58-0.88c-0.26-0.04-0.43-0.29-0.38-0.54c0.04-0.26,0.29-0.43,0.54-0.38c1.25,0.21,2.49,0.52,3.71,0.91       c0.25,0.08,0.38,0.34,0.3,0.59C161.49,40.43,161.31,40.56,161.11,40.56z M149.98,39.48c-0.23,0-0.44-0.17-0.47-0.41       c-0.03-0.26,0.15-0.49,0.41-0.53c0.43-0.06,0.86-0.1,1.29-0.13c0.84-0.06,1.69-0.08,2.53-0.06c0.26,0.01,0.46,0.22,0.46,0.48       c-0.01,0.26-0.22,0.46-0.47,0.46c0,0-0.01,0-0.01,0c-0.81-0.02-1.63,0-2.43,0.06c-0.41,0.03-0.83,0.07-1.24,0.13       C150.02,39.48,150,39.48,149.98,39.48z" class="color212121 svgShape"/><path fill="#70bbff" d="M182.27,53.71c-1.55,3.18-5.38,4.51-8.57,2.96c-3.18-1.55-4.5-5.38-2.95-8.56        c1.55-3.18,5.38-4.51,8.56-2.96C182.5,46.69,183.81,50.53,182.27,53.71z" class="color70bbff svgShape"/><path fill="#ffffff" d="M174.93 53.02c-.28 0-.56-.06-.81-.19-.45-.22-.78-.6-.95-1.07l-.47-1.36c-.15-.42.08-.88.5-1.02.42-.15.88.08 1.02.5l.47 1.36c.03.09.09.13.13.15.04.02.11.04.19.01l4.85-1.67c.42-.14.88.08 1.02.5.15.42-.08.88-.5 1.02l-4.85 1.67C175.34 52.99 175.14 53.02 174.93 53.02zM24.35 48.29v62.77c0 1.78 1.44 3.22 3.22 3.22h82.28c1.78 0 3.22-1.44 3.22-3.22V48.29c0-1.78-1.44-3.22-3.22-3.22H27.57C25.79 45.07 24.35 46.51 24.35 48.29z" class="colorfff svgShape"/><path fill="#212121" d="M109.85,114.75H27.57c-2.04,0-3.69-1.66-3.69-3.69V48.29c0-2.04,1.66-3.69,3.69-3.69h82.28      c2.04,0,3.69,1.66,3.69,3.69v62.77C113.54,113.1,111.88,114.75,109.85,114.75z M27.57,45.54c-1.52,0-2.75,1.23-2.75,2.75v62.77      c0,1.52,1.23,2.75,2.75,2.75h82.28c1.52,0,2.75-1.23,2.75-2.75V48.29c0-1.52-1.23-2.75-2.75-2.75H27.57z" class="color212121 svgShape"/><path fill="#ffffff" d="M33.82,98.22l0-28.65c0-1.19,0.96-2.15,2.15-2.15l27.26,0c1.19,0,2.15,0.96,2.15,2.15v33.89       c0,1.19-0.96,2.15-2.15,2.15l-22.03,0c-0.71,0-1.39-0.28-1.9-0.79l-4.7-4.7C34.11,99.62,33.82,98.93,33.82,98.22z" class="colorfff svgShape"/><path fill="#212121" d="M63.23,106.08H41.21c-0.83,0-1.64-0.34-2.23-0.92l-4.7-4.7c-0.6-0.6-0.92-1.39-0.92-2.23V69.57       c0-1.44,1.17-2.62,2.62-2.62h27.26c1.44,0,2.62,1.17,2.62,2.62v33.89C65.85,104.9,64.68,106.08,63.23,106.08z M35.97,67.9       c-0.92,0-1.68,0.75-1.68,1.68v28.65c0,0.59,0.23,1.15,0.65,1.57l4.7,4.7c0.41,0.41,0.98,0.65,1.57,0.65h22.03       c0.92,0,1.68-0.75,1.68-1.68V69.57c0-0.93-0.75-1.68-1.68-1.68H35.97z" class="color212121 svgShape"/><path fill="#212121" d="M33.82,98.22l6.3,0c0.6,0,1.08,0.49,1.08,1.09v6.3l-2.19-1.08l-4.53-4.54L33.82,98.22z" class="color212121 svgShape"/><path fill="#212121" d="M41.21,106.08c-0.07,0-0.14-0.02-0.21-0.05l-2.19-1.08c-0.05-0.02-0.09-0.05-0.12-0.09l-4.53-4.54       c-0.05-0.05-0.08-0.1-0.11-0.17l-0.67-1.77c-0.05-0.14-0.04-0.31,0.05-0.43c0.09-0.13,0.23-0.2,0.39-0.2h6.3       c0.86,0,1.55,0.7,1.55,1.56v6.3c0,0.16-0.08,0.31-0.22,0.4C41.38,106.05,41.29,106.08,41.21,106.08z M39.3,104.14l1.44,0.71       v-5.54c0-0.34-0.28-0.62-0.61-0.62H34.5l0.4,1.04L39.3,104.14z" class="color212121 svgShape"/><path fill="#ffffff" d="M72.58,98.22V69.57c0-1.19,0.96-2.15,2.15-2.15l27.26,0c1.19,0,2.15,0.96,2.15,2.15l0,33.89       c0,1.19-0.96,2.15-2.15,2.15l-22.03,0c-0.71,0-1.39-0.28-1.9-0.79l-4.7-4.7C72.86,99.62,72.58,98.93,72.58,98.22z" class="colorfff svgShape"/><path fill="#212121" d="M101.99,106.08H79.96c-0.83,0-1.64-0.34-2.23-0.92l-4.7-4.7c-0.6-0.6-0.92-1.39-0.92-2.23V69.57       c0-1.44,1.17-2.62,2.62-2.62h27.26c1.44,0,2.62,1.17,2.62,2.62v33.89C104.61,104.9,103.43,106.08,101.99,106.08z M74.72,67.9       c-0.92,0-1.68,0.75-1.68,1.68v28.65c0,0.59,0.23,1.15,0.65,1.57l4.7,4.7c0.41,0.41,0.98,0.65,1.57,0.65h22.03       c0.92,0,1.68-0.75,1.68-1.68V69.57c0-0.93-0.75-1.68-1.68-1.68H74.72z" class="color212121 svgShape"/><path fill="#212121" d="M72.57,98.22l6.3,0c0.6,0,1.08,0.49,1.08,1.09l0,6.3l-2.19-1.08l-4.53-4.54L72.57,98.22z" class="color212121 svgShape"/><path fill="#212121" d="M79.96 106.08c-.07 0-.14-.02-.21-.05l-2.19-1.08c-.05-.02-.09-.05-.12-.09l-4.53-4.54c-.05-.05-.08-.1-.11-.17l-.67-1.77c-.05-.14-.04-.31.05-.43.09-.13.23-.2.39-.2h6.3c.86 0 1.55.7 1.55 1.56v6.3c0 .16-.08.31-.22.4C80.13 106.05 80.05 106.08 79.96 106.08zM78.05 104.14l1.44.71v-5.54c0-.34-.28-.62-.61-.62h-5.62l.4 1.04L78.05 104.14zM56.49 72.33H42.71c-.26 0-.47-.21-.47-.47s.21-.47.47-.47h13.78c.26 0 .47.21.47.47S56.75 72.33 56.49 72.33zM60.44 75.23H38.76c-.26 0-.47-.21-.47-.47 0-.26.21-.47.47-.47h21.69c.26 0 .47.21.47.47C60.91 75.02 60.7 75.23 60.44 75.23z" class="color212121 svgShape"/><circle cx="57.99" cy="98.96" r="3.67" fill="#ff527c" class="colorff527c svgShape"/><path fill="#ffffff" d="M55.47 100.09c-.06-.01-.11-.03-.13-.07-.03-.04-.04-.09-.04-.14 0-.02.01-.05.03-.08l1.4-2.45c.03-.04.06-.08.11-.11.05-.03.1-.04.16-.03l.04.01c.07.01.12.03.15.07.04.04.06.09.08.13l.78 2.72c.01.04.01.07.01.09-.01.05-.03.1-.07.13-.04.03-.09.05-.15.04-.09-.01-.15-.06-.17-.14l-.2-.7-1.46-.17L55.67 100C55.62 100.07 55.56 100.11 55.47 100.09zM56.22 99.02l1.16.14-.41-1.46L56.22 99.02zM59.52 100.11c-.05-.01-.08-.03-.11-.06-.03-.04-.04-.08-.04-.12l.08-.7-.7-.08c-.05-.01-.08-.03-.11-.06-.03-.04-.04-.08-.03-.12.01-.05.03-.09.06-.11.04-.03.08-.04.12-.03l.7.08.08-.7c.01-.05.03-.09.06-.11.04-.03.08-.04.12-.03.05.01.09.03.11.06.03.04.04.08.03.13l-.08.7.7.08c.05.01.09.03.11.06.03.04.04.08.03.13-.01.05-.03.08-.06.11-.04.03-.08.04-.13.03l-.7-.08-.08.7c-.01.05-.03.08-.06.11C59.62 100.1 59.57 100.11 59.52 100.11z" class="colorfff svgShape"/><path fill="#37cfa6" d="M42.4,78.98v1.97c0,0.46-0.38,0.84-0.84,0.84H39.6c-0.46,0-0.84-0.38-0.84-0.84v-1.97         c0-0.46,0.38-0.84,0.84-0.84h1.97C42.03,78.14,42.4,78.51,42.4,78.98z" class="color37cfa6 svgShape"/><path fill="#212121" d="M60.44 82.25H45.61c-.26 0-.47-.21-.47-.47s.21-.47.47-.47h14.84c.26 0 .47.21.47.47S60.7 82.25 60.44 82.25zM56.98 79.64H45.61c-.26 0-.47-.21-.47-.47s.21-.47.47-.47h11.37c.26 0 .47.21.47.47S57.24 79.64 56.98 79.64z" class="color212121 svgShape"/><path fill="#37cfa6" d="M42.4,85.76v1.97c0,0.46-0.38,0.84-0.84,0.84H39.6c-0.46,0-0.84-0.38-0.84-0.84v-1.97         c0-0.46,0.38-0.84,0.84-0.84h1.97C42.03,84.92,42.4,85.29,42.4,85.76z" class="color37cfa6 svgShape"/><path fill="#212121" d="M60.44 89.03H45.61c-.26 0-.47-.21-.47-.47s.21-.47.47-.47h14.84c.26 0 .47.21.47.47S60.7 89.03 60.44 89.03zM56.98 86.42H45.61c-.26 0-.47-.21-.47-.47 0-.26.21-.47.47-.47h11.37c.26 0 .47.21.47.47C57.45 86.21 57.24 86.42 56.98 86.42z" class="color212121 svgShape"/><path fill="#37cfa6" d="M42.4,92.54v1.97c0,0.46-0.38,0.84-0.84,0.84H39.6c-0.46,0-0.84-0.38-0.84-0.84v-1.97         c0-0.46,0.38-0.84,0.84-0.84h1.97C42.03,91.7,42.4,92.08,42.4,92.54z" class="color37cfa6 svgShape"/><path fill="#212121" d="M52.7 95.81h-7.09c-.26 0-.47-.21-.47-.47s.21-.47.47-.47h7.09c.26 0 .47.21.47.47S52.96 95.81 52.7 95.81zM56.98 93.2H45.61c-.26 0-.47-.21-.47-.47 0-.26.21-.47.47-.47h11.37c.26 0 .47.21.47.47C57.45 92.99 57.24 93.2 56.98 93.2zM40.73 80.82c-.25 0-.51-.1-.7-.29l-.5-.5c-.18-.18-.18-.48 0-.66.18-.18.48-.18.66 0l.5.5c.02.02.05.02.07 0l1.77-1.77c.18-.18.48-.18.66 0 .18.18.18.48 0 .66l-1.77 1.77C41.24 80.73 40.99 80.82 40.73 80.82z" class="color212121 svgShape"/><g fill="#000000" class="color000 svgShape"><path fill="#212121" d="M40.73,87.38c-0.26,0-0.51-0.1-0.7-0.29l-0.5-0.5c-0.18-0.18-0.18-0.48,0-0.66        c0.18-0.18,0.48-0.18,0.66,0l0.5,0.5c0,0,0.04,0,0.06,0c0,0,0.01,0,0.01,0l1.77-1.77c0.18-0.18,0.48-0.18,0.66,0        c0.18,0.18,0.18,0.48,0,0.66l-1.77,1.77C41.25,87.28,41,87.38,40.73,87.38z" class="color212121 svgShape"/></g><g fill="#000000" class="color000 svgShape"><path fill="#212121" d="M40.73,94.2c-0.25,0-0.51-0.1-0.7-0.29l-0.5-0.5c-0.18-0.18-0.18-0.48,0-0.66c0.18-0.18,0.48-0.18,0.66,0        l0.5,0.5c0.02,0.02,0.05,0.02,0.07,0l1.77-1.77c0.18-0.18,0.48-0.18,0.66,0c0.18,0.18,0.18,0.48,0,0.66l-1.77,1.77        C41.24,94.1,40.99,94.2,40.73,94.2z" class="color212121 svgShape"/></g><g fill="#000000" class="color000 svgShape"><path fill="#212121" d="M95.25 72.33H81.46c-.26 0-.47-.21-.47-.47s.21-.47.47-.47h13.78c.26 0 .47.21.47.47S95.51 72.33 95.25 72.33zM99.2 75.23H77.51c-.26 0-.47-.21-.47-.47 0-.26.21-.47.47-.47H99.2c.26 0 .47.21.47.47C99.67 75.02 99.46 75.23 99.2 75.23z" class="color212121 svgShape"/><circle cx="96.74" cy="98.96" r="3.67" fill="#ff527c" class="colorff527c svgShape"/><path fill="#ffffff" d="M94.82,100.87c-0.09-0.01-0.15-0.05-0.2-0.11c-0.04-0.06-0.06-0.13-0.05-0.21         c0-0.03,0.02-0.07,0.05-0.12l2.05-3.58c0.04-0.06,0.09-0.12,0.16-0.16c0.07-0.04,0.15-0.06,0.24-0.05l0.06,0.01         c0.1,0.01,0.17,0.05,0.22,0.11c0.05,0.06,0.09,0.12,0.11,0.19l1.15,3.96c0.01,0.05,0.02,0.1,0.02,0.13         c-0.01,0.08-0.04,0.14-0.1,0.19c-0.06,0.05-0.13,0.07-0.22,0.06c-0.13-0.02-0.21-0.08-0.25-0.21l-0.29-1.03l-2.13-0.26         l-0.52,0.93C95.05,100.84,94.95,100.88,94.82,100.87z M95.92,99.3l1.69,0.2l-0.6-2.14L95.92,99.3z" class="colorfff svgShape"/><path fill="#37cfa6" d="M81.16,78.98v1.97c0,0.46-0.38,0.84-0.84,0.84h-1.97c-0.46,0-0.84-0.38-0.84-0.84v-1.97         c0-0.46,0.38-0.84,0.84-0.84h1.97C80.78,78.14,81.16,78.51,81.16,78.98z" class="color37cfa6 svgShape"/><path fill="#212121" d="M99.2 82.25H84.36c-.26 0-.47-.21-.47-.47s.21-.47.47-.47H99.2c.26 0 .47.21.47.47S99.46 82.25 99.2 82.25zM95.73 79.64H84.36c-.26 0-.47-.21-.47-.47s.21-.47.47-.47h11.37c.26 0 .47.21.47.47S95.99 79.64 95.73 79.64z" class="color212121 svgShape"/><path fill="#37cfa6" d="M81.16,85.76v1.97c0,0.46-0.38,0.84-0.84,0.84h-1.97c-0.46,0-0.84-0.38-0.84-0.84v-1.97         c0-0.46,0.38-0.84,0.84-0.84h1.97C80.78,84.92,81.16,85.29,81.16,85.76z" class="color37cfa6 svgShape"/><path fill="#212121" d="M99.2 89.03H84.36c-.26 0-.47-.21-.47-.47s.21-.47.47-.47H99.2c.26 0 .47.21.47.47S99.46 89.03 99.2 89.03zM95.73 86.42H84.36c-.26 0-.47-.21-.47-.47 0-.26.21-.47.47-.47h11.37c.26 0 .47.21.47.47C96.2 86.21 95.99 86.42 95.73 86.42z" class="color212121 svgShape"/><path fill="#37cfa6" d="M81.16,92.54v1.97c0,0.46-0.38,0.84-0.84,0.84h-1.97c-0.46,0-0.84-0.38-0.84-0.84v-1.97         c0-0.46,0.38-0.84,0.84-0.84h1.97C80.78,91.7,81.16,92.08,81.16,92.54z" class="color37cfa6 svgShape"/><path fill="#212121" d="M91.46 95.81h-7.09c-.26 0-.47-.21-.47-.47s.21-.47.47-.47h7.09c.26 0 .47.21.47.47S91.71 95.81 91.46 95.81zM95.73 93.2H84.36c-.26 0-.47-.21-.47-.47 0-.26.21-.47.47-.47h11.37c.26 0 .47.21.47.47C96.2 92.99 95.99 93.2 95.73 93.2z" class="color212121 svgShape"/><g fill="#000000" class="color000 svgShape"><path fill="#212121" d="M79.49,80.82c-0.25,0-0.51-0.1-0.7-0.29l-0.5-0.5c-0.18-0.18-0.18-0.48,0-0.66        c0.18-0.18,0.48-0.18,0.66,0l0.5,0.5c0.02,0.02,0.05,0.02,0.07,0l1.77-1.77c0.18-0.18,0.48-0.18,0.66,0        c0.18,0.18,0.18,0.48,0,0.66l-1.77,1.77C79.99,80.73,79.74,80.82,79.49,80.82z" class="color212121 svgShape"/></g><g fill="#000000" class="color000 svgShape"><path fill="#212121" d="M79.49,87.38c-0.26,0-0.51-0.1-0.7-0.29l-0.5-0.5c-0.18-0.18-0.18-0.48,0-0.66        c0.18-0.18,0.48-0.18,0.66,0l0.5,0.5c0,0,0.04,0,0.06,0c0,0,0.01,0,0.01,0l1.77-1.77c0.18-0.18,0.48-0.18,0.66,0        c0.18,0.18,0.18,0.48,0,0.66l-1.77,1.77C80,87.28,79.75,87.38,79.49,87.38z" class="color212121 svgShape"/></g></g><g fill="#000000" class="color000 svgShape"><path fill="#ffffff" d="M113.07,59.97V48.29c0-1.78-1.44-3.22-3.22-3.22H27.57c-1.78,0-3.22,1.44-3.22,3.22v11.68H113.07z" class="colorfff svgShape"/><path fill="#212121" d="M113.07,60.44H24.35c-0.26,0-0.47-0.21-0.47-0.47V48.29c0-2.04,1.66-3.69,3.69-3.69h82.28      c2.04,0,3.69,1.66,3.69,3.69v11.68C113.54,60.23,113.33,60.44,113.07,60.44z M24.82,59.5h87.78V48.29      c0-1.52-1.23-2.75-2.75-2.75H27.57c-1.52,0-2.75,1.23-2.75,2.75V59.5z" class="color212121 svgShape"/></g><g fill="#000000" class="color000 svgShape"><path fill="#ffffff" d="M173.58,200.03l-14.43,14.49h-20.43c7.2-15.69,6.66-29.63,6.24-34.02c8.1,2.05,17.24,0.7,22.85-3.39        l3.58-2L173.58,200.03z" class="colorfff svgShape"/><path fill="#37cfa6" d="M171.39,175.12l-3.58,2c-5.61,4.09-14.75,5.44-22.85,3.39c-0.17-1.78-0.25-3.57-0.26-5.35        c-0.03-8.47,0.84-28.45,9.12-37.53l7.24-5.16l7.98,15.89L171.39,175.12z" class="color37cfa6 svgShape"/><path fill="#212121" d="M159.15,215h-20.43c-0.16,0-0.31-0.08-0.4-0.22c-0.09-0.13-0.1-0.3-0.03-0.45        c7.24-15.76,6.57-29.84,6.19-33.78c-0.16-1.74-0.25-3.56-0.26-5.4c-0.03-8.3,0.81-28.6,9.24-37.85        c0.02-0.02,0.05-0.05,0.07-0.07l7.24-5.16c0.11-0.08,0.25-0.11,0.39-0.07c0.13,0.03,0.24,0.12,0.31,0.25l7.98,15.89        c0.03,0.05,0.04,0.11,0.05,0.17l4.55,51.68c0.01,0.14-0.04,0.27-0.14,0.37l-14.43,14.49C159.39,214.95,159.27,215,159.15,215z         M139.45,214.06h19.51l14.14-14.2l-4.52-51.37l-7.69-15.32l-6.75,4.81c-8.17,9.02-8.99,29-8.96,37.18        c0.01,1.81,0.09,3.6,0.25,5.31C145.8,184.41,146.46,198.35,139.45,214.06z" class="color212121 svgShape"/><path fill="#212121" d="M152.43,181.99c-2.81,0-5.47-0.35-7.62-1.04c-0.25-0.08-0.38-0.34-0.31-0.59        c0.08-0.25,0.34-0.38,0.59-0.3c6.21,1.98,17.12,0.99,22.41-3.31c0.2-0.16,0.5-0.13,0.66,0.07c0.16,0.2,0.13,0.5-0.07,0.66        C164.31,180.56,158.07,181.99,152.43,181.99z" class="color212121 svgShape"/><path fill="#ffffff" d="M187.76,123.34v-15.5c-1.6-9.63-7.15-4.63-13.19,2.2l-2.72,7.29c0,0,0.82,6.76-1.92,10.65           C175.36,125.54,181.29,123.96,187.76,123.34z" class="colorfff svgShape"/><path fill="#212121" d="M169.92,128.45c-0.14,0-0.27-0.06-0.36-0.17c-0.13-0.16-0.14-0.4-0.02-0.57           c2.6-3.69,1.85-10.26,1.84-10.32c-0.01-0.07,0-0.15,0.03-0.22l2.72-7.29c0.02-0.05,0.05-0.1,0.09-0.15           c4.53-5.12,8.1-8.36,10.78-7.6c1.62,0.46,2.67,2.31,3.22,5.63c0,0.03,0.01,0.05,0.01,0.08v15.5c0,0.24-0.18,0.44-0.43,0.47           c-6.27,0.6-12.22,2.15-17.69,4.6C170.05,128.44,169.99,128.45,169.92,128.45z M172.33,117.39           c0.09,0.85,0.52,5.86-1.28,9.59c5.07-2.12,10.52-3.48,16.24-4.07v-15.03c-0.48-2.87-1.34-4.5-2.55-4.84           c-2.33-0.67-6.24,3.28-9.76,7.25L172.33,117.39z M187.76,123.34L187.76,123.34L187.76,123.34z" class="color212121 svgShape"/><path fill="#ffffff" d="M181.8,111.81c-6.04,5.31-9.53,6.1-13.1,6.44c-2.56,0.24-9.15,0.45-9.15-5.25            c0-5.7,2.77-7.4,2.77-7.4c-0.79,0.68-4.6,2.2-4.43-1.16c0.09-1.74,1.07-3.17,2.01-4.14c1.11-1.15,1.84-2.61,2.12-4.18            c1.58-8.72,3.68-8.51,3.97-8.99c6.51,0.32,15.16-2.22,18.46,2.84c2.23,3.42,0.63,9.57-0.44,14.9" class="colorfff svgShape"/><path fill="#212121" d="M166.79,118.82c-2.17,0-4.54-0.39-6.09-1.8c-1.08-0.98-1.62-2.33-1.62-4.02c0-2.97,0.73-4.9,1.46-6.1            c-0.69,0.16-1.43,0.18-2.03-0.12c-0.54-0.27-1.17-0.89-1.1-2.36c0.1-1.93,1.22-3.48,2.14-4.44c1.04-1.09,1.73-2.45,2-3.94            c1.35-7.49,3.14-8.61,3.9-9.08c0.06-0.04,0.12-0.07,0.15-0.1c0.09-0.15,0.23-0.2,0.4-0.2c1.78,0.09,3.76-0.05,5.68-0.18            c5.23-0.36,10.63-0.73,13.16,3.23c1.53,2.4,0.38,5.26-0.83,8.29c-0.67,1.66-1.36,3.38-1.72,5.2            c-0.05,0.25-0.3,0.42-0.55,0.37c-0.25-0.05-0.42-0.3-0.37-0.55c0.38-1.91,1.09-3.67,1.77-5.37            c1.17-2.92,2.19-5.44,0.91-7.43c-2.23-3.49-7.12-3.15-12.3-2.8c-1.87,0.13-3.8,0.26-5.58,0.19            c-0.07,0.05-0.14,0.1-0.22,0.14c-0.6,0.38-2.19,1.37-3.47,8.45c-0.3,1.67-1.08,3.2-2.25,4.42            c-0.81,0.85-1.79,2.2-1.88,3.84c-0.06,1.16,0.42,1.39,0.57,1.47c0.8,0.39,2.26-0.14,2.9-0.56            c0.14-0.11,0.23-0.17,0.25-0.18c0.21-0.13,0.48-0.07,0.63,0.12c0.14,0.2,0.11,0.47-0.07,0.63            c-0.05,0.05-0.12,0.1-0.2,0.15c-0.53,0.44-2.4,2.3-2.4,6.89c0,1.41,0.44,2.53,1.31,3.33c1.78,1.61,4.96,1.68,7.32,1.46            c3.46-0.33,6.81-1.03,12.83-6.32c0.19-0.17,0.49-0.15,0.66,0.04c0.17,0.2,0.15,0.49-0.04,0.66            c-6.22,5.47-9.87,6.22-13.36,6.55C168.14,118.78,167.47,118.82,166.79,118.82z" class="color212121 svgShape"/><path fill="#212121" d="M157.8,84.66c0.78,1.02,1.75,1.9,2.85,2.58c1.64,1.01,3.81,0.73,5.68,0.68           c1.44-0.04,2.9-0.04,4.27,0.39c1.37,0.43,2.65,1.37,3.15,2.72c0.7,1.88-0.24,4.1,0.58,5.93c0.4,0.89,1.17,1.58,1.51,2.5           c0.37,1,0.58,2.7,1.02,3.67c0.85-1.53,1.77-1.34,2.78-1.12s1.31,2.43,2.34,2.33c-0.71,2.26,0.06,2.95-2.02,4.79           c-0.07,1.07,0.11,2.73,0.29,4.28c0.11,0.92,0.31,1.92,1.03,2.5c0.85,0.68,2.07,0.53,3.15,0.34           c0.83-0.15,2.38-0.31,3.05-0.81c1.19-0.89,1.45-2.53,1.78-3.97c0.94-4.13,3.14-5.21,5.11-8.96           c2.97-5.67,5.22-11.93,2.54-18.15c-0.87-2.02-2.91-2.48-4.05-1.74c0.69-1.72,0.25-3.78-1.04-4.84           c-1.29-1.06-2.96-1.58-4.62-1.77c-1.67-0.18-3.28,0.11-4.94,0.09c-1.32-0.01-2.7-0.22-4.02-0.37           c-2.79-0.32-5.61-0.87-8.1-2.25c-1.26-0.7-2.43-1.56-3.69-2.26c-1.26-0.7-2.67-1.23-4.11-1.19c-1.53,0.04-3,0.75-4.09,1.81           c-1.09,1.07-1.82,2.47-2.21,3.95c-0.63,2.4-0.36,5.03,0.75,7.25C157.07,83.6,157.41,84.15,157.8,84.66z" class="color212121 svgShape"/><path fill="#212121" d="M182.94,116.88c-0.7,0-1.39-0.14-1.96-0.6c-0.85-0.68-1.08-1.81-1.2-2.81           c-0.19-1.6-0.36-3.26-0.29-4.36c0.01-0.12,0.06-0.24,0.16-0.32c1.28-1.13,1.36-1.73,1.49-2.72           c0.05-0.4,0.11-0.84,0.25-1.37c-0.47-0.24-0.78-0.78-1.05-1.24c-0.25-0.43-0.53-0.91-0.8-0.97           c-0.99-0.21-1.59-0.34-2.27,0.89c-0.09,0.15-0.24,0.25-0.43,0.24c-0.18-0.01-0.33-0.11-0.41-0.27           c-0.27-0.59-0.45-1.39-0.63-2.16c-0.13-0.58-0.26-1.13-0.41-1.54c-0.16-0.43-0.44-0.82-0.73-1.23           c-0.27-0.38-0.56-0.78-0.76-1.24c-0.47-1.05-0.42-2.18-0.37-3.27c0.04-0.96,0.08-1.88-0.22-2.69           c-0.4-1.09-1.47-2-2.85-2.43c-1.29-0.41-2.69-0.4-4.12-0.36c-0.27,0.01-0.54,0.02-0.82,0.03c-1.69,0.07-3.6,0.16-5.13-0.78           c-1.15-0.71-2.15-1.62-2.97-2.7l0,0c-0.41-0.54-0.77-1.11-1.07-1.71c-1.15-2.32-1.44-5.08-0.78-7.58           c0.43-1.66,1.24-3.1,2.34-4.17c1.22-1.19,2.83-1.9,4.41-1.95c1.32-0.04,2.76,0.37,4.35,1.25c0.65,0.36,1.28,0.76,1.88,1.15           c0.59,0.38,1.2,0.77,1.81,1.11c2.6,1.44,5.6,1.93,7.92,2.19c0.29,0.03,0.58,0.07,0.87,0.1c1.03,0.13,2.09,0.26,3.1,0.27           c0.62,0.01,1.28-0.03,1.91-0.07c1-0.06,2.03-0.13,3.08-0.01c1.95,0.21,3.63,0.86,4.87,1.87c1.22,1,1.77,2.76,1.45,4.44           c0.44-0.07,0.92-0.04,1.39,0.1c1.05,0.32,1.89,1.1,2.37,2.22c2.85,6.6,0.31,13.08-2.55,18.55           c-0.78,1.49-1.61,2.59-2.35,3.55c-1.16,1.53-2.17,2.86-2.72,5.29l-0.09,0.41c-0.3,1.37-0.64,2.93-1.86,3.84           c-0.65,0.49-1.83,0.67-2.78,0.82c-0.17,0.03-0.33,0.05-0.47,0.08C184,116.79,183.46,116.88,182.94,116.88z M180.42,109.34           c-0.04,1.03,0.13,2.54,0.3,4.01c0.1,0.86,0.27,1.72,0.86,2.19c0.69,0.55,1.79,0.41,2.77,0.24           c0.15-0.03,0.31-0.05,0.49-0.08c0.75-0.12,1.9-0.3,2.36-0.65c0.94-0.7,1.23-2.02,1.51-3.29l0.09-0.41           c0.6-2.63,1.71-4.1,2.88-5.65c0.75-0.99,1.52-2,2.26-3.42c2.76-5.27,5.21-11.5,2.52-17.74c-0.5-1.15-1.33-1.56-1.78-1.69           c-0.57-0.17-1.16-0.11-1.58,0.16c-0.17,0.11-0.4,0.1-0.55-0.03c-0.16-0.13-0.21-0.35-0.14-0.54           c0.61-1.53,0.22-3.38-0.9-4.31c-1.09-0.89-2.61-1.47-4.37-1.66c-0.97-0.11-1.92-0.05-2.92,0.02           c-0.64,0.04-1.31,0.08-1.98,0.08c-1.06-0.01-2.15-0.14-3.2-0.27c-0.29-0.04-0.58-0.07-0.86-0.1           c-2.41-0.28-5.53-0.79-8.27-2.3c-0.64-0.36-1.26-0.75-1.86-1.14c-0.59-0.38-1.21-0.78-1.83-1.12           c-1.44-0.8-2.72-1.16-3.87-1.13c-1.34,0.04-2.72,0.65-3.78,1.68c-0.97,0.95-1.69,2.24-2.08,3.73           c-0.6,2.29-0.34,4.81,0.72,6.92c0.27,0.54,0.6,1.07,0.97,1.56l0,0c0.75,0.99,1.67,1.82,2.72,2.47           c1.28,0.79,2.96,0.71,4.59,0.64c0.28-0.01,0.56-0.02,0.83-0.03c1.52-0.04,3-0.04,4.43,0.41c1.66,0.52,2.95,1.64,3.45,3           c0.37,1,0.32,2.05,0.28,3.06c-0.05,1.03-0.09,2,0.29,2.84c0.17,0.37,0.41,0.71,0.67,1.07c0.32,0.44,0.65,0.9,0.85,1.45           c0.17,0.47,0.3,1.05,0.44,1.66c0.09,0.4,0.18,0.8,0.28,1.16c0.9-0.96,1.9-0.75,2.74-0.57c0.68,0.15,1.07,0.82,1.42,1.42           c0.25,0.43,0.55,0.92,0.77,0.9c0.16-0.01,0.31,0.05,0.41,0.17c0.1,0.12,0.13,0.29,0.08,0.44c-0.22,0.69-0.29,1.23-0.35,1.7           C181.93,107.22,181.82,108.05,180.42,109.34z" class="color212121 svgShape"/><path fill="#ffffff" d="M179.96,109.12c3.29-1.31,5.73-4.53,6.11-8.05c0.11-1.05,0.02-2.2-0.66-3           c-0.53-0.61-1.34-0.93-2.15-0.96s-1.61,0.22-2.33,0.58c-2.11,1.04-3.66,3.12-4.07,5.44" class="colorfff svgShape"/><path fill="#212121" d="M179.96 109.59c-.19 0-.36-.11-.44-.3-.1-.24.02-.51.26-.61 3.12-1.24 5.46-4.32 5.82-7.66.13-1.18-.06-2.07-.55-2.65-.41-.47-1.08-.77-1.81-.79-.65-.02-1.36.16-2.11.53-1.97.98-3.43 2.93-3.82 5.1-.04.26-.29.43-.54.38-.26-.04-.43-.29-.38-.54.43-2.46 2.09-4.67 4.32-5.78.89-.44 1.75-.65 2.55-.62 1 .03 1.91.44 2.49 1.12.67.78.93 1.91.77 3.36-.4 3.68-2.97 7.07-6.41 8.44C180.07 109.58 180.02 109.59 179.96 109.59zM163.92 110.42c-.19 0-.37-.12-.44-.31-.09-.24.03-.51.28-.6 1.53-.56 2.74-1.89 3.17-3.46.07-.25.33-.4.58-.33.25.07.4.33.33.58-.51 1.85-1.95 3.42-3.75 4.09C164.03 110.41 163.97 110.42 163.92 110.42zM171.08 98.6c-.18 0-.35-.1-.43-.28-.82-1.8-2.7-3.07-4.68-3.16-.26-.01-.46-.23-.45-.49.01-.26.24-.46.49-.45 2.32.1 4.53 1.59 5.5 3.71.11.24 0 .51-.23.62C171.21 98.59 171.14 98.6 171.08 98.6z" class="color212121 svgShape"/><ellipse cx="167.28" cy="98.85" fill="#212121" rx=".7" ry=".85" transform="rotate(-68.278 167.286 98.85)" class="color212121 svgShape"/><path fill="#212121" d="M167.38 100.04c-.18 0-.36-.03-.54-.1-.31-.12-.57-.34-.72-.62-.17-.3-.19-.65-.07-.95.24-.6.98-.87 1.66-.6.67.27 1.03.97.79 1.57 0 0 0 0 0 0C168.33 99.78 167.88 100.04 167.38 100.04zM168.06 99.17L168.06 99.17 168.06 99.17zM167.17 98.6c-.12 0-.22.05-.24.11-.02.05.01.12.02.15.05.09.14.16.24.2.2.08.4.03.44-.07.04-.1-.07-.27-.27-.35C167.3 98.61 167.23 98.6 167.17 98.6zM180.86 105.62c-.05 0-.1 0-.14 0-.44-.03-.86-.16-1.23-.29-.25-.08-.38-.35-.3-.59.08-.25.35-.38.59-.3.33.11.67.22.99.24.29.02.53-.05.67-.19.1-.1.16-.3.08-.44-.07-.1-.2-.19-.37-.3-.16-.11-.35-.22-.51-.4-.33-.36-.48-.87-.42-1.42.03-.28.22-1.22 1.26-1.68.24-.1.51 0 .62.24.1.24 0 .51-.24.62-.57.25-.68.73-.7.93-.03.27.04.52.18.67.08.08.2.16.33.25.22.14.48.31.65.59.31.49.21 1.18-.22 1.61C181.8 105.46 181.36 105.62 180.86 105.62zM198.56 125.35c0 0-5.79 1.96-5.94-1.18s1.76-3.28 1.76-3.28h1.61l.83.93L198.56 125.35z" class="color212121 svgShape"/><path fill="#212121" d="M195.19 126.43c-.79 0-1.56-.13-2.13-.52-.56-.38-.87-.97-.91-1.72-.17-3.56 2.17-3.76 2.19-3.77l1.64 0c.13 0 .26.06.35.16l.83.93c.03.03.05.07.07.11l1.74 3.53c.06.12.06.26.01.39-.05.13-.16.22-.28.26C198.45 125.89 196.78 126.43 195.19 126.43zM194.38 121.37c-.02 0-1.41.17-1.29 2.78.02.45.18.77.5.98.97.66 3.11.26 4.31-.07l-1.47-2.98-.65-.72H194.38zM162.68 132.59c0 0-5.39 8.68-6.77 5.22-1.39-3.47.28-5 .28-5l2.82-2.02L162.68 132.59z" class="color212121 svgShape"/><path fill="#212121" d="M156.87,139.09c-0.04,0-0.08,0-0.12,0c-0.4-0.04-0.95-0.26-1.29-1.11c-1.5-3.72,0.33-5.45,0.4-5.52          c0.01-0.01,0.03-0.02,0.04-0.04l2.83-2.02c0.14-0.1,0.32-0.12,0.48-0.04l3.66,1.79c0.12,0.06,0.21,0.16,0.24,0.29          c0.04,0.13,0.02,0.26-0.05,0.38C162.42,133.9,159.08,139.09,156.87,139.09z M156.49,133.17c-0.15,0.16-1.34,1.51-0.15,4.46          c0.2,0.49,0.42,0.51,0.5,0.52c0.02,0,0.04,0,0.06,0c1.15,0,3.56-2.99,5.11-5.37l-2.94-1.44L156.49,133.17z" class="color212121 svgShape"/><path fill="#37cfa6" d="M164.22,147.47c6.16,22.45,4.53,44.8-5.07,67.06h55.76l2.51-63.65c0,0,0.2-28.2-17.56-28.2           s-35.38,3.26-46.04,14.95L164.22,147.47z" class="color37cfa6 svgShape"/><path fill="#ffffff" d="M177.18,194.11c-3.64,0.26-7.43-0.09-11.29-0.79c0.39-1.94,0.73-3.84,0.99-5.7           c3.13,0.65,6.43,0.9,9.93,0.67L177.18,194.11z" class="colorfff svgShape"/><path fill="#212121" d="M174.71,194.66c-2.71,0-5.65-0.29-8.9-0.88c-0.12-0.02-0.23-0.09-0.31-0.2           c-0.07-0.1-0.1-0.23-0.07-0.36c0.41-2.04,0.74-3.89,0.99-5.67c0.02-0.13,0.09-0.24,0.2-0.32c0.11-0.07,0.24-0.1,0.37-0.08           c3.16,0.66,6.46,0.88,9.81,0.67c0.12-0.01,0.25,0.03,0.34,0.12c0.09,0.08,0.15,0.2,0.16,0.32l0.37,5.81           c0.02,0.26-0.18,0.48-0.44,0.5C176.39,194.63,175.56,194.66,174.71,194.66z M166.44,192.94c3.81,0.66,7.17,0.9,10.24,0.73           l-0.31-4.88c-3.1,0.16-6.16-0.04-9.1-0.61C167.05,189.69,166.77,191.26,166.44,192.94z" class="color212121 svgShape"/><path fill="#212121" d="M214.91,215h-55.76c-0.16,0-0.31-0.08-0.39-0.21c-0.09-0.13-0.1-0.3-0.04-0.44           c9.48-21.96,11.18-44.42,5.05-66.75c-0.07-0.25,0.08-0.51,0.33-0.58c0.25-0.07,0.51,0.08,0.58,0.33           c6.12,22.32,4.5,44.76-4.81,66.71h54.6l2.49-63.2c0-0.15,0.02-16.19-7.51-23.77c-2.59-2.61-5.82-3.94-9.59-3.94           c-21.67,0-36.62,4.84-45.69,14.8c-0.17,0.19-0.47,0.21-0.66,0.03c-0.19-0.17-0.21-0.47-0.03-0.66           c9.26-10.16,24.44-15.1,46.38-15.1c4.03,0,7.48,1.42,10.26,4.22c7.8,7.86,7.78,23.78,7.78,24.46l-2.51,63.67           C215.37,214.8,215.16,215,214.91,215z" class="color212121 svgShape"/><path fill="#ffffff" d="M192.82,144.36l-7.2,5.11c-7.65-9.54-27.04-18.36-29.43-16.65l4.38-3.13c1.52-1.09,3.45-1.47,5.25-0.99          C176.7,131.59,185.47,137.11,192.82,144.36z" class="colorfff svgShape"/><path fill="#212121" d="M185.62,149.94c-0.14,0-0.27-0.06-0.37-0.18c-7.61-9.49-26.84-17.97-28.79-16.57          c-0.21,0.15-0.5,0.1-0.66-0.11c-0.15-0.21-0.1-0.5,0.11-0.66l0,0c0,0,0,0,0,0l4.38-3.13c1.66-1.19,3.71-1.57,5.65-1.06          c10.34,2.75,19.24,7.92,27.22,15.78c0.1,0.1,0.15,0.23,0.14,0.37c-0.01,0.14-0.08,0.26-0.2,0.35l-7.2,5.11          C185.81,149.91,185.71,149.94,185.62,149.94z M157.85,132.2c5.82,0.68,21.25,8.71,27.86,16.63l6.39-4.53          c-7.75-7.53-16.39-12.49-26.4-15.15c-1.66-0.44-3.43-0.11-4.86,0.91L157.85,132.2z" class="color212121 svgShape"/><path fill="#ffffff" d="M194.38,120.9c2.96,0.11,1.32,13.47,1.18,23.46l9.92-1.04c0.72-6.03,1.22-13.01,0.34-17.99          c-0.44-2.47-2.56-4.27-5.06-4.4C198.73,120.82,196.59,120.82,194.38,120.9z" class="colorfff svgShape"/><path fill="#212121" d="M195.56,144.83c-0.12,0-0.23-0.04-0.32-0.12c-0.1-0.09-0.15-0.22-0.15-0.35          c0.03-2.53,0.17-5.29,0.29-7.96c0.31-6.6,0.64-13.42-0.66-14.83c-0.15-0.16-0.28-0.19-0.37-0.19          c-0.25-0.01-0.45-0.22-0.45-0.47c0-0.25,0.2-0.46,0.45-0.47c2.35-0.08,4.45-0.07,6.42,0.03c2.76,0.14,5.02,2.11,5.5,4.78          c0.73,4.14,0.62,10.07-0.33,18.13c-0.03,0.22-0.2,0.39-0.42,0.41l-9.92,1.04C195.6,144.83,195.58,144.83,195.56,144.83z           M195.71,121.33c1.23,2.16,0.94,8.19,0.61,15.1c-0.12,2.48-0.24,5.03-0.28,7.4l9.02-0.95c0.9-7.78,1-13.5,0.3-17.48          c-0.4-2.24-2.3-3.89-4.62-4.01C199.17,121.32,197.52,121.29,195.71,121.33z" class="color212121 svgShape"/><g fill="#000000" class="color000 svgShape"><path fill="#ffffff" d="M225.65,176.69v10.03c0,12.97-10.51,23.48-23.49,23.48h-7.05c-8.89,0-16.1-7.21-16.1-16.1v-28.93           c0-3.04,0.45-6.06,1.33-8.96c0.7-2.31,1.57-4.83,2.34-5.95c4.12-6.13,20.28-11.43,28.64-7.33c0.25,0.12,0.48,0.25,0.71,0.4           c8.04,5.02,8.39,24.47,8.39,24.47c0.65,0.4,1.25,0.83,1.77,1.28C224.43,170.95,225.65,173.77,225.65,176.69z" class="colorfff svgShape"/><path fill="#212121" d="M202.17,210.67h-7.05c-9.14,0-16.57-7.43-16.57-16.57v-28.93c0-3.08,0.46-6.14,1.35-9.1           c0.93-3.06,1.73-5.1,2.4-6.08c4.36-6.48,20.8-11.63,29.24-7.49c0.26,0.12,0.51,0.26,0.76,0.43           c7.75,4.84,8.53,22.18,8.6,24.6c0.59,0.38,1.14,0.78,1.61,1.19c2.29,1.93,3.61,4.84,3.61,7.97v10.03           C226.12,199.92,215.38,210.67,202.17,210.67z M204.11,141.96c-8.07,0-17.95,3.96-21.03,8.54c-0.6,0.89-1.39,2.9-2.28,5.83           c-0.87,2.87-1.31,5.84-1.31,8.83v28.93c0,8.62,7.01,15.63,15.63,15.63h7.05c12.69,0,23.02-10.32,23.02-23.01v-10.03           c0-2.85-1.2-5.5-3.28-7.26c-0.5-0.43-1.08-0.85-1.72-1.24c-0.14-0.08-0.22-0.23-0.22-0.39c0-0.19-0.44-19.25-8.17-24.08           c-0.23-0.15-0.44-0.27-0.67-0.38C209.18,142.38,206.74,141.96,204.11,141.96z" class="color212121 svgShape"/><path fill="#212121" d="M195.12,210.67c-0.17,0-0.34-0.1-0.42-0.26c-0.03-0.05-2.72-5.57-4.35-12.31           c-1.21-5.04-1.53-9.47-0.97-13.15c0.28-1.86,0.8-3.56,1.54-5.05c5.39-10.78,28.5-12.51,29.48-12.58           c0.26-0.02,0.48,0.18,0.5,0.44c0.02,0.26-0.18,0.48-0.44,0.5c-0.24,0.02-23.55,1.76-28.7,12.07c-0.7,1.4-1.19,3-1.45,4.77           c-0.55,3.56-0.23,7.86,0.95,12.79c1.6,6.63,4.25,12.06,4.28,12.11c0.11,0.23,0.02,0.51-0.21,0.63           C195.26,210.65,195.19,210.67,195.12,210.67z" class="color212121 svgShape"/><path fill="#212121" d="M199.78,210.67c-0.19,0-0.37-0.11-0.44-0.3c-4.56-11.78-5.37-20.65-2.42-26.36           c4.36-8.43,17.43-11.28,28.44-10.37c0.26,0.02,0.45,0.25,0.43,0.51c-0.02,0.26-0.25,0.45-0.51,0.43           c-10.36-0.86-23.39,1.86-27.53,9.86c-2.82,5.46-1.99,14.07,2.46,25.59c0.09,0.24-0.03,0.51-0.27,0.61           C199.9,210.66,199.84,210.67,199.78,210.67z" class="color212121 svgShape"/><path fill="#ffffff" d="M190.81,197.98c-0.88,0.99-2.9,2.05-7.46,2.05c-8.44,0-6.36-13.67-6.36-13.67l12.85-1.34            C189.2,189.2,189.81,193.84,190.81,197.98z" class="colorfff svgShape"/><path fill="#212121" d="M183.35,200.51c-1.95,0-3.54-0.69-4.71-2.06c-3.33-3.87-2.16-11.82-2.11-12.16            c0.03-0.21,0.2-0.37,0.42-0.4l12.85-1.34c0.15-0.02,0.29,0.04,0.39,0.14s0.15,0.25,0.12,0.4            c-0.55,3.56-0.23,7.86,0.95,12.78c0.04,0.15,0,0.31-0.11,0.42C189.85,199.76,187.22,200.51,183.35,200.51z M177.41,186.79            c-0.18,1.58-0.73,7.94,1.94,11.05c0.99,1.15,2.33,1.73,4,1.73c4.18,0,6.08-0.9,6.94-1.73c-1.1-4.67-1.43-8.8-0.99-12.29            L177.41,186.79z" class="color212121 svgShape"/><path fill="#212121" d="M189.85,185c-0.08,0.71-0.14,1.57-0.7,1.92c-0.5,0.32-1.16,0.32-1.77,0.31            c-2.39-0.02-4.77-0.04-7.14-0.07c-0.98-0.01-2.02-0.03-2.83-0.51c-0.92-0.54-1.33-1.55-1.32-2.5            c0.01-0.68,0.16-2.23,0.78-2.73c0.62-0.5,2.31-0.02,3.09,0.05c2.54,0.25,5.07,0.49,7.61,0.74            c0.71,0.07,1.49,0.17,1.98,0.62C190.14,183.39,189.92,184.25,189.85,185z" class="color212121 svgShape"/><path fill="#212121" d="M187.62 187.71c-.08 0-.17 0-.25 0-2.39-.02-4.77-.04-7.14-.07-1.16-.01-2.19-.05-3.07-.57-.97-.57-1.57-1.69-1.55-2.92 0-.24.05-2.35.95-3.08.64-.52 1.83-.31 2.79-.15.25.04.47.08.64.1l7.61.74c.69.07 1.63.17 2.25.74.7.64.59 1.53.5 2.25-.01.1-.03.2-.04.3 0 0 0 0 0 0l-.01.12c-.08.75-.18 1.69-.9 2.14C188.86 187.67 188.19 187.71 187.62 187.71zM177.74 181.68c-.26 0-.48.03-.59.12-.36.3-.59 1.44-.6 2.37-.01.91.39 1.69 1.09 2.09.68.4 1.58.44 2.6.44 2.38.02 4.76.05 7.15.07.5 0 1.12.01 1.52-.24.34-.22.41-.87.47-1.45l.01-.13c.01-.11.02-.21.04-.32.09-.7.12-1.15-.2-1.44-.39-.36-1.13-.44-1.71-.5l-7.6-.74c-.19-.02-.44-.06-.71-.11C178.8 181.78 178.2 181.68 177.74 181.68zM189.85 185L189.85 185 189.85 185zM214.55 164.07c0 3.49-22.57 9.47-22.57 5.8-1.67-9.06-3.71-15.37-9.29-19.63C186.81 144.11 215.45 156.18 214.55 164.07z" class="color212121 svgShape"/><path fill="#212121" d="M194.79,171.49c-0.94,0-1.69-0.1-2.22-0.3c-0.89-0.34-1.05-0.92-1.07-1.27           c-1.69-9.11-3.72-15.19-9.11-19.3c-0.2-0.15-0.24-0.43-0.1-0.64c2.13-3.17,9.57-1.84,15.82,0.46           c8.79,3.24,17.41,8.97,16.9,13.65C214.93,167.47,200.49,171.49,194.79,171.49z M183.35,150.17           c5.35,4.29,7.4,10.47,9.09,19.61c0.01,0.03,0.01,0.06,0.01,0.09c0,0.07,0,0.26,0.46,0.44c0.41,0.16,1.06,0.24,1.88,0.24           c6.31,0,19.28-4.36,19.28-6.48c0-0.02,0-0.04,0-0.05c0.46-4.01-7.92-9.6-16.29-12.69           C190.87,148.77,185.2,148.34,183.35,150.17z" class="color212121 svgShape"/><path fill="#ffffff" d="M214.55,164.07c0,3.49-21.2,8.66-21.2,4.99c-1.67-9.06-5.08-14.56-10.66-18.82           c4.12-6.13,20.28-11.43,28.64-7.33c0.25,0.12,0.48,0.25,0.71,0.4C214.66,150.08,215.45,156.18,214.55,164.07z" class="colorfff svgShape"/><path fill="#212121" d="M196.48,170.79c-1.04,0-1.86-0.11-2.44-0.33c-0.93-0.35-1.15-0.92-1.17-1.36           c-1.59-8.57-4.72-14.1-10.47-18.49c-0.2-0.15-0.24-0.43-0.1-0.64c4.36-6.48,20.8-11.63,29.24-7.49           c0.26,0.12,0.51,0.26,0.76,0.43c0.08,0.05,0.15,0.13,0.18,0.22c2.67,6.9,3.43,13.16,2.53,20.95           C214.94,167.29,201.99,170.79,196.48,170.79z M183.33,150.15c5.73,4.5,8.87,10.16,10.47,18.83           c0.01,0.03,0.01,0.06,0.01,0.09c0,0.09,0,0.32,0.55,0.52c0.48,0.18,1.19,0.27,2.11,0.27c6.25,0,17.6-3.73,17.6-5.78           c0-0.02,0-0.04,0-0.05c0.88-7.68,0.18-13.6-2.42-20.38c-0.18-0.11-0.35-0.21-0.53-0.29           C203.35,139.52,187.79,144.24,183.33,150.15z" class="color212121 svgShape"/><g fill="#000000" class="color000 svgShape"><path fill="#212121" d="M210.24,171.43l-5.38,1.83c-0.42,0.14-0.86-0.17-0.86-0.62c0-1.94-0.35-3.58-1-4.97           c-0.16-0.35,0.02-0.76,0.38-0.88l5.45-1.85c0.3-0.1,0.65,0.02,0.79,0.31c0.76,1.53,1.13,3.37,1.07,5.59           C210.68,171.1,210.5,171.34,210.24,171.43z" class="color212121 svgShape"/><path fill="#212121" d="M204.66,173.76c-0.23,0-0.46-0.07-0.65-0.21c-0.29-0.21-0.47-0.55-0.47-0.91           c0-1.81-0.32-3.42-0.96-4.77c-0.13-0.28-0.14-0.61-0.02-0.9c0.13-0.29,0.37-0.52,0.67-0.63l5.45-1.85           c0.53-0.18,1.12,0.05,1.36,0.55c0.81,1.63,1.18,3.59,1.12,5.81c-0.01,0.46-0.32,0.88-0.76,1.03l-5.38,1.83           C204.9,173.74,204.78,173.76,204.66,173.76z M209.05,165.37c-0.02,0-0.04,0-0.06,0.01l-5.45,1.85           c-0.07,0.02-0.1,0.07-0.11,0.1c-0.01,0.03-0.02,0.08,0,0.13c0.69,1.48,1.05,3.22,1.05,5.17c0,0.08,0.05,0.13,0.08,0.15           c0.03,0.02,0.09,0.05,0.16,0.02l5.38-1.83l0,0c0.07-0.02,0.12-0.09,0.13-0.17c0.06-2.07-0.28-3.87-1.02-5.37           C209.17,165.4,209.11,165.37,209.05,165.37z" class="color212121 svgShape"/></g><g fill="#000000" class="color000 svgShape"><path fill="#212121" d="M194.01 154.94c4.87-1.78 10.1-3.17 15.77-4.07M194.01 155.41c-.19 0-.37-.12-.44-.31-.09-.24.04-.51.28-.6 5.06-1.85 10.4-3.23 15.85-4.09.25-.04.5.13.54.39.04.26-.13.5-.39.54-5.4.86-10.67 2.22-15.68 4.05C194.12 155.4 194.06 155.41 194.01 155.41zM207.7 151.23c.11.49.15.88.17 1.22" class="color212121 svgShape"/><path fill="#212121" d="M207.87,152.92c-0.25,0-0.46-0.2-0.47-0.45c-0.01-0.35-0.07-0.72-0.16-1.14            c-0.06-0.25,0.1-0.5,0.36-0.56s0.5,0.1,0.56,0.36c0.1,0.47,0.16,0.9,0.18,1.31c0.01,0.26-0.19,0.48-0.45,0.49            C207.88,152.92,207.87,152.92,207.87,152.92z" class="color212121 svgShape"/></g></g><g fill="#000000" class="color000 svgShape"><path fill="#212121" d="M107.94,112.79c0.41,1.92,0.21,3.98-0.58,5.78c-0.68,1.56-1.78,2.91-2.49,4.46          c-0.72,1.55-1,3.47-0.05,4.89c1.01,1.52,3.05,1.94,4.87,2.05c1.66,0.1,3.35,0.04,4.94-0.42s3.1-1.35,4.08-2.7          c1.29-1.76,1.53-4.13,1.06-6.26c-0.47-2.13-1.58-4.06-2.82-5.86" class="color212121 svgShape"/><path fill="#212121" d="M111,130.48c-0.43,0-0.87-0.01-1.34-0.04c-2.62-0.15-4.33-0.89-5.24-2.25          c-1.31-1.96-0.42-4.4,0.02-5.35c0.36-0.77,0.8-1.49,1.23-2.19c0.47-0.76,0.91-1.48,1.26-2.26c0.75-1.71,0.95-3.66,0.55-5.49          c-0.05-0.25,0.11-0.5,0.36-0.56c0.25-0.06,0.5,0.11,0.56,0.36c0.43,2.02,0.22,4.17-0.61,6.07          c-0.37,0.84-0.85,1.62-1.32,2.38c-0.42,0.68-0.85,1.37-1.18,2.09c-0.78,1.69-0.81,3.35-0.09,4.43          c0.73,1.1,2.21,1.7,4.51,1.84c1.93,0.11,3.45-0.01,4.78-0.4c1.63-0.47,2.99-1.36,3.83-2.52c1.11-1.52,1.47-3.67,0.98-5.88          c-0.49-2.22-1.73-4.21-2.75-5.7c-0.15-0.21-0.09-0.51,0.12-0.65c0.21-0.15,0.51-0.09,0.65,0.12          c1.07,1.56,2.37,3.65,2.89,6.03c0.55,2.48,0.13,4.9-1.14,6.64c-0.97,1.32-2.5,2.34-4.33,2.87          C113.64,130.32,112.43,130.48,111,130.48z" class="color212121 svgShape"/><path fill="#ffffff" d="M110.57,115.55c0.75,4.01-0.14,8.29-2.4,11.68c5.6-0.62,11.2-1.24,16.8-1.86          c-0.89-3.94-0.9-8.08-0.05-12.02C120.86,114.77,114.77,114.57,110.57,115.55" class="colorfff svgShape"/><path fill="#212121" d="M108.17,127.69c-0.16,0-0.32-0.08-0.4-0.23c-0.09-0.16-0.09-0.35,0.01-0.51          c2.21-3.3,3.06-7.43,2.33-11.33c-0.05-0.25,0.11-0.49,0.36-0.54c1.82-0.42,3.92-0.62,6.15-0.83          c2.88-0.27,5.87-0.56,8.15-1.36c0.16-0.06,0.34-0.02,0.47,0.09c0.13,0.11,0.18,0.29,0.15,0.45          c-0.84,3.87-0.82,7.96,0.05,11.82c0.03,0.13,0,0.27-0.08,0.38s-0.2,0.18-0.33,0.19l-16.8,1.86          C108.2,127.69,108.19,127.69,108.17,127.69z M111.11,115.91c0.58,3.68-0.15,7.52-2.03,10.74l15.32-1.7          c-0.73-3.58-0.77-7.33-0.1-10.92c-2.25,0.65-4.96,0.91-7.59,1.16C114.69,115.38,112.77,115.56,111.11,115.91z" class="color212121 svgShape"/><path fill="#ff527c" d="M122.63,123.23c0,0,21.58,0.15,27.32,7.31s1.14,27.08,1.14,27.08l-14.34-1.3l-18.18-18.52           L122.63,123.23z" class="colorff527c svgShape"/><path fill="#212121" d="M151.09,158.09c-0.01,0-0.03,0-0.04,0l-14.34-1.3c-0.26-0.02-0.45-0.25-0.43-0.51           c0.02-0.26,0.25-0.45,0.51-0.43l13.93,1.26c0.6-2.84,3.96-19.94-1.13-26.28c-5.53-6.9-26.74-7.13-26.96-7.13           c-0.26,0-0.47-0.21-0.47-0.47c0-0.26,0.22-0.45,0.47-0.47c0.89,0.01,21.87,0.24,27.68,7.48           c5.81,7.25,1.42,26.66,1.23,27.48C151.5,157.94,151.31,158.09,151.09,158.09z" class="color212121 svgShape"/><path fill="#ff527c" d="M141.54,188.3l-41.73,0l-0.52-12.4c-0.06-1.52-0.55-2.99-1.42-4.23c-9.72-14.02-6.4-21.81-0.07-31.36           c17.73-3.53,33.87-7.2,53.27,17.32C148.77,167.74,145.57,177.96,141.54,188.3z" class="colorff527c svgShape"/><path fill="#212121" d="M107.32,188.66c-0.26,0-0.47-0.21-0.47-0.47c-0.02-6.11,0.61-12.81,1.91-20.49           c0.04-0.26,0.28-0.43,0.54-0.38c0.26,0.04,0.43,0.29,0.38,0.54c-1.29,7.63-1.91,14.28-1.9,20.33           C107.79,188.45,107.58,188.66,107.32,188.66C107.32,188.66,107.32,188.66,107.32,188.66z" class="color212121 svgShape"/><path fill="#212121" d="M141.54,188.77H99.82c-0.25,0-0.46-0.2-0.47-0.45l-0.51-12.34c-0.06-1.49-0.57-2.94-1.47-4.19           c-3.72-5.21-4.72-11.92-2.62-17.53c0.09-0.24,0.36-0.37,0.6-0.27c0.24,0.09,0.37,0.36,0.27,0.6           c-2,5.31-1.04,11.7,2.5,16.65c1,1.41,1.57,3.03,1.64,4.7l0.5,11.89h40.96c3.27-7.78,7.87-23.05,9.4-30.3           c0.05-0.25,0.3-0.42,0.56-0.36c0.25,0.05,0.42,0.3,0.36,0.56c-1.56,7.38-6.28,23.03-9.57,30.76           C141.9,188.65,141.73,188.77,141.54,188.77z" class="color212121 svgShape"/><path fill="#70bbff" d="M150.34,214.53H88.76c2.04-10.09,5.5-19.02,11.06-26.23h41.72            C141.54,188.3,150.72,193.94,150.34,214.53z" class="color70bbff svgShape"/><path fill="#212121" d="M150.34,215H88.76c-0.14,0-0.27-0.06-0.36-0.17c-0.09-0.11-0.12-0.25-0.1-0.39            c2.2-10.9,5.85-19.55,11.15-26.42c0.09-0.12,0.23-0.18,0.37-0.18h41.72c0.09,0,0.17,0.02,0.25,0.07            c0.38,0.24,9.4,6.02,9.02,26.64C150.8,214.79,150.59,215,150.34,215z M89.33,214.06h60.54            c0.22-18.5-7.49-24.59-8.48-25.29h-41.35C95.01,195.38,91.5,203.66,89.33,214.06z" class="color212121 svgShape"/><path fill="#37cfa6" d="M95.89,214.53c1.2-5.93,2.89-11.45,5.2-16.47" class="color37cfa6 svgShape"/><path fill="#212121" d="M95.89 215c-.03 0-.06 0-.09-.01-.25-.05-.42-.3-.37-.55 1.25-6.18 3.01-11.75 5.24-16.57.11-.23.39-.34.62-.23.24.11.34.39.23.62-2.2 4.75-3.94 10.26-5.17 16.36C96.31 214.84 96.11 215 95.89 215zM96.6 193.04c.99-1.65 2.05-3.24 3.21-4.75h41.73c0 0 1.88 1.35 4.16 4.75H96.6z" class="color212121 svgShape"/><path fill="#212121" d="M145.7 193.51H96.6c-.17 0-.33-.09-.41-.24s-.08-.33 0-.47c1.02-1.71 2.11-3.32 3.25-4.79.09-.12.23-.18.37-.18h41.73c.1 0 .19.03.27.09.08.06 1.97 1.44 4.28 4.86.1.14.11.33.03.48C146.04 193.42 145.88 193.51 145.7 193.51zM97.44 192.57h47.37c-1.66-2.31-3.03-3.49-3.42-3.81h-41.33C99.15 189.95 98.27 191.23 97.44 192.57zM125.98 215c-.1 0-.2-.03-.28-.1-.21-.16-.25-.45-.09-.66 1.47-1.93 2.5-4.18 3.05-6.7.06-.25.31-.41.56-.36.25.06.41.31.36.56-.58 2.66-1.66 5.03-3.22 7.07C126.26 214.93 126.12 215 125.98 215z" class="color212121 svgShape"/><path fill="#ffffff" d="M60.8,132.49c0,0,4.12-0.72,6.53,2.27c2.21,2.74-1.06,13.22-1.06,13.22l-7.96-7.67L60.8,132.49z" class="colorfff svgShape"/><path fill="#212121" d="M66.27,148.44c-0.12,0-0.24-0.05-0.33-0.13l-7.96-7.67c-0.13-0.12-0.18-0.31-0.12-0.48l2.49-7.82           c0.05-0.17,0.19-0.29,0.37-0.32c0.18-0.03,4.43-0.73,6.98,2.44c2.3,2.85-0.64,12.56-0.98,13.65           c-0.05,0.16-0.17,0.27-0.33,0.32C66.35,148.44,66.31,148.44,66.27,148.44z M58.84,140.17l7.2,6.93           c0.94-3.28,2.48-10.12,0.93-12.05c-1.86-2.31-4.89-2.22-5.81-2.14L58.84,140.17z" class="color212121 svgShape"/><path fill="#ff527c" d="M81.79,147.53c3.45-7.41,8.14-16.14,12.11-18.86c7.32-5.01,28.64-4.21,28.64-4.21           c0.39,4.16-0.32,11.35-2.91,14.84l-11.7,7.22c0,0-2.34,5.18-5.93,11.79L81.79,147.53z" class="colorff527c svgShape"/><path fill="#212121" d="M102.01,158.78c-0.07,0-0.15-0.02-0.22-0.06l-20.22-10.78c-0.22-0.12-0.31-0.39-0.2-0.61           c3.32-7.13,8.15-16.22,12.27-19.05c7.36-5.04,28.05-4.32,28.93-4.29c0.26,0.01,0.46,0.23,0.45,0.49           c-0.01,0.26-0.22,0.46-0.49,0.45c-0.21-0.01-21.25-0.74-28.36,4.13c-3.08,2.11-7.15,8.42-11.76,18.27l19.42,10.35           c3.41-6.33,5.67-11.3,5.69-11.35c0.11-0.24,0.38-0.34,0.62-0.23c0.24,0.11,0.34,0.39,0.23,0.62           c-0.02,0.05-2.39,5.27-5.94,11.82C102.34,158.69,102.18,158.78,102.01,158.78z" class="color212121 svgShape"/><path fill="#ffffff" d="M62.55,135.45c-0.26-0.67-0.56-1.33-0.93-1.95c-3.04-5.17-9.52-14.45-11.68-12.3           c-2.06,2.06,5.8,12.62,5.8,12.62c-1.67-1.84-3.88,0.18-2.74,2.37c-1.5-2.21-4.14,0.18-2.84,2.11           c-4.25-2.48-1.6,5.89,2.87,9.09c0,0,9.39,38.77,24.46,38.77c7.98,0,18.18-16.17,24.52-27.85l-20.22-10.78           c-2.9,6.23-4.93,11.52-4.93,11.52l-10.1-13.59c-0.22-0.3-0.43-0.6-0.62-0.91" class="colorfff svgShape"/><path fill="#212121" d="M77.49,186.63c-14.91,0-24.1-35.81-24.88-38.96c-3.44-2.56-5.86-8.1-4.8-9.74           c0.2-0.31,0.65-0.71,1.54-0.48c-0.1-0.91,0.36-1.77,1.05-2.24c0.51-0.35,1.17-0.48,1.81-0.25           c0.01-0.85,0.41-1.57,0.98-1.96c0.3-0.21,0.68-0.35,1.11-0.36c-2.27-3.23-6.56-9.9-4.69-11.76           c0.36-0.36,0.82-0.51,1.35-0.44c3.76,0.48,10.77,12.33,11.06,12.83c0.37,0.63,0.69,1.31,0.97,2.02           c0.09,0.24-0.03,0.51-0.27,0.61c-0.24,0.09-0.51-0.03-0.61-0.27c-0.25-0.67-0.55-1.3-0.9-1.88           c-3.41-5.79-8.2-12.1-10.37-12.38c-0.24-0.03-0.42,0.02-0.57,0.17c-1.22,1.22,2.68,7.76,5.84,12           c0.15,0.2,0.11,0.48-0.08,0.64c-0.19,0.16-0.48,0.14-0.65-0.05c-0.53-0.59-1.15-0.73-1.66-0.37           c-0.54,0.37-0.82,1.25-0.32,2.22c0.11,0.22,0.04,0.49-0.18,0.62c-0.21,0.13-0.49,0.07-0.63-0.14           c-0.47-0.69-1.1-0.87-1.68-0.48c-0.59,0.4-0.9,1.28-0.38,2.05c0.12,0.18,0.1,0.42-0.05,0.58           c-0.15,0.16-0.39,0.19-0.58,0.08c-0.25-0.15-1.1-0.6-1.32-0.27c-0.69,1.06,1.36,6.18,4.7,8.57           c0.09,0.07,0.16,0.16,0.18,0.27c0.09,0.38,9.48,38.41,24.01,38.41c5.85,0,14.32-9.65,23.88-27.19l-19.37-10.32           c-2.75,5.95-4.69,10.99-4.71,11.04c-0.06,0.16-0.2,0.27-0.37,0.3c-0.17,0.02-0.34-0.05-0.44-0.19l-10.1-13.59           c-0.22-0.3-0.44-0.62-0.64-0.94c-0.14-0.22-0.07-0.51,0.15-0.65c0.22-0.14,0.51-0.07,0.65,0.15c0.19,0.3,0.39,0.6,0.6,0.88           l9.6,12.91c0.68-1.71,2.41-5.98,4.63-10.76c0.05-0.12,0.15-0.21,0.28-0.25c0.12-0.04,0.26-0.03,0.37,0.03l20.22,10.78           c0.11,0.06,0.19,0.16,0.23,0.28c0.04,0.12,0.02,0.25-0.04,0.36C95.48,171.35,85.51,186.63,77.49,186.63z" class="color212121 svgShape"/><path fill="#212121" d="M76.42 166.58c-.06 0-.13-.01-.19-.04-.24-.1-.35-.38-.24-.62 1.41-3.22.43-6.71.42-6.74-.07-.25.07-.51.32-.58.25-.07.51.07.58.32.05.15 1.09 3.84-.46 7.38C76.77 166.48 76.6 166.58 76.42 166.58zM56.4 135.23c-.15 0-.29-.07-.38-.2l-.67-.94c-.15-.21-.1-.5.11-.66.21-.15.5-.1.66.11l.67.94c.15.21.1.5-.11.66C56.59 135.2 56.5 135.23 56.4 135.23zM53.57 137.48c-.15 0-.29-.07-.38-.2l-.58-.82c-.15-.21-.1-.51.11-.65.21-.15.51-.1.65.11l.58.82c.15.21.1.51-.11.65C53.76 137.45 53.66 137.48 53.57 137.48zM50.76 139.35c-.12 0-.23-.04-.33-.13l-.61-.59c-.19-.18-.19-.48-.01-.66.18-.19.48-.19.66-.01l.61.59c.19.18.19.48.01.66C51.01 139.3 50.89 139.35 50.76 139.35z" class="color212121 svgShape"/><g fill="#000000" class="color000 svgShape"><path fill="#212121" d="M130.51,91.67l1.13,8.69c2.58,0.94,5.51,0.8,8.06-0.23c0.52-0.21,1.03-0.46,1.52-0.75            c1.89-1.09,3.49-2.66,4.66-4.5c1.44-2.25,2.24-4.96,1.96-7.61c-0.28-2.65-1.74-5.22-4.03-6.59            c-2.29-1.36-5.41-1.36-7.55,0.25c-1.7,1.28-2.6,3.33-3.44,5.29c-0.13,0.32-0.27,0.63-0.4,0.95            C131.79,88.67,131.15,90.17,130.51,91.67z" class="color212121 svgShape"/><path fill="#212121" d="M100.18,95.46c-0.07,0.91-0.06,1.82,0.05,2.73c1.03,8.78,9.03,12.16,16.54,14.29            c-1.12,7.52-6.21,9.86-9,16.81c-0.51,1.28-1.05,2.56-1.18,3.93c-0.25,2.62,0.5,5.32,2.07,7.43            c1.02,1.36,2.46,2.53,4.15,2.74c1.69,0.22,3.59-0.77,3.99-2.43c0.45-1.85-0.97-3.98,0.01-5.63            c0.66-1.1,2.18-1.43,3.42-1.1c1.25,0.32,2.29,1.13,3.35,1.86c1.05,0.74,2.21,1.44,3.5,1.49c0.9,0.04,1.92-0.38,2.16-1.25            c0.16-0.6-0.11-1.24-0.04-1.85c0.07-0.77,0.66-1.43,1.37-1.74c0.71-0.31,1.52-0.31,2.27-0.18            c1.6,0.28,3.03,1.15,4.34,2.09c1.32,0.95,2.57,1.99,4,2.75c1.44,0.75,3.11,1.2,4.68,0.81c1.58-0.38,2.97-1.75,3.02-3.37            c0.03-1.06-0.51-2.08-1.25-2.86c-0.61-0.65-1.59-1.22-2.33-1.77c-5-3.67-5.36-7.25-5.02-13.45            c0.41-7.38,1.99-14.64-0.5-21.6c-0.94-2.61-2.72-5.1-4.89-6.84c-2.14-1.72-5.66-3.23-8.27-4.04            c-7-2.18-16.11-3.61-21.98,1.87C102.07,88.56,100.47,91.96,100.18,95.46z" class="color212121 svgShape"/><path fill="#212121" d="M113.3,143.9c-0.18,0-0.36-0.01-0.55-0.04c-1.62-0.2-3.21-1.24-4.47-2.93            c-1.63-2.2-2.42-5.03-2.16-7.76c0.14-1.39,0.65-2.68,1.16-3.92l0.06-0.14c1.2-2.99,2.81-5.12,4.36-7.19            c1.98-2.63,3.86-5.13,4.55-9.11c-7.63-2.21-15.44-5.7-16.48-14.57c-0.11-0.93-0.12-1.88-0.05-2.82v0            c0.3-3.66,1.98-7.16,4.6-9.62c4.77-4.46,12.32-5.12,22.44-1.97c2.61,0.81,6.19,2.32,8.43,4.12            c2.23,1.79,4.07,4.36,5.04,7.05c1.97,5.49,1.44,11.25,0.92,16.83c-0.15,1.62-0.3,3.3-0.4,4.95            c-0.35,6.2,0.02,9.51,4.83,13.04c0.21,0.16,0.45,0.31,0.68,0.48c0.61,0.42,1.25,0.85,1.71,1.34            c0.92,0.97,1.4,2.1,1.38,3.19c-0.05,1.74-1.47,3.35-3.38,3.81c-1.91,0.46-3.78-0.21-5.01-0.85            c-1.09-0.57-2.09-1.32-3.05-2.03c-0.34-0.25-0.67-0.5-1.01-0.75c-1.17-0.84-2.57-1.73-4.15-2.01            c-0.78-0.14-1.46-0.09-2,0.15c-0.61,0.27-1.04,0.8-1.09,1.35c-0.02,0.22,0.01,0.46,0.04,0.71            c0.05,0.37,0.1,0.79-0.01,1.22c-0.3,1.12-1.55,1.65-2.63,1.6c-1.39-0.05-2.62-0.79-3.75-1.57l-0.36-0.25            c-0.94-0.66-1.82-1.28-2.84-1.54c-1.02-0.27-2.34-0.05-2.9,0.89c-0.45,0.77-0.27,1.73-0.08,2.75            c0.17,0.9,0.35,1.83,0.12,2.75C116.86,142.72,115.15,143.9,113.3,143.9z M100.65,95.5c-0.07,0.89-0.06,1.77,0.04,2.64            c1,8.47,8.75,11.78,16.21,13.89c0.23,0.06,0.37,0.29,0.34,0.52c-0.66,4.46-2.67,7.12-4.79,9.94            c-1.52,2.01-3.08,4.09-4.24,6.97l-0.06,0.14c-0.48,1.18-0.97,2.41-1.09,3.66c-0.24,2.5,0.48,5.09,1.98,7.11            c0.64,0.85,1.98,2.32,3.83,2.55c1.39,0.18,3.12-0.61,3.47-2.07c0.18-0.72,0.02-1.51-0.13-2.35            c-0.22-1.15-0.44-2.33,0.19-3.41c0.79-1.33,2.58-1.67,3.94-1.32c1.19,0.3,2.18,1,3.15,1.68l0.36,0.25            c1.01,0.7,2.09,1.36,3.25,1.4c0.68,0.03,1.51-0.28,1.68-0.91c0.06-0.25,0.03-0.54-0.01-0.86            c-0.04-0.29-0.08-0.6-0.04-0.92c0.08-0.89,0.73-1.72,1.65-2.12c0.72-0.31,1.57-0.38,2.54-0.21            c1.77,0.31,3.28,1.27,4.54,2.17c0.35,0.25,0.69,0.5,1.03,0.76c0.97,0.73,1.89,1.41,2.92,1.95            c1.09,0.57,2.73,1.17,4.35,0.77c1.48-0.36,2.62-1.62,2.66-2.93c0.03-1.14-0.69-2.07-1.12-2.52            c-0.4-0.42-0.99-0.82-1.56-1.22c-0.25-0.17-0.49-0.33-0.71-0.5c-5.36-3.94-5.54-7.86-5.21-13.85            c0.09-1.67,0.25-3.36,0.4-4.99c0.53-5.73,1.02-11.14-0.87-16.43c-0.91-2.53-2.64-4.94-4.74-6.63            c-2.14-1.72-5.71-3.21-8.12-3.96c-9.77-3.04-17.01-2.45-21.52,1.76C102.5,88.79,100.93,92.07,100.65,95.5L100.65,95.5z" class="color212121 svgShape"/><path fill="#ffffff" d="M127.46,98.53c-3.32-1.74-7.21-7.69-12.25-7.2c-3,0.42-9.97,1.92-8.39,8.52            c-0.81,2.92-1.29,5.94-1.4,8.97c-0.07,1.92,0.02,3.93,0.98,5.59c1.55,2.67,5.06,3.71,8.1,3.17            c2.45-0.44,4.64-1.7,6.66-3.18" class="colorfff svgShape"/><path fill="#212121" d="M112.46,118.17c-0.01,0-0.02,0-0.02,0c-2.83-0.14-5.24-1.46-6.44-3.53            c-1.05-1.81-1.12-3.97-1.04-5.84c0.12-3.02,0.58-6.03,1.39-8.96c-0.45-1.99-0.19-3.7,0.76-5.11            c1.37-2.01,4.07-3.31,8.05-3.87c3.59-0.35,6.53,2.27,9.11,4.59c1.22,1.09,2.37,2.11,3.42,2.66            c0.23,0.12,0.32,0.4,0.2,0.63c-0.12,0.23-0.4,0.32-0.63,0.2c-1.15-0.6-2.34-1.67-3.61-2.8c-2.45-2.18-5.21-4.66-8.38-4.36            c-3.63,0.51-6.19,1.71-7.38,3.46c-0.82,1.21-1.02,2.71-0.6,4.48c0.02,0.08,0.02,0.16,0,0.24c-0.8,2.9-1.27,5.88-1.39,8.87            c-0.07,1.74-0.01,3.74,0.92,5.34c1.04,1.79,3.16,2.94,5.67,3.06c0.26,0.01,0.46,0.23,0.45,0.49            C112.92,117.98,112.71,118.17,112.46,118.17z" class="color212121 svgShape"/><path fill="#212121" d="M102.51,99.91c0,0,4.96,2.97,12.38-1.9c-0.26,2.2-0.27,4.39,0,6.57l1.74,8.74            c-0.21,1.69-1.32,3.96-2.15,5.46c11.07-0.45,17.09-7.94,15.2-23.12c-7.02-5.61-14.27-8.44-21.86-7.32L102.51,99.91z" class="color212121 svgShape"/><path fill="#212121" d="M114.48,119.25c-0.16,0-0.31-0.08-0.4-0.22c-0.09-0.14-0.09-0.33-0.01-0.47            c0.84-1.52,1.87-3.64,2.09-5.22l-1.73-8.66c-0.23-1.91-0.27-3.83-0.1-5.75c-7.12,4.24-11.85,1.51-12.06,1.39            c-0.21-0.12-0.29-0.38-0.19-0.6l5.31-11.57c0.07-0.14,0.2-0.25,0.36-0.27c7.36-1.08,14.63,1.34,22.22,7.42            c0.1,0.08,0.16,0.19,0.17,0.31c1.02,8.2-0.2,14.42-3.63,18.47c-2.73,3.22-6.77,4.97-12.02,5.18            C114.49,119.25,114.48,119.25,114.48,119.25z M114.89,97.55c0.09,0,0.17,0.02,0.25,0.07c0.16,0.1,0.24,0.27,0.22,0.46            c-0.26,2.16-0.26,4.33,0,6.45l1.74,8.7c0.01,0.05,0.01,0.1,0.01,0.15c-0.18,1.48-1.01,3.36-1.81,4.89            c4.57-0.34,8.1-1.96,10.51-4.8c3.23-3.81,4.38-9.72,3.43-17.55c-7.24-5.75-14.14-8.08-21.09-7.14l-5.01,10.92            c1.25,0.55,5.5,1.86,11.51-2.07C114.71,97.58,114.8,97.55,114.89,97.55z M102.51,99.91L102.51,99.91L102.51,99.91z" class="color212121 svgShape"/><path fill="#212121" d="M125.09,101.76c1.51,2.44,1.21,5.63,0.11,8.28s-2.9,4.93-4.41,7.38c-1.5,2.44-2.75,5.22-2.52,8.07" class="color212121 svgShape"/><path fill="#ffffff" d="M118.27 125.96c-.24 0-.45-.19-.47-.43-.2-2.51.62-5.17 2.59-8.36.46-.74.94-1.47 1.41-2.18 1.08-1.63 2.2-3.32 2.96-5.13 1.2-2.9 1.17-5.83-.08-7.85-.14-.22-.07-.51.15-.65.22-.14.51-.07.65.15 1.43 2.31 1.48 5.49.15 8.71-.79 1.9-1.93 3.62-3.04 5.29-.47.7-.95 1.43-1.4 2.15-1.86 3.01-2.63 5.49-2.45 7.79.02.26-.17.48-.43.51C118.3 125.96 118.29 125.96 118.27 125.96zM125.12 133.57c-.14 0-.28-.06-.37-.18-1.55-1.95-2.44-4.4-2.48-6.9-.05-2.49.74-4.98 2.22-6.98.15-.21.45-.25.66-.1.21.15.25.45.1.66-1.36 1.84-2.08 4.12-2.04 6.41.04 2.29.85 4.54 2.28 6.33.16.2.13.5-.07.66C125.32 133.54 125.22 133.57 125.12 133.57zM137.31 129.2c-.04 0-.07 0-.11-.01-2.73-.65-4.3-3.46-4.61-5.79-.33-2.5.37-5.01 1.12-7.36l.14-.44c.68-2.12 1.38-4.32 1.33-6.52-.01-.26.2-.47.46-.48.29 0 .47.2.48.46.05 2.36-.67 4.63-1.37 6.82l-.14.44c-.71 2.25-1.39 4.64-1.08 6.95.26 2.02 1.6 4.44 3.89 4.99.25.06.41.31.35.57C137.71 129.06 137.52 129.2 137.31 129.2zM113.94 105.47c.55-1.51 1.51-2.96 2.96-3.65 1.45-.69 3.45-.37 4.29 1.01.42.68.51 1.52.48 2.32-.06 2.08-.81 4.14-2.12 5.76-1.31 1.62-3.15 2.8-5.17 3.3" class="colorfff svgShape"/><path fill="#212121" d="M114.38,114.66c-0.21,0-0.4-0.14-0.46-0.36c-0.06-0.25,0.09-0.51,0.34-0.57            c1.93-0.48,3.68-1.59,4.92-3.14c1.25-1.55,1.96-3.49,2.02-5.48c0.02-0.9-0.11-1.56-0.42-2.06            c-0.73-1.19-2.49-1.39-3.69-0.83c-1.16,0.55-2.13,1.75-2.72,3.39c-0.09,0.24-0.36,0.37-0.6,0.28            c-0.24-0.09-0.37-0.36-0.28-0.6c0.48-1.32,1.43-3.08,3.2-3.92c1.55-0.74,3.86-0.49,4.89,1.19c0.4,0.66,0.58,1.5,0.55,2.58            c-0.06,2.19-0.85,4.33-2.22,6.04c-1.37,1.71-3.3,2.93-5.43,3.46C114.46,114.66,114.42,114.66,114.38,114.66z" class="color212121 svgShape"/><g fill="#000000" class="color000 svgShape"><path fill="#212121" d="M117.44,110.46C117.44,110.46,117.44,110.46,117.44,110.46c-1.19-0.01-2.32-0.89-2.63-2.03           c-0.16-0.6-0.09-1.2,0.2-1.65c0.37-0.58,1.1-0.85,1.69-0.63c0.19,0.07,0.33,0.17,0.46,0.26c0.1,0.07,0.2,0.14,0.28,0.16           c0.12,0.03,0.28-0.05,0.36-0.18c0.09-0.16,0.1-0.39,0.02-0.6c-0.08-0.21-0.24-0.43-0.48-0.64           c-0.2-0.17-0.22-0.47-0.05-0.66c0.17-0.2,0.47-0.21,0.66-0.04c0.36,0.32,0.61,0.65,0.75,1.01           c0.18,0.48,0.15,1.01-0.08,1.41c-0.29,0.49-0.88,0.75-1.4,0.62c-0.24-0.06-0.42-0.19-0.57-0.29           c-0.09-0.06-0.18-0.12-0.25-0.15c-0.18-0.07-0.45,0.05-0.58,0.25c-0.14,0.22-0.17,0.56-0.08,0.9           c0.2,0.75,0.95,1.33,1.73,1.34c0.26,0,0.47,0.22,0.46,0.47C117.91,110.25,117.7,110.46,117.44,110.46z" class="color212121 svgShape"/></g></g></g><g fill="#000000" class="color000 svgShape"><path fill="#212121" d="M225.65,215H78.47c-0.26,0-0.47-0.21-0.47-0.47c0-0.26,0.21-0.47,0.47-0.47h147.18       c0.26,0,0.47,0.21,0.47,0.47C226.12,214.79,225.91,215,225.65,215z" class="color212121 svgShape"/></g></g><g fill="#000000" class="color000 svgShape"><path fill="#212121" d="M41.18,41.7c-1.85,0-3.35-1.5-3.35-3.35S39.33,35,41.18,35c1.85,0,3.35,1.5,3.35,3.35       S43.02,41.7,41.18,41.7z M41.18,35.94c-1.33,0-2.41,1.08-2.41,2.41s1.08,2.41,2.41,2.41c1.33,0,2.41-1.08,2.41-2.41       S42.5,35.94,41.18,35.94z" class="color212121 svgShape"/><path fill="#212121" d="M42.16,38.86v6.21h-1.97v-6.21c0-0.54,0.44-0.99,0.99-0.99l0,0C41.72,37.88,42.16,38.32,42.16,38.86z" class="color212121 svgShape"/><path fill="#212121" d="M42.16,45.54h-1.97c-0.26,0-0.47-0.21-0.47-0.47v-6.21c0-0.8,0.65-1.46,1.46-1.46       c0.8,0,1.46,0.65,1.46,1.46v6.21C42.63,45.33,42.42,45.54,42.16,45.54z M40.66,44.6h1.03v-5.74c0-0.28-0.23-0.52-0.52-0.52       c-0.28,0-0.52,0.23-0.52,0.52V44.6z" class="color212121 svgShape"/></g><g fill="#000000" class="color000 svgShape"><path fill="#212121" d="M96.24,41.7c-1.85,0-3.35-1.5-3.35-3.35S94.39,35,96.24,35c1.85,0,3.35,1.5,3.35,3.35       S98.08,41.7,96.24,41.7z M96.24,35.94c-1.33,0-2.41,1.08-2.41,2.41s1.08,2.41,2.41,2.41c1.33,0,2.41-1.08,2.41-2.41       S97.56,35.94,96.24,35.94z" class="color212121 svgShape"/><path fill="#212121" d="M95.25,38.86v6.21h1.97v-6.21c0-0.54-0.44-0.99-0.99-0.99l0,0C95.69,37.88,95.25,38.32,95.25,38.86z" class="color212121 svgShape"/><path fill="#212121" d="M97.22,45.54h-1.97c-0.26,0-0.47-0.21-0.47-0.47v-6.21c0-0.8,0.65-1.46,1.46-1.46       c0.8,0,1.46,0.65,1.46,1.46v6.21C97.69,45.33,97.48,45.54,97.22,45.54z M95.72,44.6h1.03v-5.74c0-0.28-0.23-0.52-0.52-0.52       c-0.29,0-0.52,0.23-0.52,0.52V44.6z" class="color212121 svgShape"/></g><g fill="#000000" class="color000 svgShape"><path fill="#212121" d="M30.15 55.58c-.12 0-.22-.04-.28-.11-.07-.07-.1-.17-.1-.28 0-.05.01-.1.04-.17l2.2-5.2c.04-.09.1-.17.19-.25.08-.07.19-.11.32-.11h.09c.13 0 .24.04.32.11.08.07.14.15.18.25l2.2 5.2c.03.07.04.13.04.17 0 .11-.03.2-.1.28-.07.07-.16.11-.29.11-.18 0-.3-.08-.37-.24l-.56-1.35h-2.94l-.56 1.35C30.45 55.5 30.33 55.58 30.15 55.58zM31.38 53.27h2.33l-1.17-2.81L31.38 53.27zM37 55.58c-.11 0-.2-.04-.28-.11-.08-.07-.11-.17-.11-.28v-5.16c0-.16.05-.29.16-.4.11-.11.24-.17.4-.17h.11c.1 0 .19.02.27.07.08.05.15.11.21.19l3.33 4.81v-4.67c0-.11.04-.2.11-.28.07-.08.17-.12.28-.12.11 0 .2.04.28.12.08.08.12.17.12.28v5.16c0 .16-.06.29-.17.4-.11.11-.25.16-.4.16h-.1c-.09 0-.18-.02-.26-.06-.08-.04-.15-.1-.2-.17l-3.35-4.83v4.68c0 .11-.04.2-.12.28C37.21 55.54 37.11 55.58 37 55.58zM43.94 55.58c-.11 0-.2-.04-.28-.11-.08-.07-.11-.17-.11-.28v-5.16c0-.16.05-.29.16-.4.11-.11.24-.17.4-.17h.11c.1 0 .19.02.27.07.08.05.15.11.21.19l3.33 4.81v-4.67c0-.11.04-.2.11-.28.07-.08.17-.12.28-.12.11 0 .2.04.28.12.08.08.12.17.12.28v5.16c0 .16-.06.29-.17.4-.11.11-.25.16-.4.16h-.1c-.09 0-.18-.02-.26-.06-.08-.04-.15-.1-.2-.17l-3.35-4.83v4.68c0 .11-.04.2-.12.28C44.15 55.54 44.05 55.58 43.94 55.58zM53.17 55.63c-.62 0-1.15-.13-1.6-.4-.45-.26-.8-.63-1.05-1.1-.25-.47-.38-1-.39-1.61.01-.61.14-1.14.39-1.61.25-.47.6-.83 1.05-1.1.45-.27.98-.4 1.6-.4.62 0 1.15.13 1.6.4.45.26.8.63 1.05 1.1s.38 1 .39 1.61c-.01.61-.14 1.14-.39 1.61-.25.47-.6.83-1.05 1.1C54.32 55.49 53.78 55.63 53.17 55.63zM53.17 54.89c.48 0 .88-.11 1.22-.32.33-.21.59-.49.76-.85.18-.36.26-.76.26-1.2 0-.44-.09-.84-.26-1.2s-.43-.64-.76-.85c-.33-.21-.74-.32-1.22-.32-.48 0-.89.11-1.22.32s-.59.49-.76.85-.26.76-.26 1.2c0 .44.09.84.26 1.2.18.36.43.64.76.85S52.69 54.89 53.17 54.89zM59.95 55.63c-.29 0-.58-.05-.87-.14-.29-.09-.56-.23-.8-.43-.24-.19-.44-.44-.58-.73-.15-.3-.22-.65-.22-1.05v-3.41c0-.11.04-.2.11-.28.08-.08.17-.12.28-.12.11 0 .2.04.28.12.08.08.12.17.12.28v3.44c0 .36.08.66.25.89.16.24.38.42.64.54.26.12.53.18.81.18.28 0 .55-.06.81-.18.26-.12.47-.3.64-.54.16-.24.25-.54.25-.89v-3.44c0-.11.04-.2.11-.28.08-.08.17-.12.28-.12.11 0 .2.04.28.12.08.08.12.17.12.28v3.41c0 .4-.07.75-.22 1.05-.15.3-.34.54-.58.73-.24.19-.51.34-.8.43C60.53 55.58 60.24 55.63 59.95 55.63zM64.46 55.58c-.11 0-.2-.04-.28-.11-.08-.07-.11-.17-.11-.28v-5.16c0-.16.05-.29.16-.4.11-.11.24-.17.4-.17h.11c.1 0 .19.02.27.07.08.05.15.11.21.19l3.33 4.81v-4.67c0-.11.04-.2.11-.28.07-.08.17-.12.28-.12.11 0 .2.04.28.12.08.08.12.17.12.28v5.16c0 .16-.06.29-.17.4-.11.11-.25.16-.4.16h-.1c-.09 0-.18-.02-.26-.06-.08-.04-.15-.1-.2-.17l-3.35-4.83v4.68c0 .11-.04.2-.12.28C64.66 55.54 64.57 55.58 64.46 55.58zM73.67 55.63c-.57 0-1.09-.13-1.54-.38-.46-.25-.82-.61-1.08-1.07-.27-.46-.4-1.02-.4-1.66 0-.65.13-1.2.4-1.66.27-.46.63-.82 1.08-1.07.46-.25.97-.38 1.54-.38.43 0 .79.05 1.11.16.31.1.6.23.86.38.06.03.1.07.13.12.03.05.05.11.06.19.01.09-.02.17-.09.24-.06.07-.15.1-.26.1-.06 0-.11-.01-.16-.03-.23-.12-.47-.22-.71-.29-.24-.07-.53-.11-.87-.11-.51 0-.93.1-1.28.31-.35.21-.61.49-.78.84-.17.35-.26.75-.26 1.2 0 .44.09.84.26 1.2.17.35.43.64.78.84.35.21.77.31 1.28.31.34 0 .63-.04.87-.11.24-.07.48-.17.71-.29.05-.02.1-.03.16-.03.11 0 .2.03.26.1.06.07.09.15.09.24-.01.08-.02.15-.06.19-.03.05-.08.09-.13.12-.27.15-.55.28-.86.38C74.47 55.57 74.1 55.63 73.67 55.63zM77.41 55.54c-.11 0-.2-.04-.28-.11-.08-.07-.11-.17-.11-.28V49.9c0-.11.04-.2.11-.28.07-.08.17-.12.28-.12h3.47c.1 0 .19.04.26.11.07.07.11.16.11.26s-.04.19-.11.26c-.07.07-.16.1-.26.1H77.8v1.91h2.76c.1 0 .19.04.26.11.07.07.11.16.11.26s-.04.19-.11.26c-.07.07-.16.1-.26.1H77.8v1.92h3.07c.1 0 .19.04.26.11.07.07.11.16.11.26s-.04.19-.11.26c-.07.07-.16.1-.26.1H77.41zM82.92 55.58c-.11 0-.2-.04-.28-.11-.08-.07-.11-.17-.11-.28v-5.16c0-.16.05-.29.16-.4.11-.11.24-.17.4-.17h.28c.12 0 .22.03.32.1.1.07.17.16.21.26l1.96 4.89 1.96-4.89c.05-.1.12-.19.21-.26.09-.07.2-.1.32-.1h.29c.16 0 .29.06.4.17.11.11.16.25.16.4v5.16c0 .11-.04.2-.11.28-.08.07-.17.11-.28.11-.11 0-.2-.04-.28-.11-.08-.07-.12-.17-.12-.28v-4.91l-2 4.94c-.05.11-.12.2-.22.26-.1.07-.21.1-.34.1s-.24-.03-.34-.1c-.1-.07-.17-.15-.22-.26l-2-4.94v4.91c0 .11-.04.2-.12.28C83.13 55.54 83.03 55.58 82.92 55.58zM91.27 55.54c-.11 0-.2-.04-.28-.11-.08-.07-.11-.17-.11-.28V49.9c0-.11.04-.2.11-.28.07-.08.17-.12.28-.12h3.47c.1 0 .19.04.26.11.07.07.11.16.11.26s-.04.19-.11.26c-.07.07-.16.1-.26.1h-3.07v1.91h2.76c.1 0 .19.04.26.11.07.07.11.16.11.26s-.04.19-.11.26c-.07.07-.16.1-.26.1h-2.76v1.92h3.07c.1 0 .19.04.26.11.07.07.11.16.11.26s-.04.19-.11.26c-.07.07-.16.1-.26.1H91.27zM96.79 55.58c-.11 0-.2-.04-.28-.11-.08-.07-.11-.17-.11-.28v-5.16c0-.16.05-.29.16-.4.11-.11.24-.17.4-.17h.11c.1 0 .19.02.27.07.08.05.15.11.21.19l3.33 4.81v-4.67c0-.11.04-.2.11-.28.07-.08.17-.12.28-.12.11 0 .2.04.28.12.08.08.12.17.12.28v5.16c0 .16-.06.29-.17.4-.11.11-.25.16-.4.16h-.1c-.09 0-.18-.02-.26-.06-.08-.04-.15-.1-.2-.17l-3.35-4.83v4.68c0 .11-.04.2-.12.28C96.99 55.54 96.9 55.58 96.79 55.58zM105.13 55.58c-.11 0-.2-.04-.28-.11-.07-.07-.11-.17-.11-.28v-4.95h-1.76c-.1 0-.19-.03-.26-.1-.07-.07-.1-.16-.1-.26s.03-.19.1-.26c.07-.07.16-.11.26-.11h4.3c.1 0 .19.04.26.11.07.07.11.16.11.26s-.04.19-.11.26c-.07.07-.16.1-.26.1h-1.75v4.95c0 .11-.04.2-.12.28C105.33 55.54 105.24 55.58 105.13 55.58z" class="color212121 svgShape"/></g><g fill="#000000" class="color000 svgShape"><path fill="#ffffff" d="M216.06,63.76c-0.11,0.02-0.11,0.16,0,0.19c1.2,0.25,2.27,1,3.1,2.07c0.79,1.05,1.35,2.39,1.56,3.9       c0.01,0.11,0.17,0.11,0.18,0c0.43-3.07,2.3-5.48,4.66-5.98c0.11-0.02,0.11-0.16,0-0.19c-1.2-0.25-2.27-1-3.1-2.07       c-0.79-1.05-1.35-2.39-1.56-3.9c-0.01-0.11-0.17-0.11-0.18,0c-0.21,1.51-0.77,2.86-1.56,3.9       C218.34,62.77,217.26,63.51,216.06,63.76z" class="colorfff svgShape"/><path fill="#212121" d="M220.82,70.48c-0.28,0-0.52-0.2-0.56-0.49c-0.19-1.4-0.7-2.67-1.47-3.68c-0.78-1.02-1.76-1.68-2.82-1.9       c-0.27-0.06-0.45-0.28-0.45-0.55s0.19-0.5,0.45-0.55l0,0c1.06-0.22,2.04-0.88,2.82-1.9c0.77-1.01,1.28-2.28,1.47-3.68       c0.04-0.28,0.27-0.49,0.56-0.49c0.28,0,0.52,0.2,0.56,0.49c0.19,1.4,0.7,2.67,1.47,3.68c0.78,1.02,1.76,1.67,2.82,1.9       c0.27,0.06,0.45,0.28,0.45,0.55s-0.19,0.5-0.45,0.55c-2.17,0.45-3.89,2.7-4.29,5.58C221.34,70.27,221.1,70.48,220.82,70.48z        M220.44,69.86C220.44,69.86,220.44,69.86,220.44,69.86C220.44,69.86,220.44,69.86,220.44,69.86z M221.19,69.86       C221.19,69.86,221.19,69.86,221.19,69.86C221.19,69.86,221.19,69.86,221.19,69.86z M217.26,63.86c0.85,0.4,1.62,1.03,2.28,1.88       c0.55,0.73,0.98,1.57,1.28,2.49c0.66-2.02,1.95-3.62,3.56-4.37c-0.85-0.4-1.63-1.03-2.28-1.88c-0.55-0.73-0.98-1.57-1.28-2.49       c-0.3,0.92-0.73,1.76-1.28,2.48C218.89,62.83,218.11,63.46,217.26,63.86z M216.16,64.22       C216.16,64.22,216.16,64.22,216.16,64.22C216.16,64.22,216.16,64.22,216.16,64.22L216.16,64.22z M220.44,57.85       C220.44,57.85,220.44,57.85,220.44,57.85C220.44,57.85,220.44,57.85,220.44,57.85z M221.19,57.85       C221.19,57.85,221.19,57.85,221.19,57.85C221.19,57.85,221.19,57.85,221.19,57.85z" class="color212121 svgShape"/></g><g fill="#000000" class="color000 svgShape"><path fill="#212121" d="M41.64 176.53c.12.02.12.18 0 .2-1.31.27-2.49 1.09-3.39 2.27-.87 1.14-1.48 2.62-1.71 4.27-.02.12-.18.12-.2 0-.47-3.36-2.52-6-5.1-6.54-.12-.02-.12-.18 0-.2 1.31-.27 2.49-1.09 3.39-2.27.87-1.14 1.48-2.62 1.71-4.27.02-.12.18-.12.2 0 .23 1.65.84 3.13 1.71 4.27C39.15 175.44 40.32 176.26 41.64 176.53zM30.96 167.81c.07.02.07.11 0 .13-.83.17-1.57.69-2.14 1.43-.55.72-.93 1.65-1.08 2.69-.01.07-.12.07-.13 0-.29-2.12-1.59-3.78-3.22-4.13-.07-.02-.07-.11 0-.13.83-.17 1.57-.69 2.14-1.43.55-.72.93-1.65 1.08-2.69.01-.07.12-.07.13 0 .14 1.04.53 1.97 1.08 2.69C29.39 167.12 30.13 167.64 30.96 167.81z" class="color212121 svgShape"/></g><g fill="#000000" class="color000 svgShape"><path fill="#d3d0ff" d="M225.65,176.69v10.03c0,12.97-10.51,23.48-23.49,23.48h-2.38c-3.8-9.82-5.77-19.53-2.44-25.97      c4.43-8.58,18.13-10.93,27.98-10.11c0,0,0.01,0,0.01,0.01C225.55,174.95,225.65,175.81,225.65,176.69z" class="colord3d0ff svgShape"/><path fill="#212121" d="M202.17,210.67h-2.38c-0.19,0-0.37-0.12-0.44-0.3c-4.56-11.78-5.37-20.65-2.42-26.36      c4.35-8.43,17.41-11.28,28.44-10.37c0.2,0.02,0.37,0.17,0.42,0.36h0c0.22,0.87,0.34,1.77,0.34,2.69v10.03      C226.12,199.92,215.38,210.67,202.17,210.67z M200.11,209.73h2.06c12.69,0,23.02-10.32,23.02-23.01v-10.03      c0-0.73-0.08-1.44-0.23-2.14c-10.34-0.77-23.11,1.98-27.19,9.89C194.96,189.85,195.75,198.36,200.11,209.73z" class="color212121 svgShape"/></g><g fill="#000000" class="color000 svgShape"><path fill="#212121" d="M204.48 184.8c4.87-1.78 10.1-3.17 15.77-4.07M204.48 185.27c-.19 0-.37-.12-.44-.31-.09-.24.04-.51.28-.6 5.06-1.85 10.4-3.23 15.85-4.09.26-.04.5.13.54.39.04.26-.13.5-.39.54-5.4.86-10.67 2.22-15.68 4.05C204.59 185.26 204.54 185.27 204.48 185.27zM218.17 181.08c.11.49.15.88.17 1.22" class="color212121 svgShape"/><path fill="#212121" d="M218.34,182.78c-0.25,0-0.46-0.2-0.47-0.45c-0.01-0.34-0.07-0.72-0.16-1.14c-0.06-0.25,0.1-0.5,0.36-0.56      c0.25-0.06,0.5,0.1,0.56,0.36c0.1,0.48,0.16,0.9,0.18,1.3c0.01,0.26-0.19,0.48-0.45,0.49      C218.35,182.78,218.35,182.78,218.34,182.78z" class="color212121 svgShape"/></g></svg>